%
M48
M72
T01C0.0400
T02C0.0470
T03C0.0710
T04C0.1260
%
T01
X17560Y8443
X17560Y9443
X17560Y10443
X17560Y11443
T02
X15240Y11883
X13280Y11883
X13280Y7853
X15240Y7853
X15240Y2933
X13280Y2933
X13280Y16803
X15240Y16803
T03
X16030Y14343
X12490Y14343
X12490Y5393
X16030Y5393
T04
X10760Y3393
X10760Y5393
X10760Y7893
X11760Y9893
X9560Y9893
X10760Y11893
X10760Y14393
X10760Y16393
X17760Y16393
X18960Y14393
X18960Y5393
X17760Y3393
M30
