G75*
%MOIN*%
%OFA0B0*%
%FSLAX25Y25*%
%IPPOS*%
%LPD*%
%AMOC8*
5,1,8,0,0,1.08239X$1,22.5*
%
%ADD10C,0.00000*%
%ADD11C,0.00600*%
%ADD12C,0.00200*%
%ADD13C,0.00500*%
%ADD14R,0.02000X0.08500*%
%ADD15C,0.00300*%
D10*
X0097595Y0028933D02*
X0107595Y0018933D01*
X0177595Y0018933D01*
X0187595Y0028933D01*
X0187595Y0038933D01*
X0197595Y0048933D01*
X0197595Y0058933D01*
X0187595Y0068933D01*
X0187595Y0128933D01*
X0197595Y0138933D01*
X0197595Y0148933D01*
X0187595Y0158933D01*
X0187595Y0168933D01*
X0177595Y0178933D01*
X0107556Y0178894D01*
X0097595Y0168894D01*
X0097595Y0113933D01*
X0087595Y0103933D01*
X0087595Y0093933D01*
X0097595Y0083933D01*
X0097595Y0028933D01*
X0101296Y0033933D02*
X0101298Y0034091D01*
X0101304Y0034249D01*
X0101314Y0034407D01*
X0101328Y0034565D01*
X0101346Y0034722D01*
X0101367Y0034879D01*
X0101393Y0035035D01*
X0101423Y0035191D01*
X0101456Y0035346D01*
X0101494Y0035499D01*
X0101535Y0035652D01*
X0101580Y0035804D01*
X0101629Y0035955D01*
X0101682Y0036104D01*
X0101738Y0036252D01*
X0101798Y0036398D01*
X0101862Y0036543D01*
X0101930Y0036686D01*
X0102001Y0036828D01*
X0102075Y0036968D01*
X0102153Y0037105D01*
X0102235Y0037241D01*
X0102319Y0037375D01*
X0102408Y0037506D01*
X0102499Y0037635D01*
X0102594Y0037762D01*
X0102691Y0037887D01*
X0102792Y0038009D01*
X0102896Y0038128D01*
X0103003Y0038245D01*
X0103113Y0038359D01*
X0103226Y0038470D01*
X0103341Y0038579D01*
X0103459Y0038684D01*
X0103580Y0038786D01*
X0103703Y0038886D01*
X0103829Y0038982D01*
X0103957Y0039075D01*
X0104087Y0039165D01*
X0104220Y0039251D01*
X0104355Y0039335D01*
X0104491Y0039414D01*
X0104630Y0039491D01*
X0104771Y0039563D01*
X0104913Y0039633D01*
X0105057Y0039698D01*
X0105203Y0039760D01*
X0105350Y0039818D01*
X0105499Y0039873D01*
X0105649Y0039924D01*
X0105800Y0039971D01*
X0105952Y0040014D01*
X0106105Y0040053D01*
X0106260Y0040089D01*
X0106415Y0040120D01*
X0106571Y0040148D01*
X0106727Y0040172D01*
X0106884Y0040192D01*
X0107042Y0040208D01*
X0107199Y0040220D01*
X0107358Y0040228D01*
X0107516Y0040232D01*
X0107674Y0040232D01*
X0107832Y0040228D01*
X0107991Y0040220D01*
X0108148Y0040208D01*
X0108306Y0040192D01*
X0108463Y0040172D01*
X0108619Y0040148D01*
X0108775Y0040120D01*
X0108930Y0040089D01*
X0109085Y0040053D01*
X0109238Y0040014D01*
X0109390Y0039971D01*
X0109541Y0039924D01*
X0109691Y0039873D01*
X0109840Y0039818D01*
X0109987Y0039760D01*
X0110133Y0039698D01*
X0110277Y0039633D01*
X0110419Y0039563D01*
X0110560Y0039491D01*
X0110699Y0039414D01*
X0110835Y0039335D01*
X0110970Y0039251D01*
X0111103Y0039165D01*
X0111233Y0039075D01*
X0111361Y0038982D01*
X0111487Y0038886D01*
X0111610Y0038786D01*
X0111731Y0038684D01*
X0111849Y0038579D01*
X0111964Y0038470D01*
X0112077Y0038359D01*
X0112187Y0038245D01*
X0112294Y0038128D01*
X0112398Y0038009D01*
X0112499Y0037887D01*
X0112596Y0037762D01*
X0112691Y0037635D01*
X0112782Y0037506D01*
X0112871Y0037375D01*
X0112955Y0037241D01*
X0113037Y0037105D01*
X0113115Y0036968D01*
X0113189Y0036828D01*
X0113260Y0036686D01*
X0113328Y0036543D01*
X0113392Y0036398D01*
X0113452Y0036252D01*
X0113508Y0036104D01*
X0113561Y0035955D01*
X0113610Y0035804D01*
X0113655Y0035652D01*
X0113696Y0035499D01*
X0113734Y0035346D01*
X0113767Y0035191D01*
X0113797Y0035035D01*
X0113823Y0034879D01*
X0113844Y0034722D01*
X0113862Y0034565D01*
X0113876Y0034407D01*
X0113886Y0034249D01*
X0113892Y0034091D01*
X0113894Y0033933D01*
X0113892Y0033775D01*
X0113886Y0033617D01*
X0113876Y0033459D01*
X0113862Y0033301D01*
X0113844Y0033144D01*
X0113823Y0032987D01*
X0113797Y0032831D01*
X0113767Y0032675D01*
X0113734Y0032520D01*
X0113696Y0032367D01*
X0113655Y0032214D01*
X0113610Y0032062D01*
X0113561Y0031911D01*
X0113508Y0031762D01*
X0113452Y0031614D01*
X0113392Y0031468D01*
X0113328Y0031323D01*
X0113260Y0031180D01*
X0113189Y0031038D01*
X0113115Y0030898D01*
X0113037Y0030761D01*
X0112955Y0030625D01*
X0112871Y0030491D01*
X0112782Y0030360D01*
X0112691Y0030231D01*
X0112596Y0030104D01*
X0112499Y0029979D01*
X0112398Y0029857D01*
X0112294Y0029738D01*
X0112187Y0029621D01*
X0112077Y0029507D01*
X0111964Y0029396D01*
X0111849Y0029287D01*
X0111731Y0029182D01*
X0111610Y0029080D01*
X0111487Y0028980D01*
X0111361Y0028884D01*
X0111233Y0028791D01*
X0111103Y0028701D01*
X0110970Y0028615D01*
X0110835Y0028531D01*
X0110699Y0028452D01*
X0110560Y0028375D01*
X0110419Y0028303D01*
X0110277Y0028233D01*
X0110133Y0028168D01*
X0109987Y0028106D01*
X0109840Y0028048D01*
X0109691Y0027993D01*
X0109541Y0027942D01*
X0109390Y0027895D01*
X0109238Y0027852D01*
X0109085Y0027813D01*
X0108930Y0027777D01*
X0108775Y0027746D01*
X0108619Y0027718D01*
X0108463Y0027694D01*
X0108306Y0027674D01*
X0108148Y0027658D01*
X0107991Y0027646D01*
X0107832Y0027638D01*
X0107674Y0027634D01*
X0107516Y0027634D01*
X0107358Y0027638D01*
X0107199Y0027646D01*
X0107042Y0027658D01*
X0106884Y0027674D01*
X0106727Y0027694D01*
X0106571Y0027718D01*
X0106415Y0027746D01*
X0106260Y0027777D01*
X0106105Y0027813D01*
X0105952Y0027852D01*
X0105800Y0027895D01*
X0105649Y0027942D01*
X0105499Y0027993D01*
X0105350Y0028048D01*
X0105203Y0028106D01*
X0105057Y0028168D01*
X0104913Y0028233D01*
X0104771Y0028303D01*
X0104630Y0028375D01*
X0104491Y0028452D01*
X0104355Y0028531D01*
X0104220Y0028615D01*
X0104087Y0028701D01*
X0103957Y0028791D01*
X0103829Y0028884D01*
X0103703Y0028980D01*
X0103580Y0029080D01*
X0103459Y0029182D01*
X0103341Y0029287D01*
X0103226Y0029396D01*
X0103113Y0029507D01*
X0103003Y0029621D01*
X0102896Y0029738D01*
X0102792Y0029857D01*
X0102691Y0029979D01*
X0102594Y0030104D01*
X0102499Y0030231D01*
X0102408Y0030360D01*
X0102319Y0030491D01*
X0102235Y0030625D01*
X0102153Y0030761D01*
X0102075Y0030898D01*
X0102001Y0031038D01*
X0101930Y0031180D01*
X0101862Y0031323D01*
X0101798Y0031468D01*
X0101738Y0031614D01*
X0101682Y0031762D01*
X0101629Y0031911D01*
X0101580Y0032062D01*
X0101535Y0032214D01*
X0101494Y0032367D01*
X0101456Y0032520D01*
X0101423Y0032675D01*
X0101393Y0032831D01*
X0101367Y0032987D01*
X0101346Y0033144D01*
X0101328Y0033301D01*
X0101314Y0033459D01*
X0101304Y0033617D01*
X0101298Y0033775D01*
X0101296Y0033933D01*
X0101296Y0053933D02*
X0101298Y0054091D01*
X0101304Y0054249D01*
X0101314Y0054407D01*
X0101328Y0054565D01*
X0101346Y0054722D01*
X0101367Y0054879D01*
X0101393Y0055035D01*
X0101423Y0055191D01*
X0101456Y0055346D01*
X0101494Y0055499D01*
X0101535Y0055652D01*
X0101580Y0055804D01*
X0101629Y0055955D01*
X0101682Y0056104D01*
X0101738Y0056252D01*
X0101798Y0056398D01*
X0101862Y0056543D01*
X0101930Y0056686D01*
X0102001Y0056828D01*
X0102075Y0056968D01*
X0102153Y0057105D01*
X0102235Y0057241D01*
X0102319Y0057375D01*
X0102408Y0057506D01*
X0102499Y0057635D01*
X0102594Y0057762D01*
X0102691Y0057887D01*
X0102792Y0058009D01*
X0102896Y0058128D01*
X0103003Y0058245D01*
X0103113Y0058359D01*
X0103226Y0058470D01*
X0103341Y0058579D01*
X0103459Y0058684D01*
X0103580Y0058786D01*
X0103703Y0058886D01*
X0103829Y0058982D01*
X0103957Y0059075D01*
X0104087Y0059165D01*
X0104220Y0059251D01*
X0104355Y0059335D01*
X0104491Y0059414D01*
X0104630Y0059491D01*
X0104771Y0059563D01*
X0104913Y0059633D01*
X0105057Y0059698D01*
X0105203Y0059760D01*
X0105350Y0059818D01*
X0105499Y0059873D01*
X0105649Y0059924D01*
X0105800Y0059971D01*
X0105952Y0060014D01*
X0106105Y0060053D01*
X0106260Y0060089D01*
X0106415Y0060120D01*
X0106571Y0060148D01*
X0106727Y0060172D01*
X0106884Y0060192D01*
X0107042Y0060208D01*
X0107199Y0060220D01*
X0107358Y0060228D01*
X0107516Y0060232D01*
X0107674Y0060232D01*
X0107832Y0060228D01*
X0107991Y0060220D01*
X0108148Y0060208D01*
X0108306Y0060192D01*
X0108463Y0060172D01*
X0108619Y0060148D01*
X0108775Y0060120D01*
X0108930Y0060089D01*
X0109085Y0060053D01*
X0109238Y0060014D01*
X0109390Y0059971D01*
X0109541Y0059924D01*
X0109691Y0059873D01*
X0109840Y0059818D01*
X0109987Y0059760D01*
X0110133Y0059698D01*
X0110277Y0059633D01*
X0110419Y0059563D01*
X0110560Y0059491D01*
X0110699Y0059414D01*
X0110835Y0059335D01*
X0110970Y0059251D01*
X0111103Y0059165D01*
X0111233Y0059075D01*
X0111361Y0058982D01*
X0111487Y0058886D01*
X0111610Y0058786D01*
X0111731Y0058684D01*
X0111849Y0058579D01*
X0111964Y0058470D01*
X0112077Y0058359D01*
X0112187Y0058245D01*
X0112294Y0058128D01*
X0112398Y0058009D01*
X0112499Y0057887D01*
X0112596Y0057762D01*
X0112691Y0057635D01*
X0112782Y0057506D01*
X0112871Y0057375D01*
X0112955Y0057241D01*
X0113037Y0057105D01*
X0113115Y0056968D01*
X0113189Y0056828D01*
X0113260Y0056686D01*
X0113328Y0056543D01*
X0113392Y0056398D01*
X0113452Y0056252D01*
X0113508Y0056104D01*
X0113561Y0055955D01*
X0113610Y0055804D01*
X0113655Y0055652D01*
X0113696Y0055499D01*
X0113734Y0055346D01*
X0113767Y0055191D01*
X0113797Y0055035D01*
X0113823Y0054879D01*
X0113844Y0054722D01*
X0113862Y0054565D01*
X0113876Y0054407D01*
X0113886Y0054249D01*
X0113892Y0054091D01*
X0113894Y0053933D01*
X0113892Y0053775D01*
X0113886Y0053617D01*
X0113876Y0053459D01*
X0113862Y0053301D01*
X0113844Y0053144D01*
X0113823Y0052987D01*
X0113797Y0052831D01*
X0113767Y0052675D01*
X0113734Y0052520D01*
X0113696Y0052367D01*
X0113655Y0052214D01*
X0113610Y0052062D01*
X0113561Y0051911D01*
X0113508Y0051762D01*
X0113452Y0051614D01*
X0113392Y0051468D01*
X0113328Y0051323D01*
X0113260Y0051180D01*
X0113189Y0051038D01*
X0113115Y0050898D01*
X0113037Y0050761D01*
X0112955Y0050625D01*
X0112871Y0050491D01*
X0112782Y0050360D01*
X0112691Y0050231D01*
X0112596Y0050104D01*
X0112499Y0049979D01*
X0112398Y0049857D01*
X0112294Y0049738D01*
X0112187Y0049621D01*
X0112077Y0049507D01*
X0111964Y0049396D01*
X0111849Y0049287D01*
X0111731Y0049182D01*
X0111610Y0049080D01*
X0111487Y0048980D01*
X0111361Y0048884D01*
X0111233Y0048791D01*
X0111103Y0048701D01*
X0110970Y0048615D01*
X0110835Y0048531D01*
X0110699Y0048452D01*
X0110560Y0048375D01*
X0110419Y0048303D01*
X0110277Y0048233D01*
X0110133Y0048168D01*
X0109987Y0048106D01*
X0109840Y0048048D01*
X0109691Y0047993D01*
X0109541Y0047942D01*
X0109390Y0047895D01*
X0109238Y0047852D01*
X0109085Y0047813D01*
X0108930Y0047777D01*
X0108775Y0047746D01*
X0108619Y0047718D01*
X0108463Y0047694D01*
X0108306Y0047674D01*
X0108148Y0047658D01*
X0107991Y0047646D01*
X0107832Y0047638D01*
X0107674Y0047634D01*
X0107516Y0047634D01*
X0107358Y0047638D01*
X0107199Y0047646D01*
X0107042Y0047658D01*
X0106884Y0047674D01*
X0106727Y0047694D01*
X0106571Y0047718D01*
X0106415Y0047746D01*
X0106260Y0047777D01*
X0106105Y0047813D01*
X0105952Y0047852D01*
X0105800Y0047895D01*
X0105649Y0047942D01*
X0105499Y0047993D01*
X0105350Y0048048D01*
X0105203Y0048106D01*
X0105057Y0048168D01*
X0104913Y0048233D01*
X0104771Y0048303D01*
X0104630Y0048375D01*
X0104491Y0048452D01*
X0104355Y0048531D01*
X0104220Y0048615D01*
X0104087Y0048701D01*
X0103957Y0048791D01*
X0103829Y0048884D01*
X0103703Y0048980D01*
X0103580Y0049080D01*
X0103459Y0049182D01*
X0103341Y0049287D01*
X0103226Y0049396D01*
X0103113Y0049507D01*
X0103003Y0049621D01*
X0102896Y0049738D01*
X0102792Y0049857D01*
X0102691Y0049979D01*
X0102594Y0050104D01*
X0102499Y0050231D01*
X0102408Y0050360D01*
X0102319Y0050491D01*
X0102235Y0050625D01*
X0102153Y0050761D01*
X0102075Y0050898D01*
X0102001Y0051038D01*
X0101930Y0051180D01*
X0101862Y0051323D01*
X0101798Y0051468D01*
X0101738Y0051614D01*
X0101682Y0051762D01*
X0101629Y0051911D01*
X0101580Y0052062D01*
X0101535Y0052214D01*
X0101494Y0052367D01*
X0101456Y0052520D01*
X0101423Y0052675D01*
X0101393Y0052831D01*
X0101367Y0052987D01*
X0101346Y0053144D01*
X0101328Y0053301D01*
X0101314Y0053459D01*
X0101304Y0053617D01*
X0101298Y0053775D01*
X0101296Y0053933D01*
X0121345Y0053933D02*
X0121347Y0054052D01*
X0121353Y0054170D01*
X0121363Y0054288D01*
X0121377Y0054406D01*
X0121394Y0054523D01*
X0121416Y0054640D01*
X0121442Y0054756D01*
X0121471Y0054871D01*
X0121504Y0054985D01*
X0121541Y0055097D01*
X0121582Y0055209D01*
X0121627Y0055319D01*
X0121675Y0055427D01*
X0121727Y0055534D01*
X0121782Y0055639D01*
X0121841Y0055742D01*
X0121903Y0055843D01*
X0121968Y0055942D01*
X0122037Y0056039D01*
X0122109Y0056133D01*
X0122184Y0056225D01*
X0122262Y0056314D01*
X0122343Y0056401D01*
X0122427Y0056485D01*
X0122514Y0056566D01*
X0122603Y0056644D01*
X0122695Y0056719D01*
X0122789Y0056791D01*
X0122886Y0056860D01*
X0122985Y0056925D01*
X0123086Y0056987D01*
X0123189Y0057046D01*
X0123294Y0057101D01*
X0123401Y0057153D01*
X0123509Y0057201D01*
X0123619Y0057246D01*
X0123731Y0057287D01*
X0123843Y0057324D01*
X0123957Y0057357D01*
X0124072Y0057386D01*
X0124188Y0057412D01*
X0124305Y0057434D01*
X0124422Y0057451D01*
X0124540Y0057465D01*
X0124658Y0057475D01*
X0124776Y0057481D01*
X0124895Y0057483D01*
X0125014Y0057481D01*
X0125132Y0057475D01*
X0125250Y0057465D01*
X0125368Y0057451D01*
X0125485Y0057434D01*
X0125602Y0057412D01*
X0125718Y0057386D01*
X0125833Y0057357D01*
X0125947Y0057324D01*
X0126059Y0057287D01*
X0126171Y0057246D01*
X0126281Y0057201D01*
X0126389Y0057153D01*
X0126496Y0057101D01*
X0126601Y0057046D01*
X0126704Y0056987D01*
X0126805Y0056925D01*
X0126904Y0056860D01*
X0127001Y0056791D01*
X0127095Y0056719D01*
X0127187Y0056644D01*
X0127276Y0056566D01*
X0127363Y0056485D01*
X0127447Y0056401D01*
X0127528Y0056314D01*
X0127606Y0056225D01*
X0127681Y0056133D01*
X0127753Y0056039D01*
X0127822Y0055942D01*
X0127887Y0055843D01*
X0127949Y0055742D01*
X0128008Y0055639D01*
X0128063Y0055534D01*
X0128115Y0055427D01*
X0128163Y0055319D01*
X0128208Y0055209D01*
X0128249Y0055097D01*
X0128286Y0054985D01*
X0128319Y0054871D01*
X0128348Y0054756D01*
X0128374Y0054640D01*
X0128396Y0054523D01*
X0128413Y0054406D01*
X0128427Y0054288D01*
X0128437Y0054170D01*
X0128443Y0054052D01*
X0128445Y0053933D01*
X0128443Y0053814D01*
X0128437Y0053696D01*
X0128427Y0053578D01*
X0128413Y0053460D01*
X0128396Y0053343D01*
X0128374Y0053226D01*
X0128348Y0053110D01*
X0128319Y0052995D01*
X0128286Y0052881D01*
X0128249Y0052769D01*
X0128208Y0052657D01*
X0128163Y0052547D01*
X0128115Y0052439D01*
X0128063Y0052332D01*
X0128008Y0052227D01*
X0127949Y0052124D01*
X0127887Y0052023D01*
X0127822Y0051924D01*
X0127753Y0051827D01*
X0127681Y0051733D01*
X0127606Y0051641D01*
X0127528Y0051552D01*
X0127447Y0051465D01*
X0127363Y0051381D01*
X0127276Y0051300D01*
X0127187Y0051222D01*
X0127095Y0051147D01*
X0127001Y0051075D01*
X0126904Y0051006D01*
X0126805Y0050941D01*
X0126704Y0050879D01*
X0126601Y0050820D01*
X0126496Y0050765D01*
X0126389Y0050713D01*
X0126281Y0050665D01*
X0126171Y0050620D01*
X0126059Y0050579D01*
X0125947Y0050542D01*
X0125833Y0050509D01*
X0125718Y0050480D01*
X0125602Y0050454D01*
X0125485Y0050432D01*
X0125368Y0050415D01*
X0125250Y0050401D01*
X0125132Y0050391D01*
X0125014Y0050385D01*
X0124895Y0050383D01*
X0124776Y0050385D01*
X0124658Y0050391D01*
X0124540Y0050401D01*
X0124422Y0050415D01*
X0124305Y0050432D01*
X0124188Y0050454D01*
X0124072Y0050480D01*
X0123957Y0050509D01*
X0123843Y0050542D01*
X0123731Y0050579D01*
X0123619Y0050620D01*
X0123509Y0050665D01*
X0123401Y0050713D01*
X0123294Y0050765D01*
X0123189Y0050820D01*
X0123086Y0050879D01*
X0122985Y0050941D01*
X0122886Y0051006D01*
X0122789Y0051075D01*
X0122695Y0051147D01*
X0122603Y0051222D01*
X0122514Y0051300D01*
X0122427Y0051381D01*
X0122343Y0051465D01*
X0122262Y0051552D01*
X0122184Y0051641D01*
X0122109Y0051733D01*
X0122037Y0051827D01*
X0121968Y0051924D01*
X0121903Y0052023D01*
X0121841Y0052124D01*
X0121782Y0052227D01*
X0121727Y0052332D01*
X0121675Y0052439D01*
X0121627Y0052547D01*
X0121582Y0052657D01*
X0121541Y0052769D01*
X0121504Y0052881D01*
X0121471Y0052995D01*
X0121442Y0053110D01*
X0121416Y0053226D01*
X0121394Y0053343D01*
X0121377Y0053460D01*
X0121363Y0053578D01*
X0121353Y0053696D01*
X0121347Y0053814D01*
X0121345Y0053933D01*
X0101296Y0078933D02*
X0101298Y0079091D01*
X0101304Y0079249D01*
X0101314Y0079407D01*
X0101328Y0079565D01*
X0101346Y0079722D01*
X0101367Y0079879D01*
X0101393Y0080035D01*
X0101423Y0080191D01*
X0101456Y0080346D01*
X0101494Y0080499D01*
X0101535Y0080652D01*
X0101580Y0080804D01*
X0101629Y0080955D01*
X0101682Y0081104D01*
X0101738Y0081252D01*
X0101798Y0081398D01*
X0101862Y0081543D01*
X0101930Y0081686D01*
X0102001Y0081828D01*
X0102075Y0081968D01*
X0102153Y0082105D01*
X0102235Y0082241D01*
X0102319Y0082375D01*
X0102408Y0082506D01*
X0102499Y0082635D01*
X0102594Y0082762D01*
X0102691Y0082887D01*
X0102792Y0083009D01*
X0102896Y0083128D01*
X0103003Y0083245D01*
X0103113Y0083359D01*
X0103226Y0083470D01*
X0103341Y0083579D01*
X0103459Y0083684D01*
X0103580Y0083786D01*
X0103703Y0083886D01*
X0103829Y0083982D01*
X0103957Y0084075D01*
X0104087Y0084165D01*
X0104220Y0084251D01*
X0104355Y0084335D01*
X0104491Y0084414D01*
X0104630Y0084491D01*
X0104771Y0084563D01*
X0104913Y0084633D01*
X0105057Y0084698D01*
X0105203Y0084760D01*
X0105350Y0084818D01*
X0105499Y0084873D01*
X0105649Y0084924D01*
X0105800Y0084971D01*
X0105952Y0085014D01*
X0106105Y0085053D01*
X0106260Y0085089D01*
X0106415Y0085120D01*
X0106571Y0085148D01*
X0106727Y0085172D01*
X0106884Y0085192D01*
X0107042Y0085208D01*
X0107199Y0085220D01*
X0107358Y0085228D01*
X0107516Y0085232D01*
X0107674Y0085232D01*
X0107832Y0085228D01*
X0107991Y0085220D01*
X0108148Y0085208D01*
X0108306Y0085192D01*
X0108463Y0085172D01*
X0108619Y0085148D01*
X0108775Y0085120D01*
X0108930Y0085089D01*
X0109085Y0085053D01*
X0109238Y0085014D01*
X0109390Y0084971D01*
X0109541Y0084924D01*
X0109691Y0084873D01*
X0109840Y0084818D01*
X0109987Y0084760D01*
X0110133Y0084698D01*
X0110277Y0084633D01*
X0110419Y0084563D01*
X0110560Y0084491D01*
X0110699Y0084414D01*
X0110835Y0084335D01*
X0110970Y0084251D01*
X0111103Y0084165D01*
X0111233Y0084075D01*
X0111361Y0083982D01*
X0111487Y0083886D01*
X0111610Y0083786D01*
X0111731Y0083684D01*
X0111849Y0083579D01*
X0111964Y0083470D01*
X0112077Y0083359D01*
X0112187Y0083245D01*
X0112294Y0083128D01*
X0112398Y0083009D01*
X0112499Y0082887D01*
X0112596Y0082762D01*
X0112691Y0082635D01*
X0112782Y0082506D01*
X0112871Y0082375D01*
X0112955Y0082241D01*
X0113037Y0082105D01*
X0113115Y0081968D01*
X0113189Y0081828D01*
X0113260Y0081686D01*
X0113328Y0081543D01*
X0113392Y0081398D01*
X0113452Y0081252D01*
X0113508Y0081104D01*
X0113561Y0080955D01*
X0113610Y0080804D01*
X0113655Y0080652D01*
X0113696Y0080499D01*
X0113734Y0080346D01*
X0113767Y0080191D01*
X0113797Y0080035D01*
X0113823Y0079879D01*
X0113844Y0079722D01*
X0113862Y0079565D01*
X0113876Y0079407D01*
X0113886Y0079249D01*
X0113892Y0079091D01*
X0113894Y0078933D01*
X0113892Y0078775D01*
X0113886Y0078617D01*
X0113876Y0078459D01*
X0113862Y0078301D01*
X0113844Y0078144D01*
X0113823Y0077987D01*
X0113797Y0077831D01*
X0113767Y0077675D01*
X0113734Y0077520D01*
X0113696Y0077367D01*
X0113655Y0077214D01*
X0113610Y0077062D01*
X0113561Y0076911D01*
X0113508Y0076762D01*
X0113452Y0076614D01*
X0113392Y0076468D01*
X0113328Y0076323D01*
X0113260Y0076180D01*
X0113189Y0076038D01*
X0113115Y0075898D01*
X0113037Y0075761D01*
X0112955Y0075625D01*
X0112871Y0075491D01*
X0112782Y0075360D01*
X0112691Y0075231D01*
X0112596Y0075104D01*
X0112499Y0074979D01*
X0112398Y0074857D01*
X0112294Y0074738D01*
X0112187Y0074621D01*
X0112077Y0074507D01*
X0111964Y0074396D01*
X0111849Y0074287D01*
X0111731Y0074182D01*
X0111610Y0074080D01*
X0111487Y0073980D01*
X0111361Y0073884D01*
X0111233Y0073791D01*
X0111103Y0073701D01*
X0110970Y0073615D01*
X0110835Y0073531D01*
X0110699Y0073452D01*
X0110560Y0073375D01*
X0110419Y0073303D01*
X0110277Y0073233D01*
X0110133Y0073168D01*
X0109987Y0073106D01*
X0109840Y0073048D01*
X0109691Y0072993D01*
X0109541Y0072942D01*
X0109390Y0072895D01*
X0109238Y0072852D01*
X0109085Y0072813D01*
X0108930Y0072777D01*
X0108775Y0072746D01*
X0108619Y0072718D01*
X0108463Y0072694D01*
X0108306Y0072674D01*
X0108148Y0072658D01*
X0107991Y0072646D01*
X0107832Y0072638D01*
X0107674Y0072634D01*
X0107516Y0072634D01*
X0107358Y0072638D01*
X0107199Y0072646D01*
X0107042Y0072658D01*
X0106884Y0072674D01*
X0106727Y0072694D01*
X0106571Y0072718D01*
X0106415Y0072746D01*
X0106260Y0072777D01*
X0106105Y0072813D01*
X0105952Y0072852D01*
X0105800Y0072895D01*
X0105649Y0072942D01*
X0105499Y0072993D01*
X0105350Y0073048D01*
X0105203Y0073106D01*
X0105057Y0073168D01*
X0104913Y0073233D01*
X0104771Y0073303D01*
X0104630Y0073375D01*
X0104491Y0073452D01*
X0104355Y0073531D01*
X0104220Y0073615D01*
X0104087Y0073701D01*
X0103957Y0073791D01*
X0103829Y0073884D01*
X0103703Y0073980D01*
X0103580Y0074080D01*
X0103459Y0074182D01*
X0103341Y0074287D01*
X0103226Y0074396D01*
X0103113Y0074507D01*
X0103003Y0074621D01*
X0102896Y0074738D01*
X0102792Y0074857D01*
X0102691Y0074979D01*
X0102594Y0075104D01*
X0102499Y0075231D01*
X0102408Y0075360D01*
X0102319Y0075491D01*
X0102235Y0075625D01*
X0102153Y0075761D01*
X0102075Y0075898D01*
X0102001Y0076038D01*
X0101930Y0076180D01*
X0101862Y0076323D01*
X0101798Y0076468D01*
X0101738Y0076614D01*
X0101682Y0076762D01*
X0101629Y0076911D01*
X0101580Y0077062D01*
X0101535Y0077214D01*
X0101494Y0077367D01*
X0101456Y0077520D01*
X0101423Y0077675D01*
X0101393Y0077831D01*
X0101367Y0077987D01*
X0101346Y0078144D01*
X0101328Y0078301D01*
X0101314Y0078459D01*
X0101304Y0078617D01*
X0101298Y0078775D01*
X0101296Y0078933D01*
X0089296Y0098933D02*
X0089298Y0099091D01*
X0089304Y0099249D01*
X0089314Y0099407D01*
X0089328Y0099565D01*
X0089346Y0099722D01*
X0089367Y0099879D01*
X0089393Y0100035D01*
X0089423Y0100191D01*
X0089456Y0100346D01*
X0089494Y0100499D01*
X0089535Y0100652D01*
X0089580Y0100804D01*
X0089629Y0100955D01*
X0089682Y0101104D01*
X0089738Y0101252D01*
X0089798Y0101398D01*
X0089862Y0101543D01*
X0089930Y0101686D01*
X0090001Y0101828D01*
X0090075Y0101968D01*
X0090153Y0102105D01*
X0090235Y0102241D01*
X0090319Y0102375D01*
X0090408Y0102506D01*
X0090499Y0102635D01*
X0090594Y0102762D01*
X0090691Y0102887D01*
X0090792Y0103009D01*
X0090896Y0103128D01*
X0091003Y0103245D01*
X0091113Y0103359D01*
X0091226Y0103470D01*
X0091341Y0103579D01*
X0091459Y0103684D01*
X0091580Y0103786D01*
X0091703Y0103886D01*
X0091829Y0103982D01*
X0091957Y0104075D01*
X0092087Y0104165D01*
X0092220Y0104251D01*
X0092355Y0104335D01*
X0092491Y0104414D01*
X0092630Y0104491D01*
X0092771Y0104563D01*
X0092913Y0104633D01*
X0093057Y0104698D01*
X0093203Y0104760D01*
X0093350Y0104818D01*
X0093499Y0104873D01*
X0093649Y0104924D01*
X0093800Y0104971D01*
X0093952Y0105014D01*
X0094105Y0105053D01*
X0094260Y0105089D01*
X0094415Y0105120D01*
X0094571Y0105148D01*
X0094727Y0105172D01*
X0094884Y0105192D01*
X0095042Y0105208D01*
X0095199Y0105220D01*
X0095358Y0105228D01*
X0095516Y0105232D01*
X0095674Y0105232D01*
X0095832Y0105228D01*
X0095991Y0105220D01*
X0096148Y0105208D01*
X0096306Y0105192D01*
X0096463Y0105172D01*
X0096619Y0105148D01*
X0096775Y0105120D01*
X0096930Y0105089D01*
X0097085Y0105053D01*
X0097238Y0105014D01*
X0097390Y0104971D01*
X0097541Y0104924D01*
X0097691Y0104873D01*
X0097840Y0104818D01*
X0097987Y0104760D01*
X0098133Y0104698D01*
X0098277Y0104633D01*
X0098419Y0104563D01*
X0098560Y0104491D01*
X0098699Y0104414D01*
X0098835Y0104335D01*
X0098970Y0104251D01*
X0099103Y0104165D01*
X0099233Y0104075D01*
X0099361Y0103982D01*
X0099487Y0103886D01*
X0099610Y0103786D01*
X0099731Y0103684D01*
X0099849Y0103579D01*
X0099964Y0103470D01*
X0100077Y0103359D01*
X0100187Y0103245D01*
X0100294Y0103128D01*
X0100398Y0103009D01*
X0100499Y0102887D01*
X0100596Y0102762D01*
X0100691Y0102635D01*
X0100782Y0102506D01*
X0100871Y0102375D01*
X0100955Y0102241D01*
X0101037Y0102105D01*
X0101115Y0101968D01*
X0101189Y0101828D01*
X0101260Y0101686D01*
X0101328Y0101543D01*
X0101392Y0101398D01*
X0101452Y0101252D01*
X0101508Y0101104D01*
X0101561Y0100955D01*
X0101610Y0100804D01*
X0101655Y0100652D01*
X0101696Y0100499D01*
X0101734Y0100346D01*
X0101767Y0100191D01*
X0101797Y0100035D01*
X0101823Y0099879D01*
X0101844Y0099722D01*
X0101862Y0099565D01*
X0101876Y0099407D01*
X0101886Y0099249D01*
X0101892Y0099091D01*
X0101894Y0098933D01*
X0101892Y0098775D01*
X0101886Y0098617D01*
X0101876Y0098459D01*
X0101862Y0098301D01*
X0101844Y0098144D01*
X0101823Y0097987D01*
X0101797Y0097831D01*
X0101767Y0097675D01*
X0101734Y0097520D01*
X0101696Y0097367D01*
X0101655Y0097214D01*
X0101610Y0097062D01*
X0101561Y0096911D01*
X0101508Y0096762D01*
X0101452Y0096614D01*
X0101392Y0096468D01*
X0101328Y0096323D01*
X0101260Y0096180D01*
X0101189Y0096038D01*
X0101115Y0095898D01*
X0101037Y0095761D01*
X0100955Y0095625D01*
X0100871Y0095491D01*
X0100782Y0095360D01*
X0100691Y0095231D01*
X0100596Y0095104D01*
X0100499Y0094979D01*
X0100398Y0094857D01*
X0100294Y0094738D01*
X0100187Y0094621D01*
X0100077Y0094507D01*
X0099964Y0094396D01*
X0099849Y0094287D01*
X0099731Y0094182D01*
X0099610Y0094080D01*
X0099487Y0093980D01*
X0099361Y0093884D01*
X0099233Y0093791D01*
X0099103Y0093701D01*
X0098970Y0093615D01*
X0098835Y0093531D01*
X0098699Y0093452D01*
X0098560Y0093375D01*
X0098419Y0093303D01*
X0098277Y0093233D01*
X0098133Y0093168D01*
X0097987Y0093106D01*
X0097840Y0093048D01*
X0097691Y0092993D01*
X0097541Y0092942D01*
X0097390Y0092895D01*
X0097238Y0092852D01*
X0097085Y0092813D01*
X0096930Y0092777D01*
X0096775Y0092746D01*
X0096619Y0092718D01*
X0096463Y0092694D01*
X0096306Y0092674D01*
X0096148Y0092658D01*
X0095991Y0092646D01*
X0095832Y0092638D01*
X0095674Y0092634D01*
X0095516Y0092634D01*
X0095358Y0092638D01*
X0095199Y0092646D01*
X0095042Y0092658D01*
X0094884Y0092674D01*
X0094727Y0092694D01*
X0094571Y0092718D01*
X0094415Y0092746D01*
X0094260Y0092777D01*
X0094105Y0092813D01*
X0093952Y0092852D01*
X0093800Y0092895D01*
X0093649Y0092942D01*
X0093499Y0092993D01*
X0093350Y0093048D01*
X0093203Y0093106D01*
X0093057Y0093168D01*
X0092913Y0093233D01*
X0092771Y0093303D01*
X0092630Y0093375D01*
X0092491Y0093452D01*
X0092355Y0093531D01*
X0092220Y0093615D01*
X0092087Y0093701D01*
X0091957Y0093791D01*
X0091829Y0093884D01*
X0091703Y0093980D01*
X0091580Y0094080D01*
X0091459Y0094182D01*
X0091341Y0094287D01*
X0091226Y0094396D01*
X0091113Y0094507D01*
X0091003Y0094621D01*
X0090896Y0094738D01*
X0090792Y0094857D01*
X0090691Y0094979D01*
X0090594Y0095104D01*
X0090499Y0095231D01*
X0090408Y0095360D01*
X0090319Y0095491D01*
X0090235Y0095625D01*
X0090153Y0095761D01*
X0090075Y0095898D01*
X0090001Y0096038D01*
X0089930Y0096180D01*
X0089862Y0096323D01*
X0089798Y0096468D01*
X0089738Y0096614D01*
X0089682Y0096762D01*
X0089629Y0096911D01*
X0089580Y0097062D01*
X0089535Y0097214D01*
X0089494Y0097367D01*
X0089456Y0097520D01*
X0089423Y0097675D01*
X0089393Y0097831D01*
X0089367Y0097987D01*
X0089346Y0098144D01*
X0089328Y0098301D01*
X0089314Y0098459D01*
X0089304Y0098617D01*
X0089298Y0098775D01*
X0089296Y0098933D01*
X0101296Y0118933D02*
X0101298Y0119091D01*
X0101304Y0119249D01*
X0101314Y0119407D01*
X0101328Y0119565D01*
X0101346Y0119722D01*
X0101367Y0119879D01*
X0101393Y0120035D01*
X0101423Y0120191D01*
X0101456Y0120346D01*
X0101494Y0120499D01*
X0101535Y0120652D01*
X0101580Y0120804D01*
X0101629Y0120955D01*
X0101682Y0121104D01*
X0101738Y0121252D01*
X0101798Y0121398D01*
X0101862Y0121543D01*
X0101930Y0121686D01*
X0102001Y0121828D01*
X0102075Y0121968D01*
X0102153Y0122105D01*
X0102235Y0122241D01*
X0102319Y0122375D01*
X0102408Y0122506D01*
X0102499Y0122635D01*
X0102594Y0122762D01*
X0102691Y0122887D01*
X0102792Y0123009D01*
X0102896Y0123128D01*
X0103003Y0123245D01*
X0103113Y0123359D01*
X0103226Y0123470D01*
X0103341Y0123579D01*
X0103459Y0123684D01*
X0103580Y0123786D01*
X0103703Y0123886D01*
X0103829Y0123982D01*
X0103957Y0124075D01*
X0104087Y0124165D01*
X0104220Y0124251D01*
X0104355Y0124335D01*
X0104491Y0124414D01*
X0104630Y0124491D01*
X0104771Y0124563D01*
X0104913Y0124633D01*
X0105057Y0124698D01*
X0105203Y0124760D01*
X0105350Y0124818D01*
X0105499Y0124873D01*
X0105649Y0124924D01*
X0105800Y0124971D01*
X0105952Y0125014D01*
X0106105Y0125053D01*
X0106260Y0125089D01*
X0106415Y0125120D01*
X0106571Y0125148D01*
X0106727Y0125172D01*
X0106884Y0125192D01*
X0107042Y0125208D01*
X0107199Y0125220D01*
X0107358Y0125228D01*
X0107516Y0125232D01*
X0107674Y0125232D01*
X0107832Y0125228D01*
X0107991Y0125220D01*
X0108148Y0125208D01*
X0108306Y0125192D01*
X0108463Y0125172D01*
X0108619Y0125148D01*
X0108775Y0125120D01*
X0108930Y0125089D01*
X0109085Y0125053D01*
X0109238Y0125014D01*
X0109390Y0124971D01*
X0109541Y0124924D01*
X0109691Y0124873D01*
X0109840Y0124818D01*
X0109987Y0124760D01*
X0110133Y0124698D01*
X0110277Y0124633D01*
X0110419Y0124563D01*
X0110560Y0124491D01*
X0110699Y0124414D01*
X0110835Y0124335D01*
X0110970Y0124251D01*
X0111103Y0124165D01*
X0111233Y0124075D01*
X0111361Y0123982D01*
X0111487Y0123886D01*
X0111610Y0123786D01*
X0111731Y0123684D01*
X0111849Y0123579D01*
X0111964Y0123470D01*
X0112077Y0123359D01*
X0112187Y0123245D01*
X0112294Y0123128D01*
X0112398Y0123009D01*
X0112499Y0122887D01*
X0112596Y0122762D01*
X0112691Y0122635D01*
X0112782Y0122506D01*
X0112871Y0122375D01*
X0112955Y0122241D01*
X0113037Y0122105D01*
X0113115Y0121968D01*
X0113189Y0121828D01*
X0113260Y0121686D01*
X0113328Y0121543D01*
X0113392Y0121398D01*
X0113452Y0121252D01*
X0113508Y0121104D01*
X0113561Y0120955D01*
X0113610Y0120804D01*
X0113655Y0120652D01*
X0113696Y0120499D01*
X0113734Y0120346D01*
X0113767Y0120191D01*
X0113797Y0120035D01*
X0113823Y0119879D01*
X0113844Y0119722D01*
X0113862Y0119565D01*
X0113876Y0119407D01*
X0113886Y0119249D01*
X0113892Y0119091D01*
X0113894Y0118933D01*
X0113892Y0118775D01*
X0113886Y0118617D01*
X0113876Y0118459D01*
X0113862Y0118301D01*
X0113844Y0118144D01*
X0113823Y0117987D01*
X0113797Y0117831D01*
X0113767Y0117675D01*
X0113734Y0117520D01*
X0113696Y0117367D01*
X0113655Y0117214D01*
X0113610Y0117062D01*
X0113561Y0116911D01*
X0113508Y0116762D01*
X0113452Y0116614D01*
X0113392Y0116468D01*
X0113328Y0116323D01*
X0113260Y0116180D01*
X0113189Y0116038D01*
X0113115Y0115898D01*
X0113037Y0115761D01*
X0112955Y0115625D01*
X0112871Y0115491D01*
X0112782Y0115360D01*
X0112691Y0115231D01*
X0112596Y0115104D01*
X0112499Y0114979D01*
X0112398Y0114857D01*
X0112294Y0114738D01*
X0112187Y0114621D01*
X0112077Y0114507D01*
X0111964Y0114396D01*
X0111849Y0114287D01*
X0111731Y0114182D01*
X0111610Y0114080D01*
X0111487Y0113980D01*
X0111361Y0113884D01*
X0111233Y0113791D01*
X0111103Y0113701D01*
X0110970Y0113615D01*
X0110835Y0113531D01*
X0110699Y0113452D01*
X0110560Y0113375D01*
X0110419Y0113303D01*
X0110277Y0113233D01*
X0110133Y0113168D01*
X0109987Y0113106D01*
X0109840Y0113048D01*
X0109691Y0112993D01*
X0109541Y0112942D01*
X0109390Y0112895D01*
X0109238Y0112852D01*
X0109085Y0112813D01*
X0108930Y0112777D01*
X0108775Y0112746D01*
X0108619Y0112718D01*
X0108463Y0112694D01*
X0108306Y0112674D01*
X0108148Y0112658D01*
X0107991Y0112646D01*
X0107832Y0112638D01*
X0107674Y0112634D01*
X0107516Y0112634D01*
X0107358Y0112638D01*
X0107199Y0112646D01*
X0107042Y0112658D01*
X0106884Y0112674D01*
X0106727Y0112694D01*
X0106571Y0112718D01*
X0106415Y0112746D01*
X0106260Y0112777D01*
X0106105Y0112813D01*
X0105952Y0112852D01*
X0105800Y0112895D01*
X0105649Y0112942D01*
X0105499Y0112993D01*
X0105350Y0113048D01*
X0105203Y0113106D01*
X0105057Y0113168D01*
X0104913Y0113233D01*
X0104771Y0113303D01*
X0104630Y0113375D01*
X0104491Y0113452D01*
X0104355Y0113531D01*
X0104220Y0113615D01*
X0104087Y0113701D01*
X0103957Y0113791D01*
X0103829Y0113884D01*
X0103703Y0113980D01*
X0103580Y0114080D01*
X0103459Y0114182D01*
X0103341Y0114287D01*
X0103226Y0114396D01*
X0103113Y0114507D01*
X0103003Y0114621D01*
X0102896Y0114738D01*
X0102792Y0114857D01*
X0102691Y0114979D01*
X0102594Y0115104D01*
X0102499Y0115231D01*
X0102408Y0115360D01*
X0102319Y0115491D01*
X0102235Y0115625D01*
X0102153Y0115761D01*
X0102075Y0115898D01*
X0102001Y0116038D01*
X0101930Y0116180D01*
X0101862Y0116323D01*
X0101798Y0116468D01*
X0101738Y0116614D01*
X0101682Y0116762D01*
X0101629Y0116911D01*
X0101580Y0117062D01*
X0101535Y0117214D01*
X0101494Y0117367D01*
X0101456Y0117520D01*
X0101423Y0117675D01*
X0101393Y0117831D01*
X0101367Y0117987D01*
X0101346Y0118144D01*
X0101328Y0118301D01*
X0101314Y0118459D01*
X0101304Y0118617D01*
X0101298Y0118775D01*
X0101296Y0118933D01*
X0111296Y0098933D02*
X0111298Y0099091D01*
X0111304Y0099249D01*
X0111314Y0099407D01*
X0111328Y0099565D01*
X0111346Y0099722D01*
X0111367Y0099879D01*
X0111393Y0100035D01*
X0111423Y0100191D01*
X0111456Y0100346D01*
X0111494Y0100499D01*
X0111535Y0100652D01*
X0111580Y0100804D01*
X0111629Y0100955D01*
X0111682Y0101104D01*
X0111738Y0101252D01*
X0111798Y0101398D01*
X0111862Y0101543D01*
X0111930Y0101686D01*
X0112001Y0101828D01*
X0112075Y0101968D01*
X0112153Y0102105D01*
X0112235Y0102241D01*
X0112319Y0102375D01*
X0112408Y0102506D01*
X0112499Y0102635D01*
X0112594Y0102762D01*
X0112691Y0102887D01*
X0112792Y0103009D01*
X0112896Y0103128D01*
X0113003Y0103245D01*
X0113113Y0103359D01*
X0113226Y0103470D01*
X0113341Y0103579D01*
X0113459Y0103684D01*
X0113580Y0103786D01*
X0113703Y0103886D01*
X0113829Y0103982D01*
X0113957Y0104075D01*
X0114087Y0104165D01*
X0114220Y0104251D01*
X0114355Y0104335D01*
X0114491Y0104414D01*
X0114630Y0104491D01*
X0114771Y0104563D01*
X0114913Y0104633D01*
X0115057Y0104698D01*
X0115203Y0104760D01*
X0115350Y0104818D01*
X0115499Y0104873D01*
X0115649Y0104924D01*
X0115800Y0104971D01*
X0115952Y0105014D01*
X0116105Y0105053D01*
X0116260Y0105089D01*
X0116415Y0105120D01*
X0116571Y0105148D01*
X0116727Y0105172D01*
X0116884Y0105192D01*
X0117042Y0105208D01*
X0117199Y0105220D01*
X0117358Y0105228D01*
X0117516Y0105232D01*
X0117674Y0105232D01*
X0117832Y0105228D01*
X0117991Y0105220D01*
X0118148Y0105208D01*
X0118306Y0105192D01*
X0118463Y0105172D01*
X0118619Y0105148D01*
X0118775Y0105120D01*
X0118930Y0105089D01*
X0119085Y0105053D01*
X0119238Y0105014D01*
X0119390Y0104971D01*
X0119541Y0104924D01*
X0119691Y0104873D01*
X0119840Y0104818D01*
X0119987Y0104760D01*
X0120133Y0104698D01*
X0120277Y0104633D01*
X0120419Y0104563D01*
X0120560Y0104491D01*
X0120699Y0104414D01*
X0120835Y0104335D01*
X0120970Y0104251D01*
X0121103Y0104165D01*
X0121233Y0104075D01*
X0121361Y0103982D01*
X0121487Y0103886D01*
X0121610Y0103786D01*
X0121731Y0103684D01*
X0121849Y0103579D01*
X0121964Y0103470D01*
X0122077Y0103359D01*
X0122187Y0103245D01*
X0122294Y0103128D01*
X0122398Y0103009D01*
X0122499Y0102887D01*
X0122596Y0102762D01*
X0122691Y0102635D01*
X0122782Y0102506D01*
X0122871Y0102375D01*
X0122955Y0102241D01*
X0123037Y0102105D01*
X0123115Y0101968D01*
X0123189Y0101828D01*
X0123260Y0101686D01*
X0123328Y0101543D01*
X0123392Y0101398D01*
X0123452Y0101252D01*
X0123508Y0101104D01*
X0123561Y0100955D01*
X0123610Y0100804D01*
X0123655Y0100652D01*
X0123696Y0100499D01*
X0123734Y0100346D01*
X0123767Y0100191D01*
X0123797Y0100035D01*
X0123823Y0099879D01*
X0123844Y0099722D01*
X0123862Y0099565D01*
X0123876Y0099407D01*
X0123886Y0099249D01*
X0123892Y0099091D01*
X0123894Y0098933D01*
X0123892Y0098775D01*
X0123886Y0098617D01*
X0123876Y0098459D01*
X0123862Y0098301D01*
X0123844Y0098144D01*
X0123823Y0097987D01*
X0123797Y0097831D01*
X0123767Y0097675D01*
X0123734Y0097520D01*
X0123696Y0097367D01*
X0123655Y0097214D01*
X0123610Y0097062D01*
X0123561Y0096911D01*
X0123508Y0096762D01*
X0123452Y0096614D01*
X0123392Y0096468D01*
X0123328Y0096323D01*
X0123260Y0096180D01*
X0123189Y0096038D01*
X0123115Y0095898D01*
X0123037Y0095761D01*
X0122955Y0095625D01*
X0122871Y0095491D01*
X0122782Y0095360D01*
X0122691Y0095231D01*
X0122596Y0095104D01*
X0122499Y0094979D01*
X0122398Y0094857D01*
X0122294Y0094738D01*
X0122187Y0094621D01*
X0122077Y0094507D01*
X0121964Y0094396D01*
X0121849Y0094287D01*
X0121731Y0094182D01*
X0121610Y0094080D01*
X0121487Y0093980D01*
X0121361Y0093884D01*
X0121233Y0093791D01*
X0121103Y0093701D01*
X0120970Y0093615D01*
X0120835Y0093531D01*
X0120699Y0093452D01*
X0120560Y0093375D01*
X0120419Y0093303D01*
X0120277Y0093233D01*
X0120133Y0093168D01*
X0119987Y0093106D01*
X0119840Y0093048D01*
X0119691Y0092993D01*
X0119541Y0092942D01*
X0119390Y0092895D01*
X0119238Y0092852D01*
X0119085Y0092813D01*
X0118930Y0092777D01*
X0118775Y0092746D01*
X0118619Y0092718D01*
X0118463Y0092694D01*
X0118306Y0092674D01*
X0118148Y0092658D01*
X0117991Y0092646D01*
X0117832Y0092638D01*
X0117674Y0092634D01*
X0117516Y0092634D01*
X0117358Y0092638D01*
X0117199Y0092646D01*
X0117042Y0092658D01*
X0116884Y0092674D01*
X0116727Y0092694D01*
X0116571Y0092718D01*
X0116415Y0092746D01*
X0116260Y0092777D01*
X0116105Y0092813D01*
X0115952Y0092852D01*
X0115800Y0092895D01*
X0115649Y0092942D01*
X0115499Y0092993D01*
X0115350Y0093048D01*
X0115203Y0093106D01*
X0115057Y0093168D01*
X0114913Y0093233D01*
X0114771Y0093303D01*
X0114630Y0093375D01*
X0114491Y0093452D01*
X0114355Y0093531D01*
X0114220Y0093615D01*
X0114087Y0093701D01*
X0113957Y0093791D01*
X0113829Y0093884D01*
X0113703Y0093980D01*
X0113580Y0094080D01*
X0113459Y0094182D01*
X0113341Y0094287D01*
X0113226Y0094396D01*
X0113113Y0094507D01*
X0113003Y0094621D01*
X0112896Y0094738D01*
X0112792Y0094857D01*
X0112691Y0094979D01*
X0112594Y0095104D01*
X0112499Y0095231D01*
X0112408Y0095360D01*
X0112319Y0095491D01*
X0112235Y0095625D01*
X0112153Y0095761D01*
X0112075Y0095898D01*
X0112001Y0096038D01*
X0111930Y0096180D01*
X0111862Y0096323D01*
X0111798Y0096468D01*
X0111738Y0096614D01*
X0111682Y0096762D01*
X0111629Y0096911D01*
X0111580Y0097062D01*
X0111535Y0097214D01*
X0111494Y0097367D01*
X0111456Y0097520D01*
X0111423Y0097675D01*
X0111393Y0097831D01*
X0111367Y0097987D01*
X0111346Y0098144D01*
X0111328Y0098301D01*
X0111314Y0098459D01*
X0111304Y0098617D01*
X0111298Y0098775D01*
X0111296Y0098933D01*
X0101296Y0143933D02*
X0101298Y0144091D01*
X0101304Y0144249D01*
X0101314Y0144407D01*
X0101328Y0144565D01*
X0101346Y0144722D01*
X0101367Y0144879D01*
X0101393Y0145035D01*
X0101423Y0145191D01*
X0101456Y0145346D01*
X0101494Y0145499D01*
X0101535Y0145652D01*
X0101580Y0145804D01*
X0101629Y0145955D01*
X0101682Y0146104D01*
X0101738Y0146252D01*
X0101798Y0146398D01*
X0101862Y0146543D01*
X0101930Y0146686D01*
X0102001Y0146828D01*
X0102075Y0146968D01*
X0102153Y0147105D01*
X0102235Y0147241D01*
X0102319Y0147375D01*
X0102408Y0147506D01*
X0102499Y0147635D01*
X0102594Y0147762D01*
X0102691Y0147887D01*
X0102792Y0148009D01*
X0102896Y0148128D01*
X0103003Y0148245D01*
X0103113Y0148359D01*
X0103226Y0148470D01*
X0103341Y0148579D01*
X0103459Y0148684D01*
X0103580Y0148786D01*
X0103703Y0148886D01*
X0103829Y0148982D01*
X0103957Y0149075D01*
X0104087Y0149165D01*
X0104220Y0149251D01*
X0104355Y0149335D01*
X0104491Y0149414D01*
X0104630Y0149491D01*
X0104771Y0149563D01*
X0104913Y0149633D01*
X0105057Y0149698D01*
X0105203Y0149760D01*
X0105350Y0149818D01*
X0105499Y0149873D01*
X0105649Y0149924D01*
X0105800Y0149971D01*
X0105952Y0150014D01*
X0106105Y0150053D01*
X0106260Y0150089D01*
X0106415Y0150120D01*
X0106571Y0150148D01*
X0106727Y0150172D01*
X0106884Y0150192D01*
X0107042Y0150208D01*
X0107199Y0150220D01*
X0107358Y0150228D01*
X0107516Y0150232D01*
X0107674Y0150232D01*
X0107832Y0150228D01*
X0107991Y0150220D01*
X0108148Y0150208D01*
X0108306Y0150192D01*
X0108463Y0150172D01*
X0108619Y0150148D01*
X0108775Y0150120D01*
X0108930Y0150089D01*
X0109085Y0150053D01*
X0109238Y0150014D01*
X0109390Y0149971D01*
X0109541Y0149924D01*
X0109691Y0149873D01*
X0109840Y0149818D01*
X0109987Y0149760D01*
X0110133Y0149698D01*
X0110277Y0149633D01*
X0110419Y0149563D01*
X0110560Y0149491D01*
X0110699Y0149414D01*
X0110835Y0149335D01*
X0110970Y0149251D01*
X0111103Y0149165D01*
X0111233Y0149075D01*
X0111361Y0148982D01*
X0111487Y0148886D01*
X0111610Y0148786D01*
X0111731Y0148684D01*
X0111849Y0148579D01*
X0111964Y0148470D01*
X0112077Y0148359D01*
X0112187Y0148245D01*
X0112294Y0148128D01*
X0112398Y0148009D01*
X0112499Y0147887D01*
X0112596Y0147762D01*
X0112691Y0147635D01*
X0112782Y0147506D01*
X0112871Y0147375D01*
X0112955Y0147241D01*
X0113037Y0147105D01*
X0113115Y0146968D01*
X0113189Y0146828D01*
X0113260Y0146686D01*
X0113328Y0146543D01*
X0113392Y0146398D01*
X0113452Y0146252D01*
X0113508Y0146104D01*
X0113561Y0145955D01*
X0113610Y0145804D01*
X0113655Y0145652D01*
X0113696Y0145499D01*
X0113734Y0145346D01*
X0113767Y0145191D01*
X0113797Y0145035D01*
X0113823Y0144879D01*
X0113844Y0144722D01*
X0113862Y0144565D01*
X0113876Y0144407D01*
X0113886Y0144249D01*
X0113892Y0144091D01*
X0113894Y0143933D01*
X0113892Y0143775D01*
X0113886Y0143617D01*
X0113876Y0143459D01*
X0113862Y0143301D01*
X0113844Y0143144D01*
X0113823Y0142987D01*
X0113797Y0142831D01*
X0113767Y0142675D01*
X0113734Y0142520D01*
X0113696Y0142367D01*
X0113655Y0142214D01*
X0113610Y0142062D01*
X0113561Y0141911D01*
X0113508Y0141762D01*
X0113452Y0141614D01*
X0113392Y0141468D01*
X0113328Y0141323D01*
X0113260Y0141180D01*
X0113189Y0141038D01*
X0113115Y0140898D01*
X0113037Y0140761D01*
X0112955Y0140625D01*
X0112871Y0140491D01*
X0112782Y0140360D01*
X0112691Y0140231D01*
X0112596Y0140104D01*
X0112499Y0139979D01*
X0112398Y0139857D01*
X0112294Y0139738D01*
X0112187Y0139621D01*
X0112077Y0139507D01*
X0111964Y0139396D01*
X0111849Y0139287D01*
X0111731Y0139182D01*
X0111610Y0139080D01*
X0111487Y0138980D01*
X0111361Y0138884D01*
X0111233Y0138791D01*
X0111103Y0138701D01*
X0110970Y0138615D01*
X0110835Y0138531D01*
X0110699Y0138452D01*
X0110560Y0138375D01*
X0110419Y0138303D01*
X0110277Y0138233D01*
X0110133Y0138168D01*
X0109987Y0138106D01*
X0109840Y0138048D01*
X0109691Y0137993D01*
X0109541Y0137942D01*
X0109390Y0137895D01*
X0109238Y0137852D01*
X0109085Y0137813D01*
X0108930Y0137777D01*
X0108775Y0137746D01*
X0108619Y0137718D01*
X0108463Y0137694D01*
X0108306Y0137674D01*
X0108148Y0137658D01*
X0107991Y0137646D01*
X0107832Y0137638D01*
X0107674Y0137634D01*
X0107516Y0137634D01*
X0107358Y0137638D01*
X0107199Y0137646D01*
X0107042Y0137658D01*
X0106884Y0137674D01*
X0106727Y0137694D01*
X0106571Y0137718D01*
X0106415Y0137746D01*
X0106260Y0137777D01*
X0106105Y0137813D01*
X0105952Y0137852D01*
X0105800Y0137895D01*
X0105649Y0137942D01*
X0105499Y0137993D01*
X0105350Y0138048D01*
X0105203Y0138106D01*
X0105057Y0138168D01*
X0104913Y0138233D01*
X0104771Y0138303D01*
X0104630Y0138375D01*
X0104491Y0138452D01*
X0104355Y0138531D01*
X0104220Y0138615D01*
X0104087Y0138701D01*
X0103957Y0138791D01*
X0103829Y0138884D01*
X0103703Y0138980D01*
X0103580Y0139080D01*
X0103459Y0139182D01*
X0103341Y0139287D01*
X0103226Y0139396D01*
X0103113Y0139507D01*
X0103003Y0139621D01*
X0102896Y0139738D01*
X0102792Y0139857D01*
X0102691Y0139979D01*
X0102594Y0140104D01*
X0102499Y0140231D01*
X0102408Y0140360D01*
X0102319Y0140491D01*
X0102235Y0140625D01*
X0102153Y0140761D01*
X0102075Y0140898D01*
X0102001Y0141038D01*
X0101930Y0141180D01*
X0101862Y0141323D01*
X0101798Y0141468D01*
X0101738Y0141614D01*
X0101682Y0141762D01*
X0101629Y0141911D01*
X0101580Y0142062D01*
X0101535Y0142214D01*
X0101494Y0142367D01*
X0101456Y0142520D01*
X0101423Y0142675D01*
X0101393Y0142831D01*
X0101367Y0142987D01*
X0101346Y0143144D01*
X0101328Y0143301D01*
X0101314Y0143459D01*
X0101304Y0143617D01*
X0101298Y0143775D01*
X0101296Y0143933D01*
X0121345Y0143433D02*
X0121347Y0143552D01*
X0121353Y0143670D01*
X0121363Y0143788D01*
X0121377Y0143906D01*
X0121394Y0144023D01*
X0121416Y0144140D01*
X0121442Y0144256D01*
X0121471Y0144371D01*
X0121504Y0144485D01*
X0121541Y0144597D01*
X0121582Y0144709D01*
X0121627Y0144819D01*
X0121675Y0144927D01*
X0121727Y0145034D01*
X0121782Y0145139D01*
X0121841Y0145242D01*
X0121903Y0145343D01*
X0121968Y0145442D01*
X0122037Y0145539D01*
X0122109Y0145633D01*
X0122184Y0145725D01*
X0122262Y0145814D01*
X0122343Y0145901D01*
X0122427Y0145985D01*
X0122514Y0146066D01*
X0122603Y0146144D01*
X0122695Y0146219D01*
X0122789Y0146291D01*
X0122886Y0146360D01*
X0122985Y0146425D01*
X0123086Y0146487D01*
X0123189Y0146546D01*
X0123294Y0146601D01*
X0123401Y0146653D01*
X0123509Y0146701D01*
X0123619Y0146746D01*
X0123731Y0146787D01*
X0123843Y0146824D01*
X0123957Y0146857D01*
X0124072Y0146886D01*
X0124188Y0146912D01*
X0124305Y0146934D01*
X0124422Y0146951D01*
X0124540Y0146965D01*
X0124658Y0146975D01*
X0124776Y0146981D01*
X0124895Y0146983D01*
X0125014Y0146981D01*
X0125132Y0146975D01*
X0125250Y0146965D01*
X0125368Y0146951D01*
X0125485Y0146934D01*
X0125602Y0146912D01*
X0125718Y0146886D01*
X0125833Y0146857D01*
X0125947Y0146824D01*
X0126059Y0146787D01*
X0126171Y0146746D01*
X0126281Y0146701D01*
X0126389Y0146653D01*
X0126496Y0146601D01*
X0126601Y0146546D01*
X0126704Y0146487D01*
X0126805Y0146425D01*
X0126904Y0146360D01*
X0127001Y0146291D01*
X0127095Y0146219D01*
X0127187Y0146144D01*
X0127276Y0146066D01*
X0127363Y0145985D01*
X0127447Y0145901D01*
X0127528Y0145814D01*
X0127606Y0145725D01*
X0127681Y0145633D01*
X0127753Y0145539D01*
X0127822Y0145442D01*
X0127887Y0145343D01*
X0127949Y0145242D01*
X0128008Y0145139D01*
X0128063Y0145034D01*
X0128115Y0144927D01*
X0128163Y0144819D01*
X0128208Y0144709D01*
X0128249Y0144597D01*
X0128286Y0144485D01*
X0128319Y0144371D01*
X0128348Y0144256D01*
X0128374Y0144140D01*
X0128396Y0144023D01*
X0128413Y0143906D01*
X0128427Y0143788D01*
X0128437Y0143670D01*
X0128443Y0143552D01*
X0128445Y0143433D01*
X0128443Y0143314D01*
X0128437Y0143196D01*
X0128427Y0143078D01*
X0128413Y0142960D01*
X0128396Y0142843D01*
X0128374Y0142726D01*
X0128348Y0142610D01*
X0128319Y0142495D01*
X0128286Y0142381D01*
X0128249Y0142269D01*
X0128208Y0142157D01*
X0128163Y0142047D01*
X0128115Y0141939D01*
X0128063Y0141832D01*
X0128008Y0141727D01*
X0127949Y0141624D01*
X0127887Y0141523D01*
X0127822Y0141424D01*
X0127753Y0141327D01*
X0127681Y0141233D01*
X0127606Y0141141D01*
X0127528Y0141052D01*
X0127447Y0140965D01*
X0127363Y0140881D01*
X0127276Y0140800D01*
X0127187Y0140722D01*
X0127095Y0140647D01*
X0127001Y0140575D01*
X0126904Y0140506D01*
X0126805Y0140441D01*
X0126704Y0140379D01*
X0126601Y0140320D01*
X0126496Y0140265D01*
X0126389Y0140213D01*
X0126281Y0140165D01*
X0126171Y0140120D01*
X0126059Y0140079D01*
X0125947Y0140042D01*
X0125833Y0140009D01*
X0125718Y0139980D01*
X0125602Y0139954D01*
X0125485Y0139932D01*
X0125368Y0139915D01*
X0125250Y0139901D01*
X0125132Y0139891D01*
X0125014Y0139885D01*
X0124895Y0139883D01*
X0124776Y0139885D01*
X0124658Y0139891D01*
X0124540Y0139901D01*
X0124422Y0139915D01*
X0124305Y0139932D01*
X0124188Y0139954D01*
X0124072Y0139980D01*
X0123957Y0140009D01*
X0123843Y0140042D01*
X0123731Y0140079D01*
X0123619Y0140120D01*
X0123509Y0140165D01*
X0123401Y0140213D01*
X0123294Y0140265D01*
X0123189Y0140320D01*
X0123086Y0140379D01*
X0122985Y0140441D01*
X0122886Y0140506D01*
X0122789Y0140575D01*
X0122695Y0140647D01*
X0122603Y0140722D01*
X0122514Y0140800D01*
X0122427Y0140881D01*
X0122343Y0140965D01*
X0122262Y0141052D01*
X0122184Y0141141D01*
X0122109Y0141233D01*
X0122037Y0141327D01*
X0121968Y0141424D01*
X0121903Y0141523D01*
X0121841Y0141624D01*
X0121782Y0141727D01*
X0121727Y0141832D01*
X0121675Y0141939D01*
X0121627Y0142047D01*
X0121582Y0142157D01*
X0121541Y0142269D01*
X0121504Y0142381D01*
X0121471Y0142495D01*
X0121442Y0142610D01*
X0121416Y0142726D01*
X0121394Y0142843D01*
X0121377Y0142960D01*
X0121363Y0143078D01*
X0121353Y0143196D01*
X0121347Y0143314D01*
X0121345Y0143433D01*
X0101296Y0163933D02*
X0101298Y0164091D01*
X0101304Y0164249D01*
X0101314Y0164407D01*
X0101328Y0164565D01*
X0101346Y0164722D01*
X0101367Y0164879D01*
X0101393Y0165035D01*
X0101423Y0165191D01*
X0101456Y0165346D01*
X0101494Y0165499D01*
X0101535Y0165652D01*
X0101580Y0165804D01*
X0101629Y0165955D01*
X0101682Y0166104D01*
X0101738Y0166252D01*
X0101798Y0166398D01*
X0101862Y0166543D01*
X0101930Y0166686D01*
X0102001Y0166828D01*
X0102075Y0166968D01*
X0102153Y0167105D01*
X0102235Y0167241D01*
X0102319Y0167375D01*
X0102408Y0167506D01*
X0102499Y0167635D01*
X0102594Y0167762D01*
X0102691Y0167887D01*
X0102792Y0168009D01*
X0102896Y0168128D01*
X0103003Y0168245D01*
X0103113Y0168359D01*
X0103226Y0168470D01*
X0103341Y0168579D01*
X0103459Y0168684D01*
X0103580Y0168786D01*
X0103703Y0168886D01*
X0103829Y0168982D01*
X0103957Y0169075D01*
X0104087Y0169165D01*
X0104220Y0169251D01*
X0104355Y0169335D01*
X0104491Y0169414D01*
X0104630Y0169491D01*
X0104771Y0169563D01*
X0104913Y0169633D01*
X0105057Y0169698D01*
X0105203Y0169760D01*
X0105350Y0169818D01*
X0105499Y0169873D01*
X0105649Y0169924D01*
X0105800Y0169971D01*
X0105952Y0170014D01*
X0106105Y0170053D01*
X0106260Y0170089D01*
X0106415Y0170120D01*
X0106571Y0170148D01*
X0106727Y0170172D01*
X0106884Y0170192D01*
X0107042Y0170208D01*
X0107199Y0170220D01*
X0107358Y0170228D01*
X0107516Y0170232D01*
X0107674Y0170232D01*
X0107832Y0170228D01*
X0107991Y0170220D01*
X0108148Y0170208D01*
X0108306Y0170192D01*
X0108463Y0170172D01*
X0108619Y0170148D01*
X0108775Y0170120D01*
X0108930Y0170089D01*
X0109085Y0170053D01*
X0109238Y0170014D01*
X0109390Y0169971D01*
X0109541Y0169924D01*
X0109691Y0169873D01*
X0109840Y0169818D01*
X0109987Y0169760D01*
X0110133Y0169698D01*
X0110277Y0169633D01*
X0110419Y0169563D01*
X0110560Y0169491D01*
X0110699Y0169414D01*
X0110835Y0169335D01*
X0110970Y0169251D01*
X0111103Y0169165D01*
X0111233Y0169075D01*
X0111361Y0168982D01*
X0111487Y0168886D01*
X0111610Y0168786D01*
X0111731Y0168684D01*
X0111849Y0168579D01*
X0111964Y0168470D01*
X0112077Y0168359D01*
X0112187Y0168245D01*
X0112294Y0168128D01*
X0112398Y0168009D01*
X0112499Y0167887D01*
X0112596Y0167762D01*
X0112691Y0167635D01*
X0112782Y0167506D01*
X0112871Y0167375D01*
X0112955Y0167241D01*
X0113037Y0167105D01*
X0113115Y0166968D01*
X0113189Y0166828D01*
X0113260Y0166686D01*
X0113328Y0166543D01*
X0113392Y0166398D01*
X0113452Y0166252D01*
X0113508Y0166104D01*
X0113561Y0165955D01*
X0113610Y0165804D01*
X0113655Y0165652D01*
X0113696Y0165499D01*
X0113734Y0165346D01*
X0113767Y0165191D01*
X0113797Y0165035D01*
X0113823Y0164879D01*
X0113844Y0164722D01*
X0113862Y0164565D01*
X0113876Y0164407D01*
X0113886Y0164249D01*
X0113892Y0164091D01*
X0113894Y0163933D01*
X0113892Y0163775D01*
X0113886Y0163617D01*
X0113876Y0163459D01*
X0113862Y0163301D01*
X0113844Y0163144D01*
X0113823Y0162987D01*
X0113797Y0162831D01*
X0113767Y0162675D01*
X0113734Y0162520D01*
X0113696Y0162367D01*
X0113655Y0162214D01*
X0113610Y0162062D01*
X0113561Y0161911D01*
X0113508Y0161762D01*
X0113452Y0161614D01*
X0113392Y0161468D01*
X0113328Y0161323D01*
X0113260Y0161180D01*
X0113189Y0161038D01*
X0113115Y0160898D01*
X0113037Y0160761D01*
X0112955Y0160625D01*
X0112871Y0160491D01*
X0112782Y0160360D01*
X0112691Y0160231D01*
X0112596Y0160104D01*
X0112499Y0159979D01*
X0112398Y0159857D01*
X0112294Y0159738D01*
X0112187Y0159621D01*
X0112077Y0159507D01*
X0111964Y0159396D01*
X0111849Y0159287D01*
X0111731Y0159182D01*
X0111610Y0159080D01*
X0111487Y0158980D01*
X0111361Y0158884D01*
X0111233Y0158791D01*
X0111103Y0158701D01*
X0110970Y0158615D01*
X0110835Y0158531D01*
X0110699Y0158452D01*
X0110560Y0158375D01*
X0110419Y0158303D01*
X0110277Y0158233D01*
X0110133Y0158168D01*
X0109987Y0158106D01*
X0109840Y0158048D01*
X0109691Y0157993D01*
X0109541Y0157942D01*
X0109390Y0157895D01*
X0109238Y0157852D01*
X0109085Y0157813D01*
X0108930Y0157777D01*
X0108775Y0157746D01*
X0108619Y0157718D01*
X0108463Y0157694D01*
X0108306Y0157674D01*
X0108148Y0157658D01*
X0107991Y0157646D01*
X0107832Y0157638D01*
X0107674Y0157634D01*
X0107516Y0157634D01*
X0107358Y0157638D01*
X0107199Y0157646D01*
X0107042Y0157658D01*
X0106884Y0157674D01*
X0106727Y0157694D01*
X0106571Y0157718D01*
X0106415Y0157746D01*
X0106260Y0157777D01*
X0106105Y0157813D01*
X0105952Y0157852D01*
X0105800Y0157895D01*
X0105649Y0157942D01*
X0105499Y0157993D01*
X0105350Y0158048D01*
X0105203Y0158106D01*
X0105057Y0158168D01*
X0104913Y0158233D01*
X0104771Y0158303D01*
X0104630Y0158375D01*
X0104491Y0158452D01*
X0104355Y0158531D01*
X0104220Y0158615D01*
X0104087Y0158701D01*
X0103957Y0158791D01*
X0103829Y0158884D01*
X0103703Y0158980D01*
X0103580Y0159080D01*
X0103459Y0159182D01*
X0103341Y0159287D01*
X0103226Y0159396D01*
X0103113Y0159507D01*
X0103003Y0159621D01*
X0102896Y0159738D01*
X0102792Y0159857D01*
X0102691Y0159979D01*
X0102594Y0160104D01*
X0102499Y0160231D01*
X0102408Y0160360D01*
X0102319Y0160491D01*
X0102235Y0160625D01*
X0102153Y0160761D01*
X0102075Y0160898D01*
X0102001Y0161038D01*
X0101930Y0161180D01*
X0101862Y0161323D01*
X0101798Y0161468D01*
X0101738Y0161614D01*
X0101682Y0161762D01*
X0101629Y0161911D01*
X0101580Y0162062D01*
X0101535Y0162214D01*
X0101494Y0162367D01*
X0101456Y0162520D01*
X0101423Y0162675D01*
X0101393Y0162831D01*
X0101367Y0162987D01*
X0101346Y0163144D01*
X0101328Y0163301D01*
X0101314Y0163459D01*
X0101304Y0163617D01*
X0101298Y0163775D01*
X0101296Y0163933D01*
X0156745Y0143433D02*
X0156747Y0143552D01*
X0156753Y0143670D01*
X0156763Y0143788D01*
X0156777Y0143906D01*
X0156794Y0144023D01*
X0156816Y0144140D01*
X0156842Y0144256D01*
X0156871Y0144371D01*
X0156904Y0144485D01*
X0156941Y0144597D01*
X0156982Y0144709D01*
X0157027Y0144819D01*
X0157075Y0144927D01*
X0157127Y0145034D01*
X0157182Y0145139D01*
X0157241Y0145242D01*
X0157303Y0145343D01*
X0157368Y0145442D01*
X0157437Y0145539D01*
X0157509Y0145633D01*
X0157584Y0145725D01*
X0157662Y0145814D01*
X0157743Y0145901D01*
X0157827Y0145985D01*
X0157914Y0146066D01*
X0158003Y0146144D01*
X0158095Y0146219D01*
X0158189Y0146291D01*
X0158286Y0146360D01*
X0158385Y0146425D01*
X0158486Y0146487D01*
X0158589Y0146546D01*
X0158694Y0146601D01*
X0158801Y0146653D01*
X0158909Y0146701D01*
X0159019Y0146746D01*
X0159131Y0146787D01*
X0159243Y0146824D01*
X0159357Y0146857D01*
X0159472Y0146886D01*
X0159588Y0146912D01*
X0159705Y0146934D01*
X0159822Y0146951D01*
X0159940Y0146965D01*
X0160058Y0146975D01*
X0160176Y0146981D01*
X0160295Y0146983D01*
X0160414Y0146981D01*
X0160532Y0146975D01*
X0160650Y0146965D01*
X0160768Y0146951D01*
X0160885Y0146934D01*
X0161002Y0146912D01*
X0161118Y0146886D01*
X0161233Y0146857D01*
X0161347Y0146824D01*
X0161459Y0146787D01*
X0161571Y0146746D01*
X0161681Y0146701D01*
X0161789Y0146653D01*
X0161896Y0146601D01*
X0162001Y0146546D01*
X0162104Y0146487D01*
X0162205Y0146425D01*
X0162304Y0146360D01*
X0162401Y0146291D01*
X0162495Y0146219D01*
X0162587Y0146144D01*
X0162676Y0146066D01*
X0162763Y0145985D01*
X0162847Y0145901D01*
X0162928Y0145814D01*
X0163006Y0145725D01*
X0163081Y0145633D01*
X0163153Y0145539D01*
X0163222Y0145442D01*
X0163287Y0145343D01*
X0163349Y0145242D01*
X0163408Y0145139D01*
X0163463Y0145034D01*
X0163515Y0144927D01*
X0163563Y0144819D01*
X0163608Y0144709D01*
X0163649Y0144597D01*
X0163686Y0144485D01*
X0163719Y0144371D01*
X0163748Y0144256D01*
X0163774Y0144140D01*
X0163796Y0144023D01*
X0163813Y0143906D01*
X0163827Y0143788D01*
X0163837Y0143670D01*
X0163843Y0143552D01*
X0163845Y0143433D01*
X0163843Y0143314D01*
X0163837Y0143196D01*
X0163827Y0143078D01*
X0163813Y0142960D01*
X0163796Y0142843D01*
X0163774Y0142726D01*
X0163748Y0142610D01*
X0163719Y0142495D01*
X0163686Y0142381D01*
X0163649Y0142269D01*
X0163608Y0142157D01*
X0163563Y0142047D01*
X0163515Y0141939D01*
X0163463Y0141832D01*
X0163408Y0141727D01*
X0163349Y0141624D01*
X0163287Y0141523D01*
X0163222Y0141424D01*
X0163153Y0141327D01*
X0163081Y0141233D01*
X0163006Y0141141D01*
X0162928Y0141052D01*
X0162847Y0140965D01*
X0162763Y0140881D01*
X0162676Y0140800D01*
X0162587Y0140722D01*
X0162495Y0140647D01*
X0162401Y0140575D01*
X0162304Y0140506D01*
X0162205Y0140441D01*
X0162104Y0140379D01*
X0162001Y0140320D01*
X0161896Y0140265D01*
X0161789Y0140213D01*
X0161681Y0140165D01*
X0161571Y0140120D01*
X0161459Y0140079D01*
X0161347Y0140042D01*
X0161233Y0140009D01*
X0161118Y0139980D01*
X0161002Y0139954D01*
X0160885Y0139932D01*
X0160768Y0139915D01*
X0160650Y0139901D01*
X0160532Y0139891D01*
X0160414Y0139885D01*
X0160295Y0139883D01*
X0160176Y0139885D01*
X0160058Y0139891D01*
X0159940Y0139901D01*
X0159822Y0139915D01*
X0159705Y0139932D01*
X0159588Y0139954D01*
X0159472Y0139980D01*
X0159357Y0140009D01*
X0159243Y0140042D01*
X0159131Y0140079D01*
X0159019Y0140120D01*
X0158909Y0140165D01*
X0158801Y0140213D01*
X0158694Y0140265D01*
X0158589Y0140320D01*
X0158486Y0140379D01*
X0158385Y0140441D01*
X0158286Y0140506D01*
X0158189Y0140575D01*
X0158095Y0140647D01*
X0158003Y0140722D01*
X0157914Y0140800D01*
X0157827Y0140881D01*
X0157743Y0140965D01*
X0157662Y0141052D01*
X0157584Y0141141D01*
X0157509Y0141233D01*
X0157437Y0141327D01*
X0157368Y0141424D01*
X0157303Y0141523D01*
X0157241Y0141624D01*
X0157182Y0141727D01*
X0157127Y0141832D01*
X0157075Y0141939D01*
X0157027Y0142047D01*
X0156982Y0142157D01*
X0156941Y0142269D01*
X0156904Y0142381D01*
X0156871Y0142495D01*
X0156842Y0142610D01*
X0156816Y0142726D01*
X0156794Y0142843D01*
X0156777Y0142960D01*
X0156763Y0143078D01*
X0156753Y0143196D01*
X0156747Y0143314D01*
X0156745Y0143433D01*
X0171296Y0163933D02*
X0171298Y0164091D01*
X0171304Y0164249D01*
X0171314Y0164407D01*
X0171328Y0164565D01*
X0171346Y0164722D01*
X0171367Y0164879D01*
X0171393Y0165035D01*
X0171423Y0165191D01*
X0171456Y0165346D01*
X0171494Y0165499D01*
X0171535Y0165652D01*
X0171580Y0165804D01*
X0171629Y0165955D01*
X0171682Y0166104D01*
X0171738Y0166252D01*
X0171798Y0166398D01*
X0171862Y0166543D01*
X0171930Y0166686D01*
X0172001Y0166828D01*
X0172075Y0166968D01*
X0172153Y0167105D01*
X0172235Y0167241D01*
X0172319Y0167375D01*
X0172408Y0167506D01*
X0172499Y0167635D01*
X0172594Y0167762D01*
X0172691Y0167887D01*
X0172792Y0168009D01*
X0172896Y0168128D01*
X0173003Y0168245D01*
X0173113Y0168359D01*
X0173226Y0168470D01*
X0173341Y0168579D01*
X0173459Y0168684D01*
X0173580Y0168786D01*
X0173703Y0168886D01*
X0173829Y0168982D01*
X0173957Y0169075D01*
X0174087Y0169165D01*
X0174220Y0169251D01*
X0174355Y0169335D01*
X0174491Y0169414D01*
X0174630Y0169491D01*
X0174771Y0169563D01*
X0174913Y0169633D01*
X0175057Y0169698D01*
X0175203Y0169760D01*
X0175350Y0169818D01*
X0175499Y0169873D01*
X0175649Y0169924D01*
X0175800Y0169971D01*
X0175952Y0170014D01*
X0176105Y0170053D01*
X0176260Y0170089D01*
X0176415Y0170120D01*
X0176571Y0170148D01*
X0176727Y0170172D01*
X0176884Y0170192D01*
X0177042Y0170208D01*
X0177199Y0170220D01*
X0177358Y0170228D01*
X0177516Y0170232D01*
X0177674Y0170232D01*
X0177832Y0170228D01*
X0177991Y0170220D01*
X0178148Y0170208D01*
X0178306Y0170192D01*
X0178463Y0170172D01*
X0178619Y0170148D01*
X0178775Y0170120D01*
X0178930Y0170089D01*
X0179085Y0170053D01*
X0179238Y0170014D01*
X0179390Y0169971D01*
X0179541Y0169924D01*
X0179691Y0169873D01*
X0179840Y0169818D01*
X0179987Y0169760D01*
X0180133Y0169698D01*
X0180277Y0169633D01*
X0180419Y0169563D01*
X0180560Y0169491D01*
X0180699Y0169414D01*
X0180835Y0169335D01*
X0180970Y0169251D01*
X0181103Y0169165D01*
X0181233Y0169075D01*
X0181361Y0168982D01*
X0181487Y0168886D01*
X0181610Y0168786D01*
X0181731Y0168684D01*
X0181849Y0168579D01*
X0181964Y0168470D01*
X0182077Y0168359D01*
X0182187Y0168245D01*
X0182294Y0168128D01*
X0182398Y0168009D01*
X0182499Y0167887D01*
X0182596Y0167762D01*
X0182691Y0167635D01*
X0182782Y0167506D01*
X0182871Y0167375D01*
X0182955Y0167241D01*
X0183037Y0167105D01*
X0183115Y0166968D01*
X0183189Y0166828D01*
X0183260Y0166686D01*
X0183328Y0166543D01*
X0183392Y0166398D01*
X0183452Y0166252D01*
X0183508Y0166104D01*
X0183561Y0165955D01*
X0183610Y0165804D01*
X0183655Y0165652D01*
X0183696Y0165499D01*
X0183734Y0165346D01*
X0183767Y0165191D01*
X0183797Y0165035D01*
X0183823Y0164879D01*
X0183844Y0164722D01*
X0183862Y0164565D01*
X0183876Y0164407D01*
X0183886Y0164249D01*
X0183892Y0164091D01*
X0183894Y0163933D01*
X0183892Y0163775D01*
X0183886Y0163617D01*
X0183876Y0163459D01*
X0183862Y0163301D01*
X0183844Y0163144D01*
X0183823Y0162987D01*
X0183797Y0162831D01*
X0183767Y0162675D01*
X0183734Y0162520D01*
X0183696Y0162367D01*
X0183655Y0162214D01*
X0183610Y0162062D01*
X0183561Y0161911D01*
X0183508Y0161762D01*
X0183452Y0161614D01*
X0183392Y0161468D01*
X0183328Y0161323D01*
X0183260Y0161180D01*
X0183189Y0161038D01*
X0183115Y0160898D01*
X0183037Y0160761D01*
X0182955Y0160625D01*
X0182871Y0160491D01*
X0182782Y0160360D01*
X0182691Y0160231D01*
X0182596Y0160104D01*
X0182499Y0159979D01*
X0182398Y0159857D01*
X0182294Y0159738D01*
X0182187Y0159621D01*
X0182077Y0159507D01*
X0181964Y0159396D01*
X0181849Y0159287D01*
X0181731Y0159182D01*
X0181610Y0159080D01*
X0181487Y0158980D01*
X0181361Y0158884D01*
X0181233Y0158791D01*
X0181103Y0158701D01*
X0180970Y0158615D01*
X0180835Y0158531D01*
X0180699Y0158452D01*
X0180560Y0158375D01*
X0180419Y0158303D01*
X0180277Y0158233D01*
X0180133Y0158168D01*
X0179987Y0158106D01*
X0179840Y0158048D01*
X0179691Y0157993D01*
X0179541Y0157942D01*
X0179390Y0157895D01*
X0179238Y0157852D01*
X0179085Y0157813D01*
X0178930Y0157777D01*
X0178775Y0157746D01*
X0178619Y0157718D01*
X0178463Y0157694D01*
X0178306Y0157674D01*
X0178148Y0157658D01*
X0177991Y0157646D01*
X0177832Y0157638D01*
X0177674Y0157634D01*
X0177516Y0157634D01*
X0177358Y0157638D01*
X0177199Y0157646D01*
X0177042Y0157658D01*
X0176884Y0157674D01*
X0176727Y0157694D01*
X0176571Y0157718D01*
X0176415Y0157746D01*
X0176260Y0157777D01*
X0176105Y0157813D01*
X0175952Y0157852D01*
X0175800Y0157895D01*
X0175649Y0157942D01*
X0175499Y0157993D01*
X0175350Y0158048D01*
X0175203Y0158106D01*
X0175057Y0158168D01*
X0174913Y0158233D01*
X0174771Y0158303D01*
X0174630Y0158375D01*
X0174491Y0158452D01*
X0174355Y0158531D01*
X0174220Y0158615D01*
X0174087Y0158701D01*
X0173957Y0158791D01*
X0173829Y0158884D01*
X0173703Y0158980D01*
X0173580Y0159080D01*
X0173459Y0159182D01*
X0173341Y0159287D01*
X0173226Y0159396D01*
X0173113Y0159507D01*
X0173003Y0159621D01*
X0172896Y0159738D01*
X0172792Y0159857D01*
X0172691Y0159979D01*
X0172594Y0160104D01*
X0172499Y0160231D01*
X0172408Y0160360D01*
X0172319Y0160491D01*
X0172235Y0160625D01*
X0172153Y0160761D01*
X0172075Y0160898D01*
X0172001Y0161038D01*
X0171930Y0161180D01*
X0171862Y0161323D01*
X0171798Y0161468D01*
X0171738Y0161614D01*
X0171682Y0161762D01*
X0171629Y0161911D01*
X0171580Y0162062D01*
X0171535Y0162214D01*
X0171494Y0162367D01*
X0171456Y0162520D01*
X0171423Y0162675D01*
X0171393Y0162831D01*
X0171367Y0162987D01*
X0171346Y0163144D01*
X0171328Y0163301D01*
X0171314Y0163459D01*
X0171304Y0163617D01*
X0171298Y0163775D01*
X0171296Y0163933D01*
X0183296Y0143933D02*
X0183298Y0144091D01*
X0183304Y0144249D01*
X0183314Y0144407D01*
X0183328Y0144565D01*
X0183346Y0144722D01*
X0183367Y0144879D01*
X0183393Y0145035D01*
X0183423Y0145191D01*
X0183456Y0145346D01*
X0183494Y0145499D01*
X0183535Y0145652D01*
X0183580Y0145804D01*
X0183629Y0145955D01*
X0183682Y0146104D01*
X0183738Y0146252D01*
X0183798Y0146398D01*
X0183862Y0146543D01*
X0183930Y0146686D01*
X0184001Y0146828D01*
X0184075Y0146968D01*
X0184153Y0147105D01*
X0184235Y0147241D01*
X0184319Y0147375D01*
X0184408Y0147506D01*
X0184499Y0147635D01*
X0184594Y0147762D01*
X0184691Y0147887D01*
X0184792Y0148009D01*
X0184896Y0148128D01*
X0185003Y0148245D01*
X0185113Y0148359D01*
X0185226Y0148470D01*
X0185341Y0148579D01*
X0185459Y0148684D01*
X0185580Y0148786D01*
X0185703Y0148886D01*
X0185829Y0148982D01*
X0185957Y0149075D01*
X0186087Y0149165D01*
X0186220Y0149251D01*
X0186355Y0149335D01*
X0186491Y0149414D01*
X0186630Y0149491D01*
X0186771Y0149563D01*
X0186913Y0149633D01*
X0187057Y0149698D01*
X0187203Y0149760D01*
X0187350Y0149818D01*
X0187499Y0149873D01*
X0187649Y0149924D01*
X0187800Y0149971D01*
X0187952Y0150014D01*
X0188105Y0150053D01*
X0188260Y0150089D01*
X0188415Y0150120D01*
X0188571Y0150148D01*
X0188727Y0150172D01*
X0188884Y0150192D01*
X0189042Y0150208D01*
X0189199Y0150220D01*
X0189358Y0150228D01*
X0189516Y0150232D01*
X0189674Y0150232D01*
X0189832Y0150228D01*
X0189991Y0150220D01*
X0190148Y0150208D01*
X0190306Y0150192D01*
X0190463Y0150172D01*
X0190619Y0150148D01*
X0190775Y0150120D01*
X0190930Y0150089D01*
X0191085Y0150053D01*
X0191238Y0150014D01*
X0191390Y0149971D01*
X0191541Y0149924D01*
X0191691Y0149873D01*
X0191840Y0149818D01*
X0191987Y0149760D01*
X0192133Y0149698D01*
X0192277Y0149633D01*
X0192419Y0149563D01*
X0192560Y0149491D01*
X0192699Y0149414D01*
X0192835Y0149335D01*
X0192970Y0149251D01*
X0193103Y0149165D01*
X0193233Y0149075D01*
X0193361Y0148982D01*
X0193487Y0148886D01*
X0193610Y0148786D01*
X0193731Y0148684D01*
X0193849Y0148579D01*
X0193964Y0148470D01*
X0194077Y0148359D01*
X0194187Y0148245D01*
X0194294Y0148128D01*
X0194398Y0148009D01*
X0194499Y0147887D01*
X0194596Y0147762D01*
X0194691Y0147635D01*
X0194782Y0147506D01*
X0194871Y0147375D01*
X0194955Y0147241D01*
X0195037Y0147105D01*
X0195115Y0146968D01*
X0195189Y0146828D01*
X0195260Y0146686D01*
X0195328Y0146543D01*
X0195392Y0146398D01*
X0195452Y0146252D01*
X0195508Y0146104D01*
X0195561Y0145955D01*
X0195610Y0145804D01*
X0195655Y0145652D01*
X0195696Y0145499D01*
X0195734Y0145346D01*
X0195767Y0145191D01*
X0195797Y0145035D01*
X0195823Y0144879D01*
X0195844Y0144722D01*
X0195862Y0144565D01*
X0195876Y0144407D01*
X0195886Y0144249D01*
X0195892Y0144091D01*
X0195894Y0143933D01*
X0195892Y0143775D01*
X0195886Y0143617D01*
X0195876Y0143459D01*
X0195862Y0143301D01*
X0195844Y0143144D01*
X0195823Y0142987D01*
X0195797Y0142831D01*
X0195767Y0142675D01*
X0195734Y0142520D01*
X0195696Y0142367D01*
X0195655Y0142214D01*
X0195610Y0142062D01*
X0195561Y0141911D01*
X0195508Y0141762D01*
X0195452Y0141614D01*
X0195392Y0141468D01*
X0195328Y0141323D01*
X0195260Y0141180D01*
X0195189Y0141038D01*
X0195115Y0140898D01*
X0195037Y0140761D01*
X0194955Y0140625D01*
X0194871Y0140491D01*
X0194782Y0140360D01*
X0194691Y0140231D01*
X0194596Y0140104D01*
X0194499Y0139979D01*
X0194398Y0139857D01*
X0194294Y0139738D01*
X0194187Y0139621D01*
X0194077Y0139507D01*
X0193964Y0139396D01*
X0193849Y0139287D01*
X0193731Y0139182D01*
X0193610Y0139080D01*
X0193487Y0138980D01*
X0193361Y0138884D01*
X0193233Y0138791D01*
X0193103Y0138701D01*
X0192970Y0138615D01*
X0192835Y0138531D01*
X0192699Y0138452D01*
X0192560Y0138375D01*
X0192419Y0138303D01*
X0192277Y0138233D01*
X0192133Y0138168D01*
X0191987Y0138106D01*
X0191840Y0138048D01*
X0191691Y0137993D01*
X0191541Y0137942D01*
X0191390Y0137895D01*
X0191238Y0137852D01*
X0191085Y0137813D01*
X0190930Y0137777D01*
X0190775Y0137746D01*
X0190619Y0137718D01*
X0190463Y0137694D01*
X0190306Y0137674D01*
X0190148Y0137658D01*
X0189991Y0137646D01*
X0189832Y0137638D01*
X0189674Y0137634D01*
X0189516Y0137634D01*
X0189358Y0137638D01*
X0189199Y0137646D01*
X0189042Y0137658D01*
X0188884Y0137674D01*
X0188727Y0137694D01*
X0188571Y0137718D01*
X0188415Y0137746D01*
X0188260Y0137777D01*
X0188105Y0137813D01*
X0187952Y0137852D01*
X0187800Y0137895D01*
X0187649Y0137942D01*
X0187499Y0137993D01*
X0187350Y0138048D01*
X0187203Y0138106D01*
X0187057Y0138168D01*
X0186913Y0138233D01*
X0186771Y0138303D01*
X0186630Y0138375D01*
X0186491Y0138452D01*
X0186355Y0138531D01*
X0186220Y0138615D01*
X0186087Y0138701D01*
X0185957Y0138791D01*
X0185829Y0138884D01*
X0185703Y0138980D01*
X0185580Y0139080D01*
X0185459Y0139182D01*
X0185341Y0139287D01*
X0185226Y0139396D01*
X0185113Y0139507D01*
X0185003Y0139621D01*
X0184896Y0139738D01*
X0184792Y0139857D01*
X0184691Y0139979D01*
X0184594Y0140104D01*
X0184499Y0140231D01*
X0184408Y0140360D01*
X0184319Y0140491D01*
X0184235Y0140625D01*
X0184153Y0140761D01*
X0184075Y0140898D01*
X0184001Y0141038D01*
X0183930Y0141180D01*
X0183862Y0141323D01*
X0183798Y0141468D01*
X0183738Y0141614D01*
X0183682Y0141762D01*
X0183629Y0141911D01*
X0183580Y0142062D01*
X0183535Y0142214D01*
X0183494Y0142367D01*
X0183456Y0142520D01*
X0183423Y0142675D01*
X0183393Y0142831D01*
X0183367Y0142987D01*
X0183346Y0143144D01*
X0183328Y0143301D01*
X0183314Y0143459D01*
X0183304Y0143617D01*
X0183298Y0143775D01*
X0183296Y0143933D01*
X0183296Y0053933D02*
X0183298Y0054091D01*
X0183304Y0054249D01*
X0183314Y0054407D01*
X0183328Y0054565D01*
X0183346Y0054722D01*
X0183367Y0054879D01*
X0183393Y0055035D01*
X0183423Y0055191D01*
X0183456Y0055346D01*
X0183494Y0055499D01*
X0183535Y0055652D01*
X0183580Y0055804D01*
X0183629Y0055955D01*
X0183682Y0056104D01*
X0183738Y0056252D01*
X0183798Y0056398D01*
X0183862Y0056543D01*
X0183930Y0056686D01*
X0184001Y0056828D01*
X0184075Y0056968D01*
X0184153Y0057105D01*
X0184235Y0057241D01*
X0184319Y0057375D01*
X0184408Y0057506D01*
X0184499Y0057635D01*
X0184594Y0057762D01*
X0184691Y0057887D01*
X0184792Y0058009D01*
X0184896Y0058128D01*
X0185003Y0058245D01*
X0185113Y0058359D01*
X0185226Y0058470D01*
X0185341Y0058579D01*
X0185459Y0058684D01*
X0185580Y0058786D01*
X0185703Y0058886D01*
X0185829Y0058982D01*
X0185957Y0059075D01*
X0186087Y0059165D01*
X0186220Y0059251D01*
X0186355Y0059335D01*
X0186491Y0059414D01*
X0186630Y0059491D01*
X0186771Y0059563D01*
X0186913Y0059633D01*
X0187057Y0059698D01*
X0187203Y0059760D01*
X0187350Y0059818D01*
X0187499Y0059873D01*
X0187649Y0059924D01*
X0187800Y0059971D01*
X0187952Y0060014D01*
X0188105Y0060053D01*
X0188260Y0060089D01*
X0188415Y0060120D01*
X0188571Y0060148D01*
X0188727Y0060172D01*
X0188884Y0060192D01*
X0189042Y0060208D01*
X0189199Y0060220D01*
X0189358Y0060228D01*
X0189516Y0060232D01*
X0189674Y0060232D01*
X0189832Y0060228D01*
X0189991Y0060220D01*
X0190148Y0060208D01*
X0190306Y0060192D01*
X0190463Y0060172D01*
X0190619Y0060148D01*
X0190775Y0060120D01*
X0190930Y0060089D01*
X0191085Y0060053D01*
X0191238Y0060014D01*
X0191390Y0059971D01*
X0191541Y0059924D01*
X0191691Y0059873D01*
X0191840Y0059818D01*
X0191987Y0059760D01*
X0192133Y0059698D01*
X0192277Y0059633D01*
X0192419Y0059563D01*
X0192560Y0059491D01*
X0192699Y0059414D01*
X0192835Y0059335D01*
X0192970Y0059251D01*
X0193103Y0059165D01*
X0193233Y0059075D01*
X0193361Y0058982D01*
X0193487Y0058886D01*
X0193610Y0058786D01*
X0193731Y0058684D01*
X0193849Y0058579D01*
X0193964Y0058470D01*
X0194077Y0058359D01*
X0194187Y0058245D01*
X0194294Y0058128D01*
X0194398Y0058009D01*
X0194499Y0057887D01*
X0194596Y0057762D01*
X0194691Y0057635D01*
X0194782Y0057506D01*
X0194871Y0057375D01*
X0194955Y0057241D01*
X0195037Y0057105D01*
X0195115Y0056968D01*
X0195189Y0056828D01*
X0195260Y0056686D01*
X0195328Y0056543D01*
X0195392Y0056398D01*
X0195452Y0056252D01*
X0195508Y0056104D01*
X0195561Y0055955D01*
X0195610Y0055804D01*
X0195655Y0055652D01*
X0195696Y0055499D01*
X0195734Y0055346D01*
X0195767Y0055191D01*
X0195797Y0055035D01*
X0195823Y0054879D01*
X0195844Y0054722D01*
X0195862Y0054565D01*
X0195876Y0054407D01*
X0195886Y0054249D01*
X0195892Y0054091D01*
X0195894Y0053933D01*
X0195892Y0053775D01*
X0195886Y0053617D01*
X0195876Y0053459D01*
X0195862Y0053301D01*
X0195844Y0053144D01*
X0195823Y0052987D01*
X0195797Y0052831D01*
X0195767Y0052675D01*
X0195734Y0052520D01*
X0195696Y0052367D01*
X0195655Y0052214D01*
X0195610Y0052062D01*
X0195561Y0051911D01*
X0195508Y0051762D01*
X0195452Y0051614D01*
X0195392Y0051468D01*
X0195328Y0051323D01*
X0195260Y0051180D01*
X0195189Y0051038D01*
X0195115Y0050898D01*
X0195037Y0050761D01*
X0194955Y0050625D01*
X0194871Y0050491D01*
X0194782Y0050360D01*
X0194691Y0050231D01*
X0194596Y0050104D01*
X0194499Y0049979D01*
X0194398Y0049857D01*
X0194294Y0049738D01*
X0194187Y0049621D01*
X0194077Y0049507D01*
X0193964Y0049396D01*
X0193849Y0049287D01*
X0193731Y0049182D01*
X0193610Y0049080D01*
X0193487Y0048980D01*
X0193361Y0048884D01*
X0193233Y0048791D01*
X0193103Y0048701D01*
X0192970Y0048615D01*
X0192835Y0048531D01*
X0192699Y0048452D01*
X0192560Y0048375D01*
X0192419Y0048303D01*
X0192277Y0048233D01*
X0192133Y0048168D01*
X0191987Y0048106D01*
X0191840Y0048048D01*
X0191691Y0047993D01*
X0191541Y0047942D01*
X0191390Y0047895D01*
X0191238Y0047852D01*
X0191085Y0047813D01*
X0190930Y0047777D01*
X0190775Y0047746D01*
X0190619Y0047718D01*
X0190463Y0047694D01*
X0190306Y0047674D01*
X0190148Y0047658D01*
X0189991Y0047646D01*
X0189832Y0047638D01*
X0189674Y0047634D01*
X0189516Y0047634D01*
X0189358Y0047638D01*
X0189199Y0047646D01*
X0189042Y0047658D01*
X0188884Y0047674D01*
X0188727Y0047694D01*
X0188571Y0047718D01*
X0188415Y0047746D01*
X0188260Y0047777D01*
X0188105Y0047813D01*
X0187952Y0047852D01*
X0187800Y0047895D01*
X0187649Y0047942D01*
X0187499Y0047993D01*
X0187350Y0048048D01*
X0187203Y0048106D01*
X0187057Y0048168D01*
X0186913Y0048233D01*
X0186771Y0048303D01*
X0186630Y0048375D01*
X0186491Y0048452D01*
X0186355Y0048531D01*
X0186220Y0048615D01*
X0186087Y0048701D01*
X0185957Y0048791D01*
X0185829Y0048884D01*
X0185703Y0048980D01*
X0185580Y0049080D01*
X0185459Y0049182D01*
X0185341Y0049287D01*
X0185226Y0049396D01*
X0185113Y0049507D01*
X0185003Y0049621D01*
X0184896Y0049738D01*
X0184792Y0049857D01*
X0184691Y0049979D01*
X0184594Y0050104D01*
X0184499Y0050231D01*
X0184408Y0050360D01*
X0184319Y0050491D01*
X0184235Y0050625D01*
X0184153Y0050761D01*
X0184075Y0050898D01*
X0184001Y0051038D01*
X0183930Y0051180D01*
X0183862Y0051323D01*
X0183798Y0051468D01*
X0183738Y0051614D01*
X0183682Y0051762D01*
X0183629Y0051911D01*
X0183580Y0052062D01*
X0183535Y0052214D01*
X0183494Y0052367D01*
X0183456Y0052520D01*
X0183423Y0052675D01*
X0183393Y0052831D01*
X0183367Y0052987D01*
X0183346Y0053144D01*
X0183328Y0053301D01*
X0183314Y0053459D01*
X0183304Y0053617D01*
X0183298Y0053775D01*
X0183296Y0053933D01*
X0156745Y0053933D02*
X0156747Y0054052D01*
X0156753Y0054170D01*
X0156763Y0054288D01*
X0156777Y0054406D01*
X0156794Y0054523D01*
X0156816Y0054640D01*
X0156842Y0054756D01*
X0156871Y0054871D01*
X0156904Y0054985D01*
X0156941Y0055097D01*
X0156982Y0055209D01*
X0157027Y0055319D01*
X0157075Y0055427D01*
X0157127Y0055534D01*
X0157182Y0055639D01*
X0157241Y0055742D01*
X0157303Y0055843D01*
X0157368Y0055942D01*
X0157437Y0056039D01*
X0157509Y0056133D01*
X0157584Y0056225D01*
X0157662Y0056314D01*
X0157743Y0056401D01*
X0157827Y0056485D01*
X0157914Y0056566D01*
X0158003Y0056644D01*
X0158095Y0056719D01*
X0158189Y0056791D01*
X0158286Y0056860D01*
X0158385Y0056925D01*
X0158486Y0056987D01*
X0158589Y0057046D01*
X0158694Y0057101D01*
X0158801Y0057153D01*
X0158909Y0057201D01*
X0159019Y0057246D01*
X0159131Y0057287D01*
X0159243Y0057324D01*
X0159357Y0057357D01*
X0159472Y0057386D01*
X0159588Y0057412D01*
X0159705Y0057434D01*
X0159822Y0057451D01*
X0159940Y0057465D01*
X0160058Y0057475D01*
X0160176Y0057481D01*
X0160295Y0057483D01*
X0160414Y0057481D01*
X0160532Y0057475D01*
X0160650Y0057465D01*
X0160768Y0057451D01*
X0160885Y0057434D01*
X0161002Y0057412D01*
X0161118Y0057386D01*
X0161233Y0057357D01*
X0161347Y0057324D01*
X0161459Y0057287D01*
X0161571Y0057246D01*
X0161681Y0057201D01*
X0161789Y0057153D01*
X0161896Y0057101D01*
X0162001Y0057046D01*
X0162104Y0056987D01*
X0162205Y0056925D01*
X0162304Y0056860D01*
X0162401Y0056791D01*
X0162495Y0056719D01*
X0162587Y0056644D01*
X0162676Y0056566D01*
X0162763Y0056485D01*
X0162847Y0056401D01*
X0162928Y0056314D01*
X0163006Y0056225D01*
X0163081Y0056133D01*
X0163153Y0056039D01*
X0163222Y0055942D01*
X0163287Y0055843D01*
X0163349Y0055742D01*
X0163408Y0055639D01*
X0163463Y0055534D01*
X0163515Y0055427D01*
X0163563Y0055319D01*
X0163608Y0055209D01*
X0163649Y0055097D01*
X0163686Y0054985D01*
X0163719Y0054871D01*
X0163748Y0054756D01*
X0163774Y0054640D01*
X0163796Y0054523D01*
X0163813Y0054406D01*
X0163827Y0054288D01*
X0163837Y0054170D01*
X0163843Y0054052D01*
X0163845Y0053933D01*
X0163843Y0053814D01*
X0163837Y0053696D01*
X0163827Y0053578D01*
X0163813Y0053460D01*
X0163796Y0053343D01*
X0163774Y0053226D01*
X0163748Y0053110D01*
X0163719Y0052995D01*
X0163686Y0052881D01*
X0163649Y0052769D01*
X0163608Y0052657D01*
X0163563Y0052547D01*
X0163515Y0052439D01*
X0163463Y0052332D01*
X0163408Y0052227D01*
X0163349Y0052124D01*
X0163287Y0052023D01*
X0163222Y0051924D01*
X0163153Y0051827D01*
X0163081Y0051733D01*
X0163006Y0051641D01*
X0162928Y0051552D01*
X0162847Y0051465D01*
X0162763Y0051381D01*
X0162676Y0051300D01*
X0162587Y0051222D01*
X0162495Y0051147D01*
X0162401Y0051075D01*
X0162304Y0051006D01*
X0162205Y0050941D01*
X0162104Y0050879D01*
X0162001Y0050820D01*
X0161896Y0050765D01*
X0161789Y0050713D01*
X0161681Y0050665D01*
X0161571Y0050620D01*
X0161459Y0050579D01*
X0161347Y0050542D01*
X0161233Y0050509D01*
X0161118Y0050480D01*
X0161002Y0050454D01*
X0160885Y0050432D01*
X0160768Y0050415D01*
X0160650Y0050401D01*
X0160532Y0050391D01*
X0160414Y0050385D01*
X0160295Y0050383D01*
X0160176Y0050385D01*
X0160058Y0050391D01*
X0159940Y0050401D01*
X0159822Y0050415D01*
X0159705Y0050432D01*
X0159588Y0050454D01*
X0159472Y0050480D01*
X0159357Y0050509D01*
X0159243Y0050542D01*
X0159131Y0050579D01*
X0159019Y0050620D01*
X0158909Y0050665D01*
X0158801Y0050713D01*
X0158694Y0050765D01*
X0158589Y0050820D01*
X0158486Y0050879D01*
X0158385Y0050941D01*
X0158286Y0051006D01*
X0158189Y0051075D01*
X0158095Y0051147D01*
X0158003Y0051222D01*
X0157914Y0051300D01*
X0157827Y0051381D01*
X0157743Y0051465D01*
X0157662Y0051552D01*
X0157584Y0051641D01*
X0157509Y0051733D01*
X0157437Y0051827D01*
X0157368Y0051924D01*
X0157303Y0052023D01*
X0157241Y0052124D01*
X0157182Y0052227D01*
X0157127Y0052332D01*
X0157075Y0052439D01*
X0157027Y0052547D01*
X0156982Y0052657D01*
X0156941Y0052769D01*
X0156904Y0052881D01*
X0156871Y0052995D01*
X0156842Y0053110D01*
X0156816Y0053226D01*
X0156794Y0053343D01*
X0156777Y0053460D01*
X0156763Y0053578D01*
X0156753Y0053696D01*
X0156747Y0053814D01*
X0156745Y0053933D01*
X0171296Y0033933D02*
X0171298Y0034091D01*
X0171304Y0034249D01*
X0171314Y0034407D01*
X0171328Y0034565D01*
X0171346Y0034722D01*
X0171367Y0034879D01*
X0171393Y0035035D01*
X0171423Y0035191D01*
X0171456Y0035346D01*
X0171494Y0035499D01*
X0171535Y0035652D01*
X0171580Y0035804D01*
X0171629Y0035955D01*
X0171682Y0036104D01*
X0171738Y0036252D01*
X0171798Y0036398D01*
X0171862Y0036543D01*
X0171930Y0036686D01*
X0172001Y0036828D01*
X0172075Y0036968D01*
X0172153Y0037105D01*
X0172235Y0037241D01*
X0172319Y0037375D01*
X0172408Y0037506D01*
X0172499Y0037635D01*
X0172594Y0037762D01*
X0172691Y0037887D01*
X0172792Y0038009D01*
X0172896Y0038128D01*
X0173003Y0038245D01*
X0173113Y0038359D01*
X0173226Y0038470D01*
X0173341Y0038579D01*
X0173459Y0038684D01*
X0173580Y0038786D01*
X0173703Y0038886D01*
X0173829Y0038982D01*
X0173957Y0039075D01*
X0174087Y0039165D01*
X0174220Y0039251D01*
X0174355Y0039335D01*
X0174491Y0039414D01*
X0174630Y0039491D01*
X0174771Y0039563D01*
X0174913Y0039633D01*
X0175057Y0039698D01*
X0175203Y0039760D01*
X0175350Y0039818D01*
X0175499Y0039873D01*
X0175649Y0039924D01*
X0175800Y0039971D01*
X0175952Y0040014D01*
X0176105Y0040053D01*
X0176260Y0040089D01*
X0176415Y0040120D01*
X0176571Y0040148D01*
X0176727Y0040172D01*
X0176884Y0040192D01*
X0177042Y0040208D01*
X0177199Y0040220D01*
X0177358Y0040228D01*
X0177516Y0040232D01*
X0177674Y0040232D01*
X0177832Y0040228D01*
X0177991Y0040220D01*
X0178148Y0040208D01*
X0178306Y0040192D01*
X0178463Y0040172D01*
X0178619Y0040148D01*
X0178775Y0040120D01*
X0178930Y0040089D01*
X0179085Y0040053D01*
X0179238Y0040014D01*
X0179390Y0039971D01*
X0179541Y0039924D01*
X0179691Y0039873D01*
X0179840Y0039818D01*
X0179987Y0039760D01*
X0180133Y0039698D01*
X0180277Y0039633D01*
X0180419Y0039563D01*
X0180560Y0039491D01*
X0180699Y0039414D01*
X0180835Y0039335D01*
X0180970Y0039251D01*
X0181103Y0039165D01*
X0181233Y0039075D01*
X0181361Y0038982D01*
X0181487Y0038886D01*
X0181610Y0038786D01*
X0181731Y0038684D01*
X0181849Y0038579D01*
X0181964Y0038470D01*
X0182077Y0038359D01*
X0182187Y0038245D01*
X0182294Y0038128D01*
X0182398Y0038009D01*
X0182499Y0037887D01*
X0182596Y0037762D01*
X0182691Y0037635D01*
X0182782Y0037506D01*
X0182871Y0037375D01*
X0182955Y0037241D01*
X0183037Y0037105D01*
X0183115Y0036968D01*
X0183189Y0036828D01*
X0183260Y0036686D01*
X0183328Y0036543D01*
X0183392Y0036398D01*
X0183452Y0036252D01*
X0183508Y0036104D01*
X0183561Y0035955D01*
X0183610Y0035804D01*
X0183655Y0035652D01*
X0183696Y0035499D01*
X0183734Y0035346D01*
X0183767Y0035191D01*
X0183797Y0035035D01*
X0183823Y0034879D01*
X0183844Y0034722D01*
X0183862Y0034565D01*
X0183876Y0034407D01*
X0183886Y0034249D01*
X0183892Y0034091D01*
X0183894Y0033933D01*
X0183892Y0033775D01*
X0183886Y0033617D01*
X0183876Y0033459D01*
X0183862Y0033301D01*
X0183844Y0033144D01*
X0183823Y0032987D01*
X0183797Y0032831D01*
X0183767Y0032675D01*
X0183734Y0032520D01*
X0183696Y0032367D01*
X0183655Y0032214D01*
X0183610Y0032062D01*
X0183561Y0031911D01*
X0183508Y0031762D01*
X0183452Y0031614D01*
X0183392Y0031468D01*
X0183328Y0031323D01*
X0183260Y0031180D01*
X0183189Y0031038D01*
X0183115Y0030898D01*
X0183037Y0030761D01*
X0182955Y0030625D01*
X0182871Y0030491D01*
X0182782Y0030360D01*
X0182691Y0030231D01*
X0182596Y0030104D01*
X0182499Y0029979D01*
X0182398Y0029857D01*
X0182294Y0029738D01*
X0182187Y0029621D01*
X0182077Y0029507D01*
X0181964Y0029396D01*
X0181849Y0029287D01*
X0181731Y0029182D01*
X0181610Y0029080D01*
X0181487Y0028980D01*
X0181361Y0028884D01*
X0181233Y0028791D01*
X0181103Y0028701D01*
X0180970Y0028615D01*
X0180835Y0028531D01*
X0180699Y0028452D01*
X0180560Y0028375D01*
X0180419Y0028303D01*
X0180277Y0028233D01*
X0180133Y0028168D01*
X0179987Y0028106D01*
X0179840Y0028048D01*
X0179691Y0027993D01*
X0179541Y0027942D01*
X0179390Y0027895D01*
X0179238Y0027852D01*
X0179085Y0027813D01*
X0178930Y0027777D01*
X0178775Y0027746D01*
X0178619Y0027718D01*
X0178463Y0027694D01*
X0178306Y0027674D01*
X0178148Y0027658D01*
X0177991Y0027646D01*
X0177832Y0027638D01*
X0177674Y0027634D01*
X0177516Y0027634D01*
X0177358Y0027638D01*
X0177199Y0027646D01*
X0177042Y0027658D01*
X0176884Y0027674D01*
X0176727Y0027694D01*
X0176571Y0027718D01*
X0176415Y0027746D01*
X0176260Y0027777D01*
X0176105Y0027813D01*
X0175952Y0027852D01*
X0175800Y0027895D01*
X0175649Y0027942D01*
X0175499Y0027993D01*
X0175350Y0028048D01*
X0175203Y0028106D01*
X0175057Y0028168D01*
X0174913Y0028233D01*
X0174771Y0028303D01*
X0174630Y0028375D01*
X0174491Y0028452D01*
X0174355Y0028531D01*
X0174220Y0028615D01*
X0174087Y0028701D01*
X0173957Y0028791D01*
X0173829Y0028884D01*
X0173703Y0028980D01*
X0173580Y0029080D01*
X0173459Y0029182D01*
X0173341Y0029287D01*
X0173226Y0029396D01*
X0173113Y0029507D01*
X0173003Y0029621D01*
X0172896Y0029738D01*
X0172792Y0029857D01*
X0172691Y0029979D01*
X0172594Y0030104D01*
X0172499Y0030231D01*
X0172408Y0030360D01*
X0172319Y0030491D01*
X0172235Y0030625D01*
X0172153Y0030761D01*
X0172075Y0030898D01*
X0172001Y0031038D01*
X0171930Y0031180D01*
X0171862Y0031323D01*
X0171798Y0031468D01*
X0171738Y0031614D01*
X0171682Y0031762D01*
X0171629Y0031911D01*
X0171580Y0032062D01*
X0171535Y0032214D01*
X0171494Y0032367D01*
X0171456Y0032520D01*
X0171423Y0032675D01*
X0171393Y0032831D01*
X0171367Y0032987D01*
X0171346Y0033144D01*
X0171328Y0033301D01*
X0171314Y0033459D01*
X0171304Y0033617D01*
X0171298Y0033775D01*
X0171296Y0033933D01*
D11*
X0167595Y0034933D02*
X0167595Y0046933D01*
X0166595Y0046933D01*
X0166595Y0049933D01*
X0168095Y0049933D01*
X0168095Y0057933D01*
X0166595Y0057933D01*
X0166595Y0060933D01*
X0167595Y0060933D01*
X0167595Y0072933D01*
X0166595Y0073933D01*
X0162595Y0077933D01*
X0157595Y0077933D01*
X0166595Y0073933D02*
X0166595Y0060933D01*
X0166595Y0057933D02*
X0166595Y0049933D01*
X0166595Y0046933D02*
X0166595Y0033933D01*
X0167595Y0034933D01*
X0166595Y0033933D02*
X0162595Y0029933D01*
X0157595Y0029933D01*
X0147095Y0029933D02*
X0138095Y0029933D01*
X0127595Y0029933D02*
X0122595Y0029933D01*
X0118595Y0033933D01*
X0117595Y0034933D01*
X0117595Y0046933D01*
X0118595Y0046933D01*
X0118595Y0033933D01*
X0118595Y0046933D02*
X0118595Y0049933D01*
X0118595Y0057933D01*
X0118595Y0060933D01*
X0117595Y0060933D01*
X0117595Y0072933D01*
X0118595Y0073933D01*
X0118595Y0060933D01*
X0118595Y0057933D02*
X0117095Y0057933D01*
X0117095Y0049933D01*
X0118595Y0049933D01*
X0135095Y0046433D02*
X0135095Y0061433D01*
X0150095Y0061433D01*
X0150095Y0046433D01*
X0135095Y0046433D01*
X0128595Y0053933D02*
X0128599Y0054277D01*
X0128612Y0054620D01*
X0128633Y0054963D01*
X0128662Y0055305D01*
X0128700Y0055647D01*
X0128747Y0055987D01*
X0128801Y0056326D01*
X0128864Y0056664D01*
X0128935Y0057000D01*
X0129015Y0057335D01*
X0129102Y0057667D01*
X0129198Y0057997D01*
X0129302Y0058325D01*
X0129413Y0058649D01*
X0129533Y0058972D01*
X0129661Y0059291D01*
X0129796Y0059606D01*
X0129939Y0059919D01*
X0130090Y0060228D01*
X0130248Y0060533D01*
X0130414Y0060834D01*
X0130587Y0061130D01*
X0130767Y0061423D01*
X0130954Y0061711D01*
X0131149Y0061994D01*
X0131350Y0062273D01*
X0131558Y0062546D01*
X0131773Y0062815D01*
X0131994Y0063077D01*
X0132222Y0063335D01*
X0132456Y0063587D01*
X0132696Y0063832D01*
X0132941Y0064072D01*
X0133193Y0064306D01*
X0133451Y0064534D01*
X0133713Y0064755D01*
X0133982Y0064970D01*
X0134255Y0065178D01*
X0134534Y0065379D01*
X0134817Y0065574D01*
X0135105Y0065761D01*
X0135398Y0065941D01*
X0135694Y0066114D01*
X0135995Y0066280D01*
X0136300Y0066438D01*
X0136609Y0066589D01*
X0136922Y0066732D01*
X0137237Y0066867D01*
X0137556Y0066995D01*
X0137879Y0067115D01*
X0138203Y0067226D01*
X0138531Y0067330D01*
X0138861Y0067426D01*
X0139193Y0067513D01*
X0139528Y0067593D01*
X0139864Y0067664D01*
X0140202Y0067727D01*
X0140541Y0067781D01*
X0140881Y0067828D01*
X0141223Y0067866D01*
X0141565Y0067895D01*
X0141908Y0067916D01*
X0142251Y0067929D01*
X0142595Y0067933D01*
X0142939Y0067929D01*
X0143282Y0067916D01*
X0143625Y0067895D01*
X0143967Y0067866D01*
X0144309Y0067828D01*
X0144649Y0067781D01*
X0144988Y0067727D01*
X0145326Y0067664D01*
X0145662Y0067593D01*
X0145997Y0067513D01*
X0146329Y0067426D01*
X0146659Y0067330D01*
X0146987Y0067226D01*
X0147311Y0067115D01*
X0147634Y0066995D01*
X0147953Y0066867D01*
X0148268Y0066732D01*
X0148581Y0066589D01*
X0148890Y0066438D01*
X0149195Y0066280D01*
X0149496Y0066114D01*
X0149792Y0065941D01*
X0150085Y0065761D01*
X0150373Y0065574D01*
X0150656Y0065379D01*
X0150935Y0065178D01*
X0151208Y0064970D01*
X0151477Y0064755D01*
X0151739Y0064534D01*
X0151997Y0064306D01*
X0152249Y0064072D01*
X0152494Y0063832D01*
X0152734Y0063587D01*
X0152968Y0063335D01*
X0153196Y0063077D01*
X0153417Y0062815D01*
X0153632Y0062546D01*
X0153840Y0062273D01*
X0154041Y0061994D01*
X0154236Y0061711D01*
X0154423Y0061423D01*
X0154603Y0061130D01*
X0154776Y0060834D01*
X0154942Y0060533D01*
X0155100Y0060228D01*
X0155251Y0059919D01*
X0155394Y0059606D01*
X0155529Y0059291D01*
X0155657Y0058972D01*
X0155777Y0058649D01*
X0155888Y0058325D01*
X0155992Y0057997D01*
X0156088Y0057667D01*
X0156175Y0057335D01*
X0156255Y0057000D01*
X0156326Y0056664D01*
X0156389Y0056326D01*
X0156443Y0055987D01*
X0156490Y0055647D01*
X0156528Y0055305D01*
X0156557Y0054963D01*
X0156578Y0054620D01*
X0156591Y0054277D01*
X0156595Y0053933D01*
X0156591Y0053589D01*
X0156578Y0053246D01*
X0156557Y0052903D01*
X0156528Y0052561D01*
X0156490Y0052219D01*
X0156443Y0051879D01*
X0156389Y0051540D01*
X0156326Y0051202D01*
X0156255Y0050866D01*
X0156175Y0050531D01*
X0156088Y0050199D01*
X0155992Y0049869D01*
X0155888Y0049541D01*
X0155777Y0049217D01*
X0155657Y0048894D01*
X0155529Y0048575D01*
X0155394Y0048260D01*
X0155251Y0047947D01*
X0155100Y0047638D01*
X0154942Y0047333D01*
X0154776Y0047032D01*
X0154603Y0046736D01*
X0154423Y0046443D01*
X0154236Y0046155D01*
X0154041Y0045872D01*
X0153840Y0045593D01*
X0153632Y0045320D01*
X0153417Y0045051D01*
X0153196Y0044789D01*
X0152968Y0044531D01*
X0152734Y0044279D01*
X0152494Y0044034D01*
X0152249Y0043794D01*
X0151997Y0043560D01*
X0151739Y0043332D01*
X0151477Y0043111D01*
X0151208Y0042896D01*
X0150935Y0042688D01*
X0150656Y0042487D01*
X0150373Y0042292D01*
X0150085Y0042105D01*
X0149792Y0041925D01*
X0149496Y0041752D01*
X0149195Y0041586D01*
X0148890Y0041428D01*
X0148581Y0041277D01*
X0148268Y0041134D01*
X0147953Y0040999D01*
X0147634Y0040871D01*
X0147311Y0040751D01*
X0146987Y0040640D01*
X0146659Y0040536D01*
X0146329Y0040440D01*
X0145997Y0040353D01*
X0145662Y0040273D01*
X0145326Y0040202D01*
X0144988Y0040139D01*
X0144649Y0040085D01*
X0144309Y0040038D01*
X0143967Y0040000D01*
X0143625Y0039971D01*
X0143282Y0039950D01*
X0142939Y0039937D01*
X0142595Y0039933D01*
X0142251Y0039937D01*
X0141908Y0039950D01*
X0141565Y0039971D01*
X0141223Y0040000D01*
X0140881Y0040038D01*
X0140541Y0040085D01*
X0140202Y0040139D01*
X0139864Y0040202D01*
X0139528Y0040273D01*
X0139193Y0040353D01*
X0138861Y0040440D01*
X0138531Y0040536D01*
X0138203Y0040640D01*
X0137879Y0040751D01*
X0137556Y0040871D01*
X0137237Y0040999D01*
X0136922Y0041134D01*
X0136609Y0041277D01*
X0136300Y0041428D01*
X0135995Y0041586D01*
X0135694Y0041752D01*
X0135398Y0041925D01*
X0135105Y0042105D01*
X0134817Y0042292D01*
X0134534Y0042487D01*
X0134255Y0042688D01*
X0133982Y0042896D01*
X0133713Y0043111D01*
X0133451Y0043332D01*
X0133193Y0043560D01*
X0132941Y0043794D01*
X0132696Y0044034D01*
X0132456Y0044279D01*
X0132222Y0044531D01*
X0131994Y0044789D01*
X0131773Y0045051D01*
X0131558Y0045320D01*
X0131350Y0045593D01*
X0131149Y0045872D01*
X0130954Y0046155D01*
X0130767Y0046443D01*
X0130587Y0046736D01*
X0130414Y0047032D01*
X0130248Y0047333D01*
X0130090Y0047638D01*
X0129939Y0047947D01*
X0129796Y0048260D01*
X0129661Y0048575D01*
X0129533Y0048894D01*
X0129413Y0049217D01*
X0129302Y0049541D01*
X0129198Y0049869D01*
X0129102Y0050199D01*
X0129015Y0050531D01*
X0128935Y0050866D01*
X0128864Y0051202D01*
X0128801Y0051540D01*
X0128747Y0051879D01*
X0128700Y0052219D01*
X0128662Y0052561D01*
X0128633Y0052903D01*
X0128612Y0053246D01*
X0128599Y0053589D01*
X0128595Y0053933D01*
X0118595Y0073933D02*
X0122595Y0077933D01*
X0127595Y0077933D01*
X0138095Y0077933D02*
X0147095Y0077933D01*
X0170595Y0081933D02*
X0170595Y0086933D01*
X0173095Y0089433D01*
X0170595Y0091933D01*
X0170595Y0096933D01*
X0173095Y0099433D01*
X0170595Y0101933D01*
X0170595Y0106933D01*
X0173095Y0109433D01*
X0170595Y0111933D01*
X0170595Y0116933D01*
X0173095Y0119433D01*
X0178095Y0119433D01*
X0180595Y0116933D01*
X0180595Y0111933D01*
X0178095Y0109433D01*
X0180595Y0106933D01*
X0180595Y0101933D01*
X0178095Y0099433D01*
X0180595Y0096933D01*
X0180595Y0091933D01*
X0178095Y0089433D01*
X0180595Y0086933D01*
X0180595Y0081933D01*
X0178095Y0079433D01*
X0173095Y0079433D01*
X0170595Y0081933D01*
X0162595Y0119433D02*
X0157595Y0119433D01*
X0162595Y0119433D02*
X0166595Y0123433D01*
X0167595Y0124433D01*
X0167595Y0136433D01*
X0166595Y0136433D01*
X0166595Y0139433D01*
X0168095Y0139433D01*
X0168095Y0147433D01*
X0166595Y0147433D01*
X0166595Y0150433D01*
X0167595Y0150433D01*
X0167595Y0162433D01*
X0166595Y0163433D01*
X0162595Y0167433D01*
X0157595Y0167433D01*
X0166595Y0163433D02*
X0166595Y0150433D01*
X0166595Y0147433D02*
X0166595Y0139433D01*
X0166595Y0136433D02*
X0166595Y0123433D01*
X0150095Y0135933D02*
X0135095Y0135933D01*
X0135095Y0150933D01*
X0150095Y0150933D01*
X0150095Y0135933D01*
X0128595Y0143433D02*
X0128599Y0143777D01*
X0128612Y0144120D01*
X0128633Y0144463D01*
X0128662Y0144805D01*
X0128700Y0145147D01*
X0128747Y0145487D01*
X0128801Y0145826D01*
X0128864Y0146164D01*
X0128935Y0146500D01*
X0129015Y0146835D01*
X0129102Y0147167D01*
X0129198Y0147497D01*
X0129302Y0147825D01*
X0129413Y0148149D01*
X0129533Y0148472D01*
X0129661Y0148791D01*
X0129796Y0149106D01*
X0129939Y0149419D01*
X0130090Y0149728D01*
X0130248Y0150033D01*
X0130414Y0150334D01*
X0130587Y0150630D01*
X0130767Y0150923D01*
X0130954Y0151211D01*
X0131149Y0151494D01*
X0131350Y0151773D01*
X0131558Y0152046D01*
X0131773Y0152315D01*
X0131994Y0152577D01*
X0132222Y0152835D01*
X0132456Y0153087D01*
X0132696Y0153332D01*
X0132941Y0153572D01*
X0133193Y0153806D01*
X0133451Y0154034D01*
X0133713Y0154255D01*
X0133982Y0154470D01*
X0134255Y0154678D01*
X0134534Y0154879D01*
X0134817Y0155074D01*
X0135105Y0155261D01*
X0135398Y0155441D01*
X0135694Y0155614D01*
X0135995Y0155780D01*
X0136300Y0155938D01*
X0136609Y0156089D01*
X0136922Y0156232D01*
X0137237Y0156367D01*
X0137556Y0156495D01*
X0137879Y0156615D01*
X0138203Y0156726D01*
X0138531Y0156830D01*
X0138861Y0156926D01*
X0139193Y0157013D01*
X0139528Y0157093D01*
X0139864Y0157164D01*
X0140202Y0157227D01*
X0140541Y0157281D01*
X0140881Y0157328D01*
X0141223Y0157366D01*
X0141565Y0157395D01*
X0141908Y0157416D01*
X0142251Y0157429D01*
X0142595Y0157433D01*
X0142939Y0157429D01*
X0143282Y0157416D01*
X0143625Y0157395D01*
X0143967Y0157366D01*
X0144309Y0157328D01*
X0144649Y0157281D01*
X0144988Y0157227D01*
X0145326Y0157164D01*
X0145662Y0157093D01*
X0145997Y0157013D01*
X0146329Y0156926D01*
X0146659Y0156830D01*
X0146987Y0156726D01*
X0147311Y0156615D01*
X0147634Y0156495D01*
X0147953Y0156367D01*
X0148268Y0156232D01*
X0148581Y0156089D01*
X0148890Y0155938D01*
X0149195Y0155780D01*
X0149496Y0155614D01*
X0149792Y0155441D01*
X0150085Y0155261D01*
X0150373Y0155074D01*
X0150656Y0154879D01*
X0150935Y0154678D01*
X0151208Y0154470D01*
X0151477Y0154255D01*
X0151739Y0154034D01*
X0151997Y0153806D01*
X0152249Y0153572D01*
X0152494Y0153332D01*
X0152734Y0153087D01*
X0152968Y0152835D01*
X0153196Y0152577D01*
X0153417Y0152315D01*
X0153632Y0152046D01*
X0153840Y0151773D01*
X0154041Y0151494D01*
X0154236Y0151211D01*
X0154423Y0150923D01*
X0154603Y0150630D01*
X0154776Y0150334D01*
X0154942Y0150033D01*
X0155100Y0149728D01*
X0155251Y0149419D01*
X0155394Y0149106D01*
X0155529Y0148791D01*
X0155657Y0148472D01*
X0155777Y0148149D01*
X0155888Y0147825D01*
X0155992Y0147497D01*
X0156088Y0147167D01*
X0156175Y0146835D01*
X0156255Y0146500D01*
X0156326Y0146164D01*
X0156389Y0145826D01*
X0156443Y0145487D01*
X0156490Y0145147D01*
X0156528Y0144805D01*
X0156557Y0144463D01*
X0156578Y0144120D01*
X0156591Y0143777D01*
X0156595Y0143433D01*
X0156591Y0143089D01*
X0156578Y0142746D01*
X0156557Y0142403D01*
X0156528Y0142061D01*
X0156490Y0141719D01*
X0156443Y0141379D01*
X0156389Y0141040D01*
X0156326Y0140702D01*
X0156255Y0140366D01*
X0156175Y0140031D01*
X0156088Y0139699D01*
X0155992Y0139369D01*
X0155888Y0139041D01*
X0155777Y0138717D01*
X0155657Y0138394D01*
X0155529Y0138075D01*
X0155394Y0137760D01*
X0155251Y0137447D01*
X0155100Y0137138D01*
X0154942Y0136833D01*
X0154776Y0136532D01*
X0154603Y0136236D01*
X0154423Y0135943D01*
X0154236Y0135655D01*
X0154041Y0135372D01*
X0153840Y0135093D01*
X0153632Y0134820D01*
X0153417Y0134551D01*
X0153196Y0134289D01*
X0152968Y0134031D01*
X0152734Y0133779D01*
X0152494Y0133534D01*
X0152249Y0133294D01*
X0151997Y0133060D01*
X0151739Y0132832D01*
X0151477Y0132611D01*
X0151208Y0132396D01*
X0150935Y0132188D01*
X0150656Y0131987D01*
X0150373Y0131792D01*
X0150085Y0131605D01*
X0149792Y0131425D01*
X0149496Y0131252D01*
X0149195Y0131086D01*
X0148890Y0130928D01*
X0148581Y0130777D01*
X0148268Y0130634D01*
X0147953Y0130499D01*
X0147634Y0130371D01*
X0147311Y0130251D01*
X0146987Y0130140D01*
X0146659Y0130036D01*
X0146329Y0129940D01*
X0145997Y0129853D01*
X0145662Y0129773D01*
X0145326Y0129702D01*
X0144988Y0129639D01*
X0144649Y0129585D01*
X0144309Y0129538D01*
X0143967Y0129500D01*
X0143625Y0129471D01*
X0143282Y0129450D01*
X0142939Y0129437D01*
X0142595Y0129433D01*
X0142251Y0129437D01*
X0141908Y0129450D01*
X0141565Y0129471D01*
X0141223Y0129500D01*
X0140881Y0129538D01*
X0140541Y0129585D01*
X0140202Y0129639D01*
X0139864Y0129702D01*
X0139528Y0129773D01*
X0139193Y0129853D01*
X0138861Y0129940D01*
X0138531Y0130036D01*
X0138203Y0130140D01*
X0137879Y0130251D01*
X0137556Y0130371D01*
X0137237Y0130499D01*
X0136922Y0130634D01*
X0136609Y0130777D01*
X0136300Y0130928D01*
X0135995Y0131086D01*
X0135694Y0131252D01*
X0135398Y0131425D01*
X0135105Y0131605D01*
X0134817Y0131792D01*
X0134534Y0131987D01*
X0134255Y0132188D01*
X0133982Y0132396D01*
X0133713Y0132611D01*
X0133451Y0132832D01*
X0133193Y0133060D01*
X0132941Y0133294D01*
X0132696Y0133534D01*
X0132456Y0133779D01*
X0132222Y0134031D01*
X0131994Y0134289D01*
X0131773Y0134551D01*
X0131558Y0134820D01*
X0131350Y0135093D01*
X0131149Y0135372D01*
X0130954Y0135655D01*
X0130767Y0135943D01*
X0130587Y0136236D01*
X0130414Y0136532D01*
X0130248Y0136833D01*
X0130090Y0137138D01*
X0129939Y0137447D01*
X0129796Y0137760D01*
X0129661Y0138075D01*
X0129533Y0138394D01*
X0129413Y0138717D01*
X0129302Y0139041D01*
X0129198Y0139369D01*
X0129102Y0139699D01*
X0129015Y0140031D01*
X0128935Y0140366D01*
X0128864Y0140702D01*
X0128801Y0141040D01*
X0128747Y0141379D01*
X0128700Y0141719D01*
X0128662Y0142061D01*
X0128633Y0142403D01*
X0128612Y0142746D01*
X0128599Y0143089D01*
X0128595Y0143433D01*
X0118595Y0139433D02*
X0118595Y0136433D01*
X0118595Y0123433D01*
X0117595Y0124433D01*
X0117595Y0136433D01*
X0118595Y0136433D01*
X0118595Y0139433D02*
X0117095Y0139433D01*
X0117095Y0147433D01*
X0118595Y0147433D01*
X0118595Y0150433D01*
X0117595Y0150433D01*
X0117595Y0162433D01*
X0118595Y0163433D01*
X0118595Y0150433D01*
X0118595Y0147433D02*
X0118595Y0139433D01*
X0118595Y0123433D02*
X0122595Y0119433D01*
X0127595Y0119433D01*
X0138095Y0119433D02*
X0147095Y0119433D01*
X0118595Y0163433D02*
X0122595Y0167433D01*
X0127595Y0167433D01*
X0138095Y0167433D02*
X0147095Y0167433D01*
D12*
X0149095Y0149933D02*
X0136095Y0149933D01*
X0136095Y0136933D01*
X0149095Y0136933D01*
X0149095Y0149933D01*
X0139595Y0143433D02*
X0139597Y0143542D01*
X0139603Y0143651D01*
X0139613Y0143759D01*
X0139627Y0143867D01*
X0139644Y0143975D01*
X0139666Y0144082D01*
X0139691Y0144188D01*
X0139721Y0144292D01*
X0139754Y0144396D01*
X0139791Y0144499D01*
X0139831Y0144600D01*
X0139875Y0144699D01*
X0139923Y0144797D01*
X0139975Y0144894D01*
X0140029Y0144988D01*
X0140087Y0145080D01*
X0140149Y0145170D01*
X0140214Y0145257D01*
X0140281Y0145343D01*
X0140352Y0145426D01*
X0140426Y0145506D01*
X0140503Y0145583D01*
X0140582Y0145658D01*
X0140664Y0145729D01*
X0140749Y0145798D01*
X0140836Y0145863D01*
X0140925Y0145926D01*
X0141017Y0145984D01*
X0141111Y0146040D01*
X0141206Y0146092D01*
X0141304Y0146141D01*
X0141403Y0146186D01*
X0141504Y0146228D01*
X0141606Y0146265D01*
X0141709Y0146299D01*
X0141814Y0146330D01*
X0141920Y0146356D01*
X0142026Y0146379D01*
X0142134Y0146397D01*
X0142242Y0146412D01*
X0142350Y0146423D01*
X0142459Y0146430D01*
X0142568Y0146433D01*
X0142677Y0146432D01*
X0142786Y0146427D01*
X0142894Y0146418D01*
X0143002Y0146405D01*
X0143110Y0146388D01*
X0143217Y0146368D01*
X0143323Y0146343D01*
X0143428Y0146315D01*
X0143532Y0146283D01*
X0143635Y0146247D01*
X0143737Y0146207D01*
X0143837Y0146164D01*
X0143935Y0146117D01*
X0144032Y0146067D01*
X0144126Y0146013D01*
X0144219Y0145955D01*
X0144310Y0145895D01*
X0144398Y0145831D01*
X0144484Y0145764D01*
X0144567Y0145694D01*
X0144648Y0145621D01*
X0144726Y0145545D01*
X0144801Y0145466D01*
X0144874Y0145384D01*
X0144943Y0145300D01*
X0145009Y0145214D01*
X0145072Y0145125D01*
X0145132Y0145034D01*
X0145189Y0144941D01*
X0145242Y0144846D01*
X0145291Y0144749D01*
X0145337Y0144650D01*
X0145379Y0144550D01*
X0145418Y0144448D01*
X0145453Y0144344D01*
X0145484Y0144240D01*
X0145512Y0144135D01*
X0145535Y0144028D01*
X0145555Y0143921D01*
X0145571Y0143813D01*
X0145583Y0143705D01*
X0145591Y0143596D01*
X0145595Y0143487D01*
X0145595Y0143379D01*
X0145591Y0143270D01*
X0145583Y0143161D01*
X0145571Y0143053D01*
X0145555Y0142945D01*
X0145535Y0142838D01*
X0145512Y0142731D01*
X0145484Y0142626D01*
X0145453Y0142522D01*
X0145418Y0142418D01*
X0145379Y0142316D01*
X0145337Y0142216D01*
X0145291Y0142117D01*
X0145242Y0142020D01*
X0145189Y0141925D01*
X0145132Y0141832D01*
X0145072Y0141741D01*
X0145009Y0141652D01*
X0144943Y0141566D01*
X0144874Y0141482D01*
X0144801Y0141400D01*
X0144726Y0141321D01*
X0144648Y0141245D01*
X0144567Y0141172D01*
X0144484Y0141102D01*
X0144398Y0141035D01*
X0144310Y0140971D01*
X0144219Y0140911D01*
X0144126Y0140853D01*
X0144032Y0140799D01*
X0143935Y0140749D01*
X0143837Y0140702D01*
X0143737Y0140659D01*
X0143635Y0140619D01*
X0143532Y0140583D01*
X0143428Y0140551D01*
X0143323Y0140523D01*
X0143217Y0140498D01*
X0143110Y0140478D01*
X0143002Y0140461D01*
X0142894Y0140448D01*
X0142786Y0140439D01*
X0142677Y0140434D01*
X0142568Y0140433D01*
X0142459Y0140436D01*
X0142350Y0140443D01*
X0142242Y0140454D01*
X0142134Y0140469D01*
X0142026Y0140487D01*
X0141920Y0140510D01*
X0141814Y0140536D01*
X0141709Y0140567D01*
X0141606Y0140601D01*
X0141504Y0140638D01*
X0141403Y0140680D01*
X0141304Y0140725D01*
X0141206Y0140774D01*
X0141111Y0140826D01*
X0141017Y0140882D01*
X0140925Y0140940D01*
X0140836Y0141003D01*
X0140749Y0141068D01*
X0140664Y0141137D01*
X0140582Y0141208D01*
X0140503Y0141283D01*
X0140426Y0141360D01*
X0140352Y0141440D01*
X0140281Y0141523D01*
X0140214Y0141609D01*
X0140149Y0141696D01*
X0140087Y0141786D01*
X0140029Y0141878D01*
X0139975Y0141972D01*
X0139923Y0142069D01*
X0139875Y0142167D01*
X0139831Y0142266D01*
X0139791Y0142367D01*
X0139754Y0142470D01*
X0139721Y0142574D01*
X0139691Y0142678D01*
X0139666Y0142784D01*
X0139644Y0142891D01*
X0139627Y0142999D01*
X0139613Y0143107D01*
X0139603Y0143215D01*
X0139597Y0143324D01*
X0139595Y0143433D01*
X0138595Y0143433D02*
X0138597Y0143559D01*
X0138603Y0143685D01*
X0138613Y0143811D01*
X0138627Y0143937D01*
X0138645Y0144062D01*
X0138667Y0144186D01*
X0138692Y0144310D01*
X0138722Y0144433D01*
X0138755Y0144554D01*
X0138793Y0144675D01*
X0138834Y0144794D01*
X0138879Y0144913D01*
X0138927Y0145029D01*
X0138979Y0145144D01*
X0139035Y0145257D01*
X0139095Y0145369D01*
X0139158Y0145478D01*
X0139224Y0145586D01*
X0139293Y0145691D01*
X0139366Y0145794D01*
X0139443Y0145895D01*
X0139522Y0145993D01*
X0139604Y0146089D01*
X0139690Y0146182D01*
X0139778Y0146273D01*
X0139869Y0146360D01*
X0139963Y0146445D01*
X0140059Y0146526D01*
X0140158Y0146605D01*
X0140259Y0146680D01*
X0140363Y0146752D01*
X0140469Y0146821D01*
X0140577Y0146887D01*
X0140687Y0146949D01*
X0140799Y0147007D01*
X0140912Y0147062D01*
X0141028Y0147113D01*
X0141145Y0147161D01*
X0141263Y0147205D01*
X0141383Y0147245D01*
X0141504Y0147281D01*
X0141626Y0147314D01*
X0141749Y0147343D01*
X0141873Y0147367D01*
X0141997Y0147388D01*
X0142122Y0147405D01*
X0142248Y0147418D01*
X0142374Y0147427D01*
X0142500Y0147432D01*
X0142627Y0147433D01*
X0142753Y0147430D01*
X0142879Y0147423D01*
X0143005Y0147412D01*
X0143130Y0147397D01*
X0143255Y0147378D01*
X0143379Y0147355D01*
X0143503Y0147329D01*
X0143625Y0147298D01*
X0143747Y0147264D01*
X0143867Y0147225D01*
X0143986Y0147183D01*
X0144104Y0147138D01*
X0144220Y0147088D01*
X0144335Y0147035D01*
X0144447Y0146978D01*
X0144558Y0146918D01*
X0144667Y0146854D01*
X0144774Y0146787D01*
X0144879Y0146717D01*
X0144982Y0146643D01*
X0145082Y0146566D01*
X0145180Y0146486D01*
X0145275Y0146403D01*
X0145367Y0146317D01*
X0145457Y0146228D01*
X0145544Y0146136D01*
X0145627Y0146042D01*
X0145708Y0145945D01*
X0145786Y0145845D01*
X0145861Y0145743D01*
X0145932Y0145639D01*
X0146000Y0145532D01*
X0146064Y0145424D01*
X0146125Y0145313D01*
X0146183Y0145201D01*
X0146237Y0145087D01*
X0146287Y0144971D01*
X0146334Y0144854D01*
X0146377Y0144735D01*
X0146416Y0144615D01*
X0146452Y0144494D01*
X0146483Y0144371D01*
X0146511Y0144248D01*
X0146535Y0144124D01*
X0146555Y0143999D01*
X0146571Y0143874D01*
X0146583Y0143748D01*
X0146591Y0143622D01*
X0146595Y0143496D01*
X0146595Y0143370D01*
X0146591Y0143244D01*
X0146583Y0143118D01*
X0146571Y0142992D01*
X0146555Y0142867D01*
X0146535Y0142742D01*
X0146511Y0142618D01*
X0146483Y0142495D01*
X0146452Y0142372D01*
X0146416Y0142251D01*
X0146377Y0142131D01*
X0146334Y0142012D01*
X0146287Y0141895D01*
X0146237Y0141779D01*
X0146183Y0141665D01*
X0146125Y0141553D01*
X0146064Y0141442D01*
X0146000Y0141334D01*
X0145932Y0141227D01*
X0145861Y0141123D01*
X0145786Y0141021D01*
X0145708Y0140921D01*
X0145627Y0140824D01*
X0145544Y0140730D01*
X0145457Y0140638D01*
X0145367Y0140549D01*
X0145275Y0140463D01*
X0145180Y0140380D01*
X0145082Y0140300D01*
X0144982Y0140223D01*
X0144879Y0140149D01*
X0144774Y0140079D01*
X0144667Y0140012D01*
X0144558Y0139948D01*
X0144447Y0139888D01*
X0144335Y0139831D01*
X0144220Y0139778D01*
X0144104Y0139728D01*
X0143986Y0139683D01*
X0143867Y0139641D01*
X0143747Y0139602D01*
X0143625Y0139568D01*
X0143503Y0139537D01*
X0143379Y0139511D01*
X0143255Y0139488D01*
X0143130Y0139469D01*
X0143005Y0139454D01*
X0142879Y0139443D01*
X0142753Y0139436D01*
X0142627Y0139433D01*
X0142500Y0139434D01*
X0142374Y0139439D01*
X0142248Y0139448D01*
X0142122Y0139461D01*
X0141997Y0139478D01*
X0141873Y0139499D01*
X0141749Y0139523D01*
X0141626Y0139552D01*
X0141504Y0139585D01*
X0141383Y0139621D01*
X0141263Y0139661D01*
X0141145Y0139705D01*
X0141028Y0139753D01*
X0140912Y0139804D01*
X0140799Y0139859D01*
X0140687Y0139917D01*
X0140577Y0139979D01*
X0140469Y0140045D01*
X0140363Y0140114D01*
X0140259Y0140186D01*
X0140158Y0140261D01*
X0140059Y0140340D01*
X0139963Y0140421D01*
X0139869Y0140506D01*
X0139778Y0140593D01*
X0139690Y0140684D01*
X0139604Y0140777D01*
X0139522Y0140873D01*
X0139443Y0140971D01*
X0139366Y0141072D01*
X0139293Y0141175D01*
X0139224Y0141280D01*
X0139158Y0141388D01*
X0139095Y0141497D01*
X0139035Y0141609D01*
X0138979Y0141722D01*
X0138927Y0141837D01*
X0138879Y0141953D01*
X0138834Y0142072D01*
X0138793Y0142191D01*
X0138755Y0142312D01*
X0138722Y0142433D01*
X0138692Y0142556D01*
X0138667Y0142680D01*
X0138645Y0142804D01*
X0138627Y0142929D01*
X0138613Y0143055D01*
X0138603Y0143181D01*
X0138597Y0143307D01*
X0138595Y0143433D01*
X0136095Y0060433D02*
X0149095Y0060433D01*
X0149095Y0047433D01*
X0136095Y0047433D01*
X0136095Y0060433D01*
X0139595Y0053933D02*
X0139597Y0054042D01*
X0139603Y0054151D01*
X0139613Y0054259D01*
X0139627Y0054367D01*
X0139644Y0054475D01*
X0139666Y0054582D01*
X0139691Y0054688D01*
X0139721Y0054792D01*
X0139754Y0054896D01*
X0139791Y0054999D01*
X0139831Y0055100D01*
X0139875Y0055199D01*
X0139923Y0055297D01*
X0139975Y0055394D01*
X0140029Y0055488D01*
X0140087Y0055580D01*
X0140149Y0055670D01*
X0140214Y0055757D01*
X0140281Y0055843D01*
X0140352Y0055926D01*
X0140426Y0056006D01*
X0140503Y0056083D01*
X0140582Y0056158D01*
X0140664Y0056229D01*
X0140749Y0056298D01*
X0140836Y0056363D01*
X0140925Y0056426D01*
X0141017Y0056484D01*
X0141111Y0056540D01*
X0141206Y0056592D01*
X0141304Y0056641D01*
X0141403Y0056686D01*
X0141504Y0056728D01*
X0141606Y0056765D01*
X0141709Y0056799D01*
X0141814Y0056830D01*
X0141920Y0056856D01*
X0142026Y0056879D01*
X0142134Y0056897D01*
X0142242Y0056912D01*
X0142350Y0056923D01*
X0142459Y0056930D01*
X0142568Y0056933D01*
X0142677Y0056932D01*
X0142786Y0056927D01*
X0142894Y0056918D01*
X0143002Y0056905D01*
X0143110Y0056888D01*
X0143217Y0056868D01*
X0143323Y0056843D01*
X0143428Y0056815D01*
X0143532Y0056783D01*
X0143635Y0056747D01*
X0143737Y0056707D01*
X0143837Y0056664D01*
X0143935Y0056617D01*
X0144032Y0056567D01*
X0144126Y0056513D01*
X0144219Y0056455D01*
X0144310Y0056395D01*
X0144398Y0056331D01*
X0144484Y0056264D01*
X0144567Y0056194D01*
X0144648Y0056121D01*
X0144726Y0056045D01*
X0144801Y0055966D01*
X0144874Y0055884D01*
X0144943Y0055800D01*
X0145009Y0055714D01*
X0145072Y0055625D01*
X0145132Y0055534D01*
X0145189Y0055441D01*
X0145242Y0055346D01*
X0145291Y0055249D01*
X0145337Y0055150D01*
X0145379Y0055050D01*
X0145418Y0054948D01*
X0145453Y0054844D01*
X0145484Y0054740D01*
X0145512Y0054635D01*
X0145535Y0054528D01*
X0145555Y0054421D01*
X0145571Y0054313D01*
X0145583Y0054205D01*
X0145591Y0054096D01*
X0145595Y0053987D01*
X0145595Y0053879D01*
X0145591Y0053770D01*
X0145583Y0053661D01*
X0145571Y0053553D01*
X0145555Y0053445D01*
X0145535Y0053338D01*
X0145512Y0053231D01*
X0145484Y0053126D01*
X0145453Y0053022D01*
X0145418Y0052918D01*
X0145379Y0052816D01*
X0145337Y0052716D01*
X0145291Y0052617D01*
X0145242Y0052520D01*
X0145189Y0052425D01*
X0145132Y0052332D01*
X0145072Y0052241D01*
X0145009Y0052152D01*
X0144943Y0052066D01*
X0144874Y0051982D01*
X0144801Y0051900D01*
X0144726Y0051821D01*
X0144648Y0051745D01*
X0144567Y0051672D01*
X0144484Y0051602D01*
X0144398Y0051535D01*
X0144310Y0051471D01*
X0144219Y0051411D01*
X0144126Y0051353D01*
X0144032Y0051299D01*
X0143935Y0051249D01*
X0143837Y0051202D01*
X0143737Y0051159D01*
X0143635Y0051119D01*
X0143532Y0051083D01*
X0143428Y0051051D01*
X0143323Y0051023D01*
X0143217Y0050998D01*
X0143110Y0050978D01*
X0143002Y0050961D01*
X0142894Y0050948D01*
X0142786Y0050939D01*
X0142677Y0050934D01*
X0142568Y0050933D01*
X0142459Y0050936D01*
X0142350Y0050943D01*
X0142242Y0050954D01*
X0142134Y0050969D01*
X0142026Y0050987D01*
X0141920Y0051010D01*
X0141814Y0051036D01*
X0141709Y0051067D01*
X0141606Y0051101D01*
X0141504Y0051138D01*
X0141403Y0051180D01*
X0141304Y0051225D01*
X0141206Y0051274D01*
X0141111Y0051326D01*
X0141017Y0051382D01*
X0140925Y0051440D01*
X0140836Y0051503D01*
X0140749Y0051568D01*
X0140664Y0051637D01*
X0140582Y0051708D01*
X0140503Y0051783D01*
X0140426Y0051860D01*
X0140352Y0051940D01*
X0140281Y0052023D01*
X0140214Y0052109D01*
X0140149Y0052196D01*
X0140087Y0052286D01*
X0140029Y0052378D01*
X0139975Y0052472D01*
X0139923Y0052569D01*
X0139875Y0052667D01*
X0139831Y0052766D01*
X0139791Y0052867D01*
X0139754Y0052970D01*
X0139721Y0053074D01*
X0139691Y0053178D01*
X0139666Y0053284D01*
X0139644Y0053391D01*
X0139627Y0053499D01*
X0139613Y0053607D01*
X0139603Y0053715D01*
X0139597Y0053824D01*
X0139595Y0053933D01*
X0138595Y0053933D02*
X0138597Y0054059D01*
X0138603Y0054185D01*
X0138613Y0054311D01*
X0138627Y0054437D01*
X0138645Y0054562D01*
X0138667Y0054686D01*
X0138692Y0054810D01*
X0138722Y0054933D01*
X0138755Y0055054D01*
X0138793Y0055175D01*
X0138834Y0055294D01*
X0138879Y0055413D01*
X0138927Y0055529D01*
X0138979Y0055644D01*
X0139035Y0055757D01*
X0139095Y0055869D01*
X0139158Y0055978D01*
X0139224Y0056086D01*
X0139293Y0056191D01*
X0139366Y0056294D01*
X0139443Y0056395D01*
X0139522Y0056493D01*
X0139604Y0056589D01*
X0139690Y0056682D01*
X0139778Y0056773D01*
X0139869Y0056860D01*
X0139963Y0056945D01*
X0140059Y0057026D01*
X0140158Y0057105D01*
X0140259Y0057180D01*
X0140363Y0057252D01*
X0140469Y0057321D01*
X0140577Y0057387D01*
X0140687Y0057449D01*
X0140799Y0057507D01*
X0140912Y0057562D01*
X0141028Y0057613D01*
X0141145Y0057661D01*
X0141263Y0057705D01*
X0141383Y0057745D01*
X0141504Y0057781D01*
X0141626Y0057814D01*
X0141749Y0057843D01*
X0141873Y0057867D01*
X0141997Y0057888D01*
X0142122Y0057905D01*
X0142248Y0057918D01*
X0142374Y0057927D01*
X0142500Y0057932D01*
X0142627Y0057933D01*
X0142753Y0057930D01*
X0142879Y0057923D01*
X0143005Y0057912D01*
X0143130Y0057897D01*
X0143255Y0057878D01*
X0143379Y0057855D01*
X0143503Y0057829D01*
X0143625Y0057798D01*
X0143747Y0057764D01*
X0143867Y0057725D01*
X0143986Y0057683D01*
X0144104Y0057638D01*
X0144220Y0057588D01*
X0144335Y0057535D01*
X0144447Y0057478D01*
X0144558Y0057418D01*
X0144667Y0057354D01*
X0144774Y0057287D01*
X0144879Y0057217D01*
X0144982Y0057143D01*
X0145082Y0057066D01*
X0145180Y0056986D01*
X0145275Y0056903D01*
X0145367Y0056817D01*
X0145457Y0056728D01*
X0145544Y0056636D01*
X0145627Y0056542D01*
X0145708Y0056445D01*
X0145786Y0056345D01*
X0145861Y0056243D01*
X0145932Y0056139D01*
X0146000Y0056032D01*
X0146064Y0055924D01*
X0146125Y0055813D01*
X0146183Y0055701D01*
X0146237Y0055587D01*
X0146287Y0055471D01*
X0146334Y0055354D01*
X0146377Y0055235D01*
X0146416Y0055115D01*
X0146452Y0054994D01*
X0146483Y0054871D01*
X0146511Y0054748D01*
X0146535Y0054624D01*
X0146555Y0054499D01*
X0146571Y0054374D01*
X0146583Y0054248D01*
X0146591Y0054122D01*
X0146595Y0053996D01*
X0146595Y0053870D01*
X0146591Y0053744D01*
X0146583Y0053618D01*
X0146571Y0053492D01*
X0146555Y0053367D01*
X0146535Y0053242D01*
X0146511Y0053118D01*
X0146483Y0052995D01*
X0146452Y0052872D01*
X0146416Y0052751D01*
X0146377Y0052631D01*
X0146334Y0052512D01*
X0146287Y0052395D01*
X0146237Y0052279D01*
X0146183Y0052165D01*
X0146125Y0052053D01*
X0146064Y0051942D01*
X0146000Y0051834D01*
X0145932Y0051727D01*
X0145861Y0051623D01*
X0145786Y0051521D01*
X0145708Y0051421D01*
X0145627Y0051324D01*
X0145544Y0051230D01*
X0145457Y0051138D01*
X0145367Y0051049D01*
X0145275Y0050963D01*
X0145180Y0050880D01*
X0145082Y0050800D01*
X0144982Y0050723D01*
X0144879Y0050649D01*
X0144774Y0050579D01*
X0144667Y0050512D01*
X0144558Y0050448D01*
X0144447Y0050388D01*
X0144335Y0050331D01*
X0144220Y0050278D01*
X0144104Y0050228D01*
X0143986Y0050183D01*
X0143867Y0050141D01*
X0143747Y0050102D01*
X0143625Y0050068D01*
X0143503Y0050037D01*
X0143379Y0050011D01*
X0143255Y0049988D01*
X0143130Y0049969D01*
X0143005Y0049954D01*
X0142879Y0049943D01*
X0142753Y0049936D01*
X0142627Y0049933D01*
X0142500Y0049934D01*
X0142374Y0049939D01*
X0142248Y0049948D01*
X0142122Y0049961D01*
X0141997Y0049978D01*
X0141873Y0049999D01*
X0141749Y0050023D01*
X0141626Y0050052D01*
X0141504Y0050085D01*
X0141383Y0050121D01*
X0141263Y0050161D01*
X0141145Y0050205D01*
X0141028Y0050253D01*
X0140912Y0050304D01*
X0140799Y0050359D01*
X0140687Y0050417D01*
X0140577Y0050479D01*
X0140469Y0050545D01*
X0140363Y0050614D01*
X0140259Y0050686D01*
X0140158Y0050761D01*
X0140059Y0050840D01*
X0139963Y0050921D01*
X0139869Y0051006D01*
X0139778Y0051093D01*
X0139690Y0051184D01*
X0139604Y0051277D01*
X0139522Y0051373D01*
X0139443Y0051471D01*
X0139366Y0051572D01*
X0139293Y0051675D01*
X0139224Y0051780D01*
X0139158Y0051888D01*
X0139095Y0051997D01*
X0139035Y0052109D01*
X0138979Y0052222D01*
X0138927Y0052337D01*
X0138879Y0052453D01*
X0138834Y0052572D01*
X0138793Y0052691D01*
X0138755Y0052812D01*
X0138722Y0052933D01*
X0138692Y0053056D01*
X0138667Y0053180D01*
X0138645Y0053304D01*
X0138627Y0053429D01*
X0138613Y0053555D01*
X0138603Y0053681D01*
X0138597Y0053807D01*
X0138595Y0053933D01*
D13*
X0128095Y0070079D02*
X0128845Y0070830D01*
X0128845Y0072331D01*
X0128095Y0073082D01*
X0127344Y0073082D01*
X0126593Y0072331D01*
X0126593Y0071580D01*
X0126593Y0072331D02*
X0125843Y0073082D01*
X0125092Y0073082D01*
X0124341Y0072331D01*
X0124341Y0070830D01*
X0125092Y0070079D01*
X0155841Y0071580D02*
X0157343Y0070079D01*
X0155841Y0071580D02*
X0160345Y0071580D01*
X0160345Y0070079D02*
X0160345Y0073082D01*
X0173341Y0076331D02*
X0175593Y0074079D01*
X0175593Y0077082D01*
X0177845Y0076331D02*
X0173341Y0076331D01*
X0160345Y0037082D02*
X0160345Y0034079D01*
X0157343Y0037082D01*
X0156592Y0037082D01*
X0155841Y0036331D01*
X0155841Y0034830D01*
X0156592Y0034079D01*
X0128845Y0035831D02*
X0124341Y0035831D01*
X0126593Y0033579D01*
X0126593Y0036582D01*
X0174843Y0119579D02*
X0173341Y0121080D01*
X0177845Y0121080D01*
X0177845Y0119579D02*
X0177845Y0122582D01*
X0160345Y0123579D02*
X0157343Y0126582D01*
X0156592Y0126582D01*
X0155841Y0125831D01*
X0155841Y0124330D01*
X0156592Y0123579D01*
X0160345Y0123579D02*
X0160345Y0126582D01*
X0128845Y0125331D02*
X0124341Y0125331D01*
X0126593Y0123079D01*
X0126593Y0126082D01*
X0125092Y0159579D02*
X0124341Y0160330D01*
X0124341Y0161831D01*
X0125092Y0162582D01*
X0125843Y0162582D01*
X0126593Y0161831D01*
X0127344Y0162582D01*
X0128095Y0162582D01*
X0128845Y0161831D01*
X0128845Y0160330D01*
X0128095Y0159579D01*
X0126593Y0161080D02*
X0126593Y0161831D01*
X0155841Y0161080D02*
X0160345Y0161080D01*
X0160345Y0159579D02*
X0160345Y0162582D01*
X0157343Y0159579D02*
X0155841Y0161080D01*
D14*
X0166595Y0156683D03*
X0166595Y0130183D03*
X0118595Y0130183D03*
X0118595Y0156683D03*
X0118595Y0067183D03*
X0118595Y0040683D03*
X0166595Y0040683D03*
X0166595Y0067183D03*
D15*
X0121734Y0025802D02*
X0121250Y0026286D01*
X0120282Y0026286D01*
X0119799Y0025802D01*
X0118787Y0025802D02*
X0118303Y0026286D01*
X0117336Y0026286D01*
X0116852Y0025802D01*
X0116852Y0025318D01*
X0117336Y0024834D01*
X0118303Y0024834D01*
X0118787Y0024351D01*
X0118787Y0023867D01*
X0118303Y0023383D01*
X0117336Y0023383D01*
X0116852Y0023867D01*
X0119799Y0023383D02*
X0121734Y0025318D01*
X0121734Y0025802D01*
X0121734Y0023383D02*
X0119799Y0023383D01*
X0172729Y0123583D02*
X0172245Y0124067D01*
X0172729Y0123583D02*
X0173696Y0123583D01*
X0174180Y0124067D01*
X0174180Y0124551D01*
X0173696Y0125034D01*
X0172729Y0125034D01*
X0172245Y0125518D01*
X0172245Y0126002D01*
X0172729Y0126486D01*
X0173696Y0126486D01*
X0174180Y0126002D01*
X0175192Y0126486D02*
X0175192Y0124551D01*
X0176159Y0123583D01*
X0177127Y0124551D01*
X0177127Y0126486D01*
X0178138Y0125518D02*
X0179106Y0126486D01*
X0179106Y0123583D01*
X0180073Y0123583D02*
X0178138Y0123583D01*
X0123127Y0171583D02*
X0121192Y0171583D01*
X0122159Y0171583D02*
X0122159Y0174486D01*
X0121192Y0173518D01*
X0120180Y0174002D02*
X0119696Y0174486D01*
X0118729Y0174486D01*
X0118245Y0174002D01*
X0118245Y0173518D01*
X0118729Y0173034D01*
X0119696Y0173034D01*
X0120180Y0172551D01*
X0120180Y0172067D01*
X0119696Y0171583D01*
X0118729Y0171583D01*
X0118245Y0172067D01*
M02*
