G75*
%MOIN*%
%OFA0B0*%
%FSLAX25Y25*%
%IPPOS*%
%LPD*%
%AMOC8*
5,1,8,0,0,1.08239X$1,22.5*
%
%ADD10C,0.00000*%
%ADD11C,0.08200*%
%ADD12C,0.07000*%
%ADD13C,0.06400*%
%ADD14C,0.06896*%
D10*
X0189911Y0200358D02*
X0176161Y0214108D01*
X0176161Y0323988D01*
X0201321Y0346608D01*
X0338661Y0346608D01*
X0353661Y0331608D01*
X0353661Y0179108D01*
X0336161Y0161608D01*
X0322411Y0161608D01*
X0317411Y0156608D01*
X0194911Y0156608D01*
X0189911Y0161608D01*
X0189911Y0200358D01*
D11*
X0202261Y0251628D02*
X0210061Y0251628D01*
X0210061Y0271428D02*
X0202261Y0271428D01*
X0202261Y0294088D02*
X0210061Y0294088D01*
X0210061Y0313888D02*
X0202261Y0313888D01*
D12*
X0240561Y0234028D02*
X0247161Y0234028D01*
X0247161Y0204028D02*
X0240561Y0204028D01*
X0240561Y0174028D02*
X0247161Y0174028D01*
X0247161Y0164028D02*
X0240561Y0164028D01*
X0263021Y0164028D02*
X0269621Y0164028D01*
X0269621Y0174028D02*
X0263021Y0174028D01*
X0303021Y0174028D02*
X0309621Y0174028D01*
X0309621Y0164028D02*
X0303021Y0164028D01*
X0303021Y0204028D02*
X0309621Y0204028D01*
X0309621Y0234028D02*
X0303021Y0234028D01*
X0207161Y0174028D02*
X0200561Y0174028D01*
X0200561Y0164028D02*
X0207161Y0164028D01*
D13*
X0226871Y0294028D02*
X0232871Y0294028D01*
X0232871Y0314028D02*
X0226871Y0314028D01*
X0338161Y0231608D02*
X0344161Y0231608D01*
X0344161Y0221608D02*
X0338161Y0221608D01*
X0338161Y0211608D02*
X0344161Y0211608D01*
X0344161Y0201608D02*
X0338161Y0201608D01*
X0338161Y0191608D02*
X0344161Y0191608D01*
X0344161Y0181608D02*
X0338161Y0181608D01*
D14*
X0333765Y0250594D02*
X0327269Y0250594D01*
X0327269Y0293861D02*
X0333765Y0293861D01*
X0333765Y0335594D02*
X0327269Y0335594D01*
X0252033Y0330515D02*
X0245537Y0330515D01*
X0245537Y0315160D02*
X0252033Y0315160D01*
M02*
