%
M48
M72
T01C0.0320
T02C0.0400
T03C0.0433
T04C0.0440
T05C0.0520
%
T01
X27616Y17161
X27616Y18161
X27616Y19161
X27616Y21286
X27616Y22286
X27616Y23286
X30616Y23286
X30616Y22286
X30616Y21286
X30616Y19161
X30616Y18161
X30616Y17161
T02
X34116Y18161
X34116Y19161
X34116Y20161
X34116Y21161
X34116Y22161
X34116Y23161
X22987Y29403
X22987Y31403
T03
X24878Y31516
X24878Y33051
X33052Y33559
X33052Y29386
X33052Y25059
T04
X20241Y17161
X20241Y21286
X24241Y21286
X24241Y17161
T05
X20616Y25163
X20616Y27143
X20616Y29409
X20616Y31389
M30
