G75*
%MOIN*%
%OFA0B0*%
%FSLAX25Y25*%
%IPPOS*%
%LPD*%
%AMOC8*
5,1,8,0,0,1.08239X$1,22.5*
%
%ADD10C,0.00000*%
%ADD11C,0.07800*%
%ADD12C,0.06000*%
%ADD13C,0.06496*%
%ADD14C,0.05200*%
%ADD15C,0.06600*%
%ADD16R,0.04724X0.07087*%
%ADD17C,0.07000*%
%ADD18C,0.04000*%
%ADD19C,0.05000*%
%ADD20C,0.02400*%
D10*
X0189911Y0200358D02*
X0176161Y0214108D01*
X0176161Y0323988D01*
X0201321Y0346608D01*
X0338661Y0346608D01*
X0353661Y0331608D01*
X0353661Y0179108D01*
X0336161Y0161608D01*
X0322411Y0161608D01*
X0317411Y0156608D01*
X0194911Y0156608D01*
X0189911Y0161608D01*
X0189911Y0200358D01*
D11*
X0202261Y0251628D02*
X0210061Y0251628D01*
X0210061Y0271428D02*
X0202261Y0271428D01*
X0202261Y0294088D02*
X0210061Y0294088D01*
X0210061Y0313888D02*
X0202261Y0313888D01*
D12*
X0226871Y0314028D02*
X0232871Y0314028D01*
X0232871Y0294028D02*
X0226871Y0294028D01*
X0338161Y0231608D02*
X0344161Y0231608D01*
X0344161Y0221608D02*
X0338161Y0221608D01*
X0338161Y0211608D02*
X0344161Y0211608D01*
X0344161Y0201608D02*
X0338161Y0201608D01*
X0338161Y0191608D02*
X0344161Y0191608D01*
X0344161Y0181608D02*
X0338161Y0181608D01*
D13*
X0333765Y0250594D02*
X0327269Y0250594D01*
X0327269Y0293861D02*
X0333765Y0293861D01*
X0333765Y0335594D02*
X0327269Y0335594D01*
X0252033Y0330515D02*
X0245537Y0330515D01*
X0245537Y0315160D02*
X0252033Y0315160D01*
D14*
X0270961Y0232858D02*
X0276161Y0232858D01*
X0276161Y0222858D02*
X0270961Y0222858D01*
X0270961Y0212858D02*
X0276161Y0212858D01*
X0276161Y0191608D02*
X0270961Y0191608D01*
X0270961Y0181608D02*
X0276161Y0181608D01*
X0276161Y0171608D02*
X0270961Y0171608D01*
X0306161Y0171608D02*
X0311361Y0171608D01*
X0311361Y0181608D02*
X0306161Y0181608D01*
X0306161Y0191608D02*
X0311361Y0191608D01*
X0311361Y0212858D02*
X0306161Y0212858D01*
X0306161Y0222858D02*
X0311361Y0222858D01*
X0311361Y0232858D02*
X0306161Y0232858D01*
D15*
X0242411Y0212858D03*
X0242411Y0171608D03*
X0202411Y0171608D03*
X0202411Y0212858D03*
D16*
X0323661Y0212509D03*
X0323661Y0200706D03*
X0323661Y0185009D03*
X0323661Y0173206D03*
D17*
X0229871Y0294028D02*
X0229811Y0294088D01*
X0206161Y0294088D01*
X0206161Y0313988D02*
X0206161Y0330218D01*
X0229311Y0330218D01*
X0236811Y0330338D01*
X0248785Y0330515D01*
X0248785Y0315160D02*
X0247652Y0314028D01*
X0229871Y0314028D01*
D18*
X0248785Y0315160D02*
X0251358Y0315160D01*
D19*
X0257411Y0309108D01*
X0257411Y0242858D01*
X0267411Y0232858D01*
X0276161Y0232858D01*
X0276161Y0212858D02*
X0242411Y0212858D01*
X0242411Y0171608D02*
X0276161Y0171608D01*
X0206161Y0234108D02*
X0206161Y0251628D01*
X0206161Y0271428D01*
X0206161Y0234108D02*
X0202411Y0230358D01*
X0202411Y0212858D01*
X0202411Y0171608D01*
D20*
X0306161Y0171608D02*
X0319911Y0171608D01*
X0321510Y0173206D01*
X0323661Y0173206D01*
X0323661Y0185009D02*
X0323661Y0200706D01*
X0323661Y0212509D02*
X0306510Y0212509D01*
X0306161Y0212858D01*
X0306161Y0222858D02*
X0318661Y0222858D01*
X0327411Y0231608D01*
X0341161Y0231608D01*
X0341161Y0191608D02*
X0333661Y0191608D01*
X0328661Y0186608D01*
X0325260Y0186608D01*
X0323661Y0185009D01*
X0341161Y0181608D02*
X0349911Y0181608D01*
X0349911Y0284108D01*
X0339931Y0294088D01*
X0330517Y0293861D01*
M02*
