%
M48
M72
T01C0.0236
T02C0.0400
T03C0.0433
T04C0.0440
T05C0.0520
%
T01
X25866Y16911
X32241Y17536
T02
X34116Y18161
X34116Y19161
X34116Y20161
X34116Y21161
X34116Y22161
X34116Y23161
X22987Y29403
X22987Y31403
T03
X24878Y31516
X24878Y33051
X33052Y33559
X33052Y29386
X33052Y25059
T04
X20386Y16403
X20386Y17403
X24386Y17403
X24386Y16403
X26632Y16403
X26632Y17403
X24386Y20403
X24386Y23403
X30632Y23403
X30632Y20403
X30632Y17403
X30632Y16403
T05
X20616Y25163
X20616Y27143
X20616Y29409
X20616Y31389
M30
