G75*
%MOIN*%
%OFA0B0*%
%FSLAX25Y25*%
%IPPOS*%
%LPD*%
%AMOC8*
5,1,8,0,0,1.08239X$1,22.5*
%
%ADD10C,0.00000*%
%ADD11C,0.00400*%
%ADD12C,0.01000*%
D10*
X0189911Y0200358D02*
X0176161Y0214108D01*
X0176161Y0323988D01*
X0201321Y0346608D01*
X0338661Y0346608D01*
X0353661Y0331608D01*
X0353661Y0179108D01*
X0336161Y0161608D01*
X0322411Y0161608D01*
X0317411Y0156608D01*
X0194911Y0156608D01*
X0189911Y0161608D01*
X0189911Y0200358D01*
D11*
X0231317Y0183058D02*
X0234787Y0183058D01*
X0236498Y0183058D02*
X0237365Y0183058D01*
X0237365Y0183925D01*
X0236498Y0183925D01*
X0236498Y0183058D01*
X0239052Y0183058D02*
X0242522Y0183058D01*
X0240787Y0183058D02*
X0240787Y0188262D01*
X0242522Y0186527D01*
X0244208Y0185660D02*
X0247678Y0185660D01*
X0249365Y0187395D02*
X0252834Y0183925D01*
X0251967Y0183058D01*
X0250232Y0183058D01*
X0249365Y0183925D01*
X0249365Y0187395D01*
X0250232Y0188262D01*
X0251967Y0188262D01*
X0252834Y0187395D01*
X0252834Y0183925D01*
X0254521Y0187395D02*
X0257991Y0183925D01*
X0257991Y0183058D01*
X0259678Y0185660D02*
X0263147Y0185660D01*
X0264834Y0185660D02*
X0265701Y0184792D01*
X0268304Y0184792D01*
X0268304Y0183058D02*
X0268304Y0188262D01*
X0265701Y0188262D01*
X0264834Y0187395D01*
X0264834Y0185660D01*
X0266569Y0184792D02*
X0264834Y0183058D01*
X0269990Y0183058D02*
X0273460Y0183058D01*
X0269990Y0186527D01*
X0269990Y0187395D01*
X0270858Y0188262D01*
X0272593Y0188262D01*
X0273460Y0187395D01*
X0275147Y0185660D02*
X0278616Y0185660D01*
X0280303Y0185660D02*
X0281171Y0184792D01*
X0283773Y0184792D01*
X0283773Y0183058D02*
X0283773Y0188262D01*
X0281171Y0188262D01*
X0280303Y0187395D01*
X0280303Y0185660D01*
X0282038Y0184792D02*
X0280303Y0183058D01*
X0285460Y0183058D02*
X0285460Y0188262D01*
X0285476Y0191458D02*
X0287210Y0191458D01*
X0286343Y0191458D02*
X0286343Y0196662D01*
X0287210Y0196662D01*
X0289781Y0196662D02*
X0289781Y0191458D01*
X0290648Y0191458D02*
X0288913Y0191458D01*
X0288929Y0188262D02*
X0288929Y0183058D01*
X0287194Y0184792D01*
X0285460Y0183058D01*
X0290616Y0185660D02*
X0291483Y0184792D01*
X0294086Y0184792D01*
X0294086Y0183058D02*
X0294086Y0188262D01*
X0291483Y0188262D01*
X0290616Y0187395D01*
X0290616Y0185660D01*
X0295772Y0185660D02*
X0299242Y0185660D01*
X0300929Y0186527D02*
X0301796Y0185660D01*
X0304398Y0185660D01*
X0306085Y0187395D02*
X0306953Y0188262D01*
X0308687Y0188262D01*
X0309555Y0187395D01*
X0309555Y0183925D01*
X0308687Y0183058D01*
X0306953Y0183058D01*
X0306085Y0183925D01*
X0304398Y0183058D02*
X0301796Y0183058D01*
X0300929Y0183925D01*
X0300929Y0184792D01*
X0301796Y0185660D01*
X0300929Y0186527D02*
X0300929Y0187395D01*
X0301796Y0188262D01*
X0304398Y0188262D01*
X0304398Y0183058D01*
X0311241Y0185660D02*
X0312109Y0184792D01*
X0314711Y0184792D01*
X0314711Y0183058D02*
X0314711Y0188262D01*
X0312109Y0188262D01*
X0311241Y0187395D01*
X0311241Y0185660D01*
X0311274Y0191458D02*
X0311274Y0194927D01*
X0308671Y0194927D01*
X0307804Y0194060D01*
X0307804Y0191458D01*
X0306117Y0194060D02*
X0302648Y0194060D01*
X0300961Y0194927D02*
X0300961Y0192325D01*
X0300093Y0191458D01*
X0299226Y0192325D01*
X0298359Y0191458D01*
X0297491Y0192325D01*
X0297491Y0194927D01*
X0294937Y0194927D02*
X0293202Y0194927D01*
X0292335Y0194060D01*
X0292335Y0191458D01*
X0294937Y0191458D01*
X0295804Y0192325D01*
X0294937Y0193192D01*
X0292335Y0193192D01*
X0290648Y0196662D02*
X0289781Y0196662D01*
X0278616Y0195795D02*
X0278616Y0194927D01*
X0277749Y0194060D01*
X0276014Y0194060D01*
X0275147Y0193192D01*
X0275147Y0192325D01*
X0276014Y0191458D01*
X0277749Y0191458D01*
X0278616Y0192325D01*
X0278616Y0193192D01*
X0277749Y0194060D01*
X0276014Y0194060D02*
X0275147Y0194927D01*
X0275147Y0195795D01*
X0276014Y0196662D01*
X0277749Y0196662D01*
X0278616Y0195795D01*
X0273460Y0195795D02*
X0273460Y0192325D01*
X0269990Y0195795D01*
X0269990Y0192325D01*
X0270858Y0191458D01*
X0272593Y0191458D01*
X0273460Y0192325D01*
X0273460Y0195795D02*
X0272593Y0196662D01*
X0270858Y0196662D01*
X0269990Y0195795D01*
X0268304Y0195795D02*
X0267436Y0196662D01*
X0265701Y0196662D01*
X0264834Y0195795D01*
X0264834Y0194927D01*
X0268304Y0191458D01*
X0264834Y0191458D01*
X0263147Y0191458D02*
X0262280Y0191458D01*
X0262280Y0192325D01*
X0263147Y0192325D01*
X0263147Y0191458D01*
X0260569Y0191458D02*
X0257099Y0191458D01*
X0255413Y0191458D02*
X0251943Y0191458D01*
X0253678Y0191458D02*
X0253678Y0196662D01*
X0255413Y0194927D01*
X0258834Y0196662D02*
X0258834Y0191458D01*
X0257991Y0188262D02*
X0254521Y0188262D01*
X0254521Y0187395D01*
X0260569Y0194927D02*
X0258834Y0196662D01*
X0245100Y0196662D02*
X0243365Y0196662D01*
X0244232Y0196662D02*
X0244232Y0191458D01*
X0243365Y0191458D02*
X0245100Y0191458D01*
X0241662Y0192325D02*
X0241662Y0195795D01*
X0240795Y0196662D01*
X0239060Y0196662D01*
X0238193Y0195795D01*
X0238193Y0192325D01*
X0239060Y0191458D01*
X0240795Y0191458D01*
X0241662Y0192325D01*
X0236506Y0196662D02*
X0233036Y0196662D01*
X0234771Y0196662D02*
X0234771Y0191458D01*
X0233052Y0188262D02*
X0233052Y0183058D01*
X0234787Y0186527D02*
X0233052Y0188262D01*
X0232958Y0264308D02*
X0235560Y0264308D01*
X0236428Y0265175D01*
X0235560Y0266042D01*
X0232958Y0266042D01*
X0232958Y0266910D02*
X0232958Y0264308D01*
X0231271Y0264308D02*
X0227802Y0267777D01*
X0231271Y0267777D02*
X0227802Y0264308D01*
X0232958Y0266910D02*
X0233825Y0267777D01*
X0235560Y0267777D01*
X0238114Y0269512D02*
X0238114Y0264308D01*
X0241584Y0264308D02*
X0241584Y0269512D01*
X0239849Y0267777D01*
X0238114Y0269512D01*
X0238114Y0272708D02*
X0238114Y0277912D01*
X0239849Y0276177D01*
X0241584Y0277912D01*
X0241584Y0272708D01*
X0236428Y0273575D02*
X0235560Y0274442D01*
X0232958Y0274442D01*
X0232958Y0275310D02*
X0232958Y0272708D01*
X0235560Y0272708D01*
X0236428Y0273575D01*
X0235560Y0276177D02*
X0233825Y0276177D01*
X0232958Y0275310D01*
X0231271Y0276177D02*
X0227802Y0272708D01*
X0231271Y0272708D02*
X0227802Y0276177D01*
X0248427Y0276177D02*
X0248427Y0272708D01*
X0248427Y0275310D02*
X0251897Y0275310D01*
X0251897Y0276177D02*
X0250162Y0277912D01*
X0248427Y0276177D01*
X0251897Y0276177D02*
X0251897Y0272708D01*
X0253584Y0273575D02*
X0254451Y0272708D01*
X0256186Y0272708D01*
X0257053Y0273575D01*
X0257053Y0275310D02*
X0255318Y0276177D01*
X0254451Y0276177D01*
X0253584Y0275310D01*
X0253584Y0273575D01*
X0257053Y0275310D02*
X0257053Y0277912D01*
X0253584Y0277912D01*
X0254451Y0269512D02*
X0253584Y0268645D01*
X0253584Y0265175D01*
X0254451Y0264308D01*
X0256186Y0264308D01*
X0257053Y0265175D01*
X0256186Y0266910D02*
X0253584Y0266910D01*
X0251897Y0266910D02*
X0248427Y0266910D01*
X0248427Y0267777D02*
X0248427Y0264308D01*
X0248427Y0267777D02*
X0250162Y0269512D01*
X0251897Y0267777D01*
X0251897Y0264308D01*
X0256186Y0266910D02*
X0257053Y0267777D01*
X0257053Y0268645D01*
X0256186Y0269512D01*
X0254451Y0269512D01*
X0263912Y0267777D02*
X0265647Y0267777D01*
X0264780Y0268645D02*
X0264780Y0265175D01*
X0263912Y0264308D01*
X0267334Y0264308D02*
X0267334Y0267777D01*
X0267334Y0264308D02*
X0269936Y0264308D01*
X0270804Y0265175D01*
X0270804Y0267777D01*
X0272490Y0268645D02*
X0272490Y0265175D01*
X0273358Y0264308D01*
X0275093Y0264308D01*
X0275960Y0265175D01*
X0275960Y0268645D01*
X0275093Y0269512D01*
X0273358Y0269512D01*
X0272490Y0268645D01*
X0273358Y0272708D02*
X0272490Y0273575D01*
X0272490Y0277045D01*
X0273358Y0277912D01*
X0275093Y0277912D01*
X0275960Y0277045D01*
X0275960Y0273575D01*
X0275093Y0272708D01*
X0273358Y0272708D01*
X0270804Y0273575D02*
X0270804Y0276177D01*
X0270804Y0273575D02*
X0269936Y0272708D01*
X0267334Y0272708D01*
X0267334Y0276177D01*
X0265647Y0276177D02*
X0263912Y0276177D01*
X0264780Y0277045D02*
X0264780Y0273575D01*
X0263912Y0272708D01*
X0282803Y0272708D02*
X0286273Y0272708D01*
X0282803Y0276177D01*
X0286273Y0276177D01*
X0287960Y0275310D02*
X0288827Y0276177D01*
X0290562Y0276177D01*
X0291429Y0275310D01*
X0291429Y0273575D01*
X0290562Y0272708D01*
X0288827Y0272708D01*
X0287960Y0273575D01*
X0287960Y0275310D01*
X0293116Y0272708D02*
X0296586Y0272708D01*
X0294851Y0272708D02*
X0294851Y0277912D01*
X0296586Y0276177D01*
X0295718Y0269512D02*
X0296586Y0268645D01*
X0295718Y0269512D02*
X0293983Y0269512D01*
X0293116Y0268645D01*
X0293116Y0267777D01*
X0296586Y0264308D01*
X0293116Y0264308D01*
X0291429Y0265175D02*
X0291429Y0266910D01*
X0290562Y0267777D01*
X0288827Y0267777D01*
X0287960Y0266910D01*
X0287960Y0265175D01*
X0288827Y0264308D01*
X0290562Y0264308D01*
X0291429Y0265175D01*
X0286273Y0264308D02*
X0282803Y0264308D01*
X0282803Y0267777D02*
X0286273Y0264308D01*
X0286273Y0267777D02*
X0282803Y0267777D01*
X0303429Y0267777D02*
X0304296Y0266910D01*
X0306898Y0266910D01*
X0308585Y0268645D02*
X0309453Y0269512D01*
X0311187Y0269512D01*
X0312055Y0268645D01*
X0312055Y0265175D01*
X0311187Y0264308D01*
X0309453Y0264308D01*
X0308585Y0265175D01*
X0306898Y0264308D02*
X0306898Y0269512D01*
X0304296Y0269512D01*
X0303429Y0268645D01*
X0303429Y0267777D01*
X0304296Y0266910D02*
X0303429Y0266042D01*
X0303429Y0265175D01*
X0304296Y0264308D01*
X0306898Y0264308D01*
X0313741Y0266910D02*
X0314609Y0266042D01*
X0317211Y0266042D01*
X0317211Y0264308D02*
X0317211Y0269512D01*
X0314609Y0269512D01*
X0313741Y0268645D01*
X0313741Y0266910D01*
X0311187Y0272708D02*
X0309453Y0272708D01*
X0308585Y0273575D01*
X0306898Y0272708D02*
X0306898Y0277912D01*
X0304296Y0277912D01*
X0303429Y0277045D01*
X0303429Y0276177D01*
X0304296Y0275310D01*
X0306898Y0275310D01*
X0308585Y0277045D02*
X0309453Y0277912D01*
X0311187Y0277912D01*
X0312055Y0277045D01*
X0312055Y0273575D01*
X0311187Y0272708D01*
X0313741Y0275310D02*
X0314609Y0274442D01*
X0317211Y0274442D01*
X0317211Y0272708D02*
X0317211Y0277912D01*
X0314609Y0277912D01*
X0313741Y0277045D01*
X0313741Y0275310D01*
X0306898Y0272708D02*
X0304296Y0272708D01*
X0303429Y0273575D01*
X0303429Y0274442D01*
X0304296Y0275310D01*
X0345761Y0275111D02*
X0345761Y0273376D01*
X0346629Y0272509D01*
X0348363Y0272509D01*
X0349231Y0273376D01*
X0349231Y0275111D01*
X0348363Y0275978D01*
X0347496Y0275978D01*
X0347496Y0272509D01*
X0345761Y0270822D02*
X0345761Y0267352D01*
X0350966Y0267352D01*
X0348363Y0260509D02*
X0345761Y0260509D01*
X0348363Y0260509D02*
X0349231Y0259642D01*
X0349231Y0257040D01*
X0345761Y0257040D01*
X0345761Y0255353D02*
X0348363Y0255353D01*
X0349231Y0254485D01*
X0349231Y0251883D01*
X0345761Y0251883D01*
X0345761Y0250197D02*
X0345761Y0247594D01*
X0346629Y0246727D01*
X0347496Y0247594D01*
X0347496Y0250197D01*
X0348363Y0250197D02*
X0345761Y0250197D01*
X0348363Y0250197D02*
X0349231Y0249329D01*
X0349231Y0247594D01*
X0348363Y0245040D02*
X0346629Y0245040D01*
X0345761Y0244173D01*
X0345761Y0242438D01*
X0346629Y0241570D01*
X0348363Y0241570D01*
X0349231Y0242438D01*
X0349231Y0244173D01*
X0348363Y0245040D01*
X0350098Y0239884D02*
X0350966Y0239884D01*
X0350098Y0239884D02*
X0348363Y0238149D01*
X0345761Y0238149D01*
X0348363Y0238149D02*
X0350098Y0236414D01*
X0350966Y0236414D01*
X0348363Y0277665D02*
X0348363Y0279400D01*
X0348363Y0281103D02*
X0346629Y0281103D01*
X0345761Y0281970D01*
X0345761Y0283705D01*
X0347496Y0284572D02*
X0347496Y0281103D01*
X0348363Y0281103D02*
X0349231Y0281970D01*
X0349231Y0283705D01*
X0348363Y0284572D01*
X0347496Y0284572D01*
X0349231Y0286259D02*
X0349231Y0288861D01*
X0348363Y0289729D01*
X0346629Y0289729D01*
X0345761Y0288861D01*
X0345761Y0286259D01*
X0350966Y0286259D01*
X0349231Y0291416D02*
X0345761Y0293150D01*
X0349231Y0294885D01*
X0349231Y0296572D02*
X0345761Y0296572D01*
X0347496Y0296572D02*
X0349231Y0298307D01*
X0349231Y0299174D01*
X0348363Y0300869D02*
X0349231Y0301736D01*
X0349231Y0303471D01*
X0348363Y0304339D01*
X0347496Y0304339D01*
X0347496Y0300869D01*
X0346629Y0300869D02*
X0348363Y0300869D01*
X0346629Y0300869D02*
X0345761Y0301736D01*
X0345761Y0303471D01*
X0345761Y0311182D02*
X0349231Y0314651D01*
X0350098Y0314651D01*
X0350966Y0313784D01*
X0350966Y0312049D01*
X0350098Y0311182D01*
X0345761Y0311182D02*
X0345761Y0314651D01*
X0346629Y0316338D02*
X0350098Y0319808D01*
X0346629Y0319808D01*
X0345761Y0318940D01*
X0345761Y0317206D01*
X0346629Y0316338D01*
X0350098Y0316338D01*
X0350966Y0317206D01*
X0350966Y0318940D01*
X0350098Y0319808D01*
X0349231Y0321495D02*
X0350966Y0323229D01*
X0345761Y0323229D01*
X0345761Y0321495D02*
X0345761Y0324964D01*
X0346629Y0326651D02*
X0345761Y0327518D01*
X0345761Y0329253D01*
X0346629Y0330121D01*
X0348363Y0330121D01*
X0349231Y0329253D01*
X0349231Y0328386D01*
X0348363Y0326651D01*
X0350966Y0326651D01*
X0350966Y0330121D01*
X0350966Y0279400D02*
X0350098Y0278533D01*
X0345761Y0278533D01*
X0313844Y0197529D02*
X0313844Y0196662D01*
X0313844Y0194927D02*
X0313844Y0191458D01*
X0314711Y0191458D02*
X0312976Y0191458D01*
X0313844Y0194927D02*
X0314711Y0194927D01*
D12*
X0321161Y0264108D02*
X0326161Y0269108D01*
X0321161Y0269108D01*
X0326161Y0264108D01*
X0326161Y0269108D01*
X0326161Y0272858D02*
X0326161Y0277858D01*
X0321161Y0277858D01*
X0321161Y0272858D01*
X0326161Y0272858D01*
X0321161Y0269108D02*
X0321161Y0264108D01*
X0326161Y0264108D01*
M02*
