G75*
%MOIN*%
%OFA0B0*%
%FSLAX25Y25*%
%IPPOS*%
%LPD*%
%AMOC8*
5,1,8,0,0,1.08239X$1,22.5*
%
%ADD10C,0.00000*%
%ADD11C,0.00600*%
%ADD12C,0.00400*%
%ADD13C,0.00200*%
%ADD14C,0.00500*%
%ADD15R,0.04500X0.09000*%
%ADD16C,0.01000*%
%ADD17C,0.00700*%
D10*
X0189911Y0200358D02*
X0176161Y0214108D01*
X0176161Y0323988D01*
X0201321Y0346608D01*
X0338661Y0346608D01*
X0353661Y0331608D01*
X0353661Y0179108D01*
X0336161Y0161608D01*
X0322411Y0161608D01*
X0317411Y0156608D01*
X0194911Y0156608D01*
X0189911Y0161608D01*
X0189911Y0200358D01*
D11*
X0203861Y0184028D02*
X0221361Y0184028D01*
X0221361Y0189028D02*
X0226361Y0179028D01*
X0226361Y0184028D02*
X0243861Y0184028D01*
X0243861Y0179528D01*
X0243861Y0169028D02*
X0243861Y0164528D01*
X0243861Y0169028D02*
X0226361Y0169028D01*
X0226361Y0164028D02*
X0221361Y0174028D01*
X0221361Y0169028D02*
X0203861Y0169028D01*
X0203861Y0164528D01*
X0200361Y0159528D02*
X0194861Y0159528D01*
X0194861Y0238528D01*
X0240361Y0238528D01*
X0238361Y0234028D02*
X0233861Y0234028D01*
X0233861Y0224028D01*
X0229361Y0223528D02*
X0233861Y0214028D01*
X0233861Y0204028D01*
X0238361Y0204028D01*
X0266321Y0184028D02*
X0266321Y0179528D01*
X0266321Y0184028D02*
X0283821Y0184028D01*
X0283821Y0189028D02*
X0288821Y0179028D01*
X0288821Y0184028D02*
X0306321Y0184028D01*
X0306321Y0179528D01*
X0306321Y0169028D02*
X0306321Y0164528D01*
X0306321Y0169028D02*
X0288821Y0169028D01*
X0283821Y0169028D02*
X0266321Y0169028D01*
X0266321Y0164528D01*
X0262821Y0159528D02*
X0257321Y0159528D01*
X0257321Y0238528D01*
X0302821Y0238528D01*
X0300821Y0234028D02*
X0296321Y0234028D01*
X0296321Y0224028D01*
X0291821Y0223528D02*
X0296321Y0214028D01*
X0296321Y0204028D01*
X0300821Y0204028D01*
X0283821Y0174028D02*
X0288821Y0164028D01*
X0302821Y0159528D02*
X0269821Y0159528D01*
X0252861Y0159528D02*
X0252861Y0238528D01*
X0247361Y0238528D01*
X0217161Y0240028D02*
X0217161Y0241528D01*
X0192661Y0241528D01*
X0192661Y0240028D01*
X0217161Y0240028D01*
X0217161Y0241528D02*
X0217161Y0281528D01*
X0192661Y0281528D01*
X0191161Y0281528D01*
X0177661Y0281528D01*
X0177661Y0278528D01*
X0177661Y0272528D01*
X0177661Y0270528D01*
X0177161Y0270528D01*
X0177161Y0264528D01*
X0177661Y0264528D01*
X0177661Y0270528D01*
X0177661Y0272528D02*
X0177161Y0272528D01*
X0177161Y0278528D01*
X0177661Y0278528D01*
X0177661Y0283988D02*
X0177661Y0286988D01*
X0177161Y0286988D01*
X0177161Y0292988D01*
X0177661Y0292988D01*
X0177661Y0286988D01*
X0177661Y0283988D02*
X0191161Y0283988D01*
X0192661Y0283988D01*
X0192661Y0282488D01*
X0217161Y0282488D01*
X0217161Y0283988D01*
X0192661Y0283988D01*
X0192661Y0323988D01*
X0191161Y0323988D01*
X0177661Y0323988D01*
X0177661Y0320988D01*
X0177661Y0314988D01*
X0177661Y0312988D01*
X0177161Y0312988D01*
X0177161Y0306988D01*
X0177661Y0306988D01*
X0177661Y0312988D01*
X0177661Y0314988D02*
X0177161Y0314988D01*
X0177161Y0320988D01*
X0177661Y0320988D01*
X0177661Y0306988D02*
X0177661Y0300988D01*
X0177661Y0294988D01*
X0177661Y0292988D01*
X0177661Y0294988D02*
X0177161Y0294988D01*
X0177161Y0300988D01*
X0177661Y0300988D01*
X0192661Y0281528D02*
X0192661Y0241528D01*
X0191161Y0241528D01*
X0177661Y0241528D01*
X0177661Y0244528D01*
X0177161Y0244528D01*
X0177161Y0250528D01*
X0177661Y0250528D01*
X0177661Y0244528D01*
X0177661Y0250528D02*
X0177661Y0252528D01*
X0177661Y0258528D01*
X0177161Y0258528D01*
X0177161Y0252528D01*
X0177661Y0252528D01*
X0177661Y0258528D02*
X0177661Y0264528D01*
X0195161Y0263428D02*
X0195161Y0279428D01*
X0214661Y0279428D01*
X0214661Y0263428D01*
X0195161Y0263428D01*
X0195661Y0264428D02*
X0195661Y0278428D01*
X0195663Y0278488D01*
X0195668Y0278549D01*
X0195677Y0278608D01*
X0195690Y0278667D01*
X0195706Y0278726D01*
X0195726Y0278783D01*
X0195749Y0278838D01*
X0195776Y0278893D01*
X0195805Y0278945D01*
X0195838Y0278996D01*
X0195874Y0279045D01*
X0195912Y0279091D01*
X0195954Y0279135D01*
X0195998Y0279177D01*
X0196044Y0279215D01*
X0196093Y0279251D01*
X0196144Y0279284D01*
X0196196Y0279313D01*
X0196251Y0279340D01*
X0196306Y0279363D01*
X0196363Y0279383D01*
X0196422Y0279399D01*
X0196481Y0279412D01*
X0196540Y0279421D01*
X0196601Y0279426D01*
X0196661Y0279428D01*
X0195661Y0276928D02*
X0195663Y0276868D01*
X0195668Y0276807D01*
X0195677Y0276748D01*
X0195690Y0276689D01*
X0195706Y0276630D01*
X0195726Y0276573D01*
X0195749Y0276518D01*
X0195776Y0276463D01*
X0195805Y0276411D01*
X0195838Y0276360D01*
X0195874Y0276311D01*
X0195912Y0276265D01*
X0195954Y0276221D01*
X0195998Y0276179D01*
X0196044Y0276141D01*
X0196093Y0276105D01*
X0196144Y0276072D01*
X0196196Y0276043D01*
X0196251Y0276016D01*
X0196306Y0275993D01*
X0196363Y0275973D01*
X0196422Y0275957D01*
X0196481Y0275944D01*
X0196540Y0275935D01*
X0196601Y0275930D01*
X0196661Y0275928D01*
X0203161Y0275928D01*
X0206161Y0279428D02*
X0206356Y0279426D01*
X0206551Y0279419D01*
X0206745Y0279407D01*
X0206939Y0279390D01*
X0207133Y0279369D01*
X0207326Y0279343D01*
X0207518Y0279312D01*
X0207710Y0279277D01*
X0207900Y0279237D01*
X0208090Y0279192D01*
X0208279Y0279143D01*
X0208466Y0279089D01*
X0208652Y0279030D01*
X0208836Y0278968D01*
X0209019Y0278900D01*
X0209200Y0278828D01*
X0209379Y0278752D01*
X0209557Y0278672D01*
X0209732Y0278587D01*
X0209905Y0278498D01*
X0210076Y0278404D01*
X0210245Y0278307D01*
X0210411Y0278205D01*
X0210575Y0278100D01*
X0210736Y0277991D01*
X0210895Y0277877D01*
X0211050Y0277760D01*
X0211203Y0277639D01*
X0211353Y0277514D01*
X0211500Y0277386D01*
X0211643Y0277254D01*
X0211783Y0277119D01*
X0211920Y0276981D01*
X0212054Y0276839D01*
X0212184Y0276694D01*
X0212310Y0276545D01*
X0212433Y0276394D01*
X0212552Y0276240D01*
X0212667Y0276083D01*
X0212779Y0275923D01*
X0212886Y0275761D01*
X0212990Y0275596D01*
X0213089Y0275428D01*
X0213185Y0275258D01*
X0213276Y0275086D01*
X0213363Y0274912D01*
X0213445Y0274735D01*
X0213524Y0274557D01*
X0213598Y0274377D01*
X0213667Y0274195D01*
X0213733Y0274011D01*
X0213793Y0273826D01*
X0213849Y0273639D01*
X0213901Y0273451D01*
X0213948Y0273262D01*
X0213990Y0273072D01*
X0214028Y0272881D01*
X0214061Y0272689D01*
X0214089Y0272496D01*
X0214113Y0272303D01*
X0214132Y0272109D01*
X0214146Y0271915D01*
X0214156Y0271720D01*
X0214160Y0271525D01*
X0214160Y0271331D01*
X0214156Y0271136D01*
X0214146Y0270941D01*
X0214132Y0270747D01*
X0214113Y0270553D01*
X0214089Y0270360D01*
X0214061Y0270167D01*
X0214028Y0269975D01*
X0213990Y0269784D01*
X0213948Y0269594D01*
X0213901Y0269405D01*
X0213849Y0269217D01*
X0213793Y0269030D01*
X0213733Y0268845D01*
X0213667Y0268661D01*
X0213598Y0268479D01*
X0213524Y0268299D01*
X0213445Y0268121D01*
X0213363Y0267944D01*
X0213276Y0267770D01*
X0213185Y0267598D01*
X0213089Y0267428D01*
X0212990Y0267260D01*
X0212886Y0267095D01*
X0212779Y0266933D01*
X0212667Y0266773D01*
X0212552Y0266616D01*
X0212433Y0266462D01*
X0212310Y0266311D01*
X0212184Y0266162D01*
X0212054Y0266017D01*
X0211920Y0265875D01*
X0211783Y0265737D01*
X0211643Y0265602D01*
X0211500Y0265470D01*
X0211353Y0265342D01*
X0211203Y0265217D01*
X0211050Y0265096D01*
X0210895Y0264979D01*
X0210736Y0264865D01*
X0210575Y0264756D01*
X0210411Y0264651D01*
X0210245Y0264549D01*
X0210076Y0264452D01*
X0209905Y0264358D01*
X0209732Y0264269D01*
X0209557Y0264184D01*
X0209379Y0264104D01*
X0209200Y0264028D01*
X0209019Y0263956D01*
X0208836Y0263888D01*
X0208652Y0263826D01*
X0208466Y0263767D01*
X0208279Y0263713D01*
X0208090Y0263664D01*
X0207900Y0263619D01*
X0207710Y0263579D01*
X0207518Y0263544D01*
X0207326Y0263513D01*
X0207133Y0263487D01*
X0206939Y0263466D01*
X0206745Y0263449D01*
X0206551Y0263437D01*
X0206356Y0263430D01*
X0206161Y0263428D01*
X0203161Y0266928D02*
X0196661Y0266928D01*
X0196601Y0266926D01*
X0196540Y0266921D01*
X0196481Y0266912D01*
X0196422Y0266899D01*
X0196363Y0266883D01*
X0196306Y0266863D01*
X0196251Y0266840D01*
X0196196Y0266813D01*
X0196144Y0266784D01*
X0196093Y0266751D01*
X0196044Y0266715D01*
X0195998Y0266677D01*
X0195954Y0266635D01*
X0195912Y0266591D01*
X0195874Y0266545D01*
X0195838Y0266496D01*
X0195805Y0266445D01*
X0195776Y0266393D01*
X0195749Y0266338D01*
X0195726Y0266283D01*
X0195706Y0266226D01*
X0195690Y0266167D01*
X0195677Y0266108D01*
X0195668Y0266049D01*
X0195663Y0265988D01*
X0195661Y0265928D01*
X0195661Y0264428D02*
X0195663Y0264368D01*
X0195668Y0264307D01*
X0195677Y0264248D01*
X0195690Y0264189D01*
X0195706Y0264130D01*
X0195726Y0264073D01*
X0195749Y0264018D01*
X0195776Y0263963D01*
X0195805Y0263911D01*
X0195838Y0263860D01*
X0195874Y0263811D01*
X0195912Y0263765D01*
X0195954Y0263721D01*
X0195998Y0263679D01*
X0196044Y0263641D01*
X0196093Y0263605D01*
X0196144Y0263572D01*
X0196196Y0263543D01*
X0196251Y0263516D01*
X0196306Y0263493D01*
X0196363Y0263473D01*
X0196422Y0263457D01*
X0196481Y0263444D01*
X0196540Y0263435D01*
X0196601Y0263430D01*
X0196661Y0263428D01*
X0195161Y0259628D02*
X0195161Y0243628D01*
X0214661Y0243628D01*
X0214661Y0259628D01*
X0195161Y0259628D01*
X0195661Y0258628D02*
X0195661Y0244628D01*
X0195663Y0244568D01*
X0195668Y0244507D01*
X0195677Y0244448D01*
X0195690Y0244389D01*
X0195706Y0244330D01*
X0195726Y0244273D01*
X0195749Y0244218D01*
X0195776Y0244163D01*
X0195805Y0244111D01*
X0195838Y0244060D01*
X0195874Y0244011D01*
X0195912Y0243965D01*
X0195954Y0243921D01*
X0195998Y0243879D01*
X0196044Y0243841D01*
X0196093Y0243805D01*
X0196144Y0243772D01*
X0196196Y0243743D01*
X0196251Y0243716D01*
X0196306Y0243693D01*
X0196363Y0243673D01*
X0196422Y0243657D01*
X0196481Y0243644D01*
X0196540Y0243635D01*
X0196601Y0243630D01*
X0196661Y0243628D01*
X0195661Y0246128D02*
X0195663Y0246188D01*
X0195668Y0246249D01*
X0195677Y0246308D01*
X0195690Y0246367D01*
X0195706Y0246426D01*
X0195726Y0246483D01*
X0195749Y0246538D01*
X0195776Y0246593D01*
X0195805Y0246645D01*
X0195838Y0246696D01*
X0195874Y0246745D01*
X0195912Y0246791D01*
X0195954Y0246835D01*
X0195998Y0246877D01*
X0196044Y0246915D01*
X0196093Y0246951D01*
X0196144Y0246984D01*
X0196196Y0247013D01*
X0196251Y0247040D01*
X0196306Y0247063D01*
X0196363Y0247083D01*
X0196422Y0247099D01*
X0196481Y0247112D01*
X0196540Y0247121D01*
X0196601Y0247126D01*
X0196661Y0247128D01*
X0203161Y0247128D01*
X0206161Y0243628D02*
X0206356Y0243630D01*
X0206551Y0243637D01*
X0206745Y0243649D01*
X0206939Y0243666D01*
X0207133Y0243687D01*
X0207326Y0243713D01*
X0207518Y0243744D01*
X0207710Y0243779D01*
X0207900Y0243819D01*
X0208090Y0243864D01*
X0208279Y0243913D01*
X0208466Y0243967D01*
X0208652Y0244026D01*
X0208836Y0244088D01*
X0209019Y0244156D01*
X0209200Y0244228D01*
X0209379Y0244304D01*
X0209557Y0244384D01*
X0209732Y0244469D01*
X0209905Y0244558D01*
X0210076Y0244652D01*
X0210245Y0244749D01*
X0210411Y0244851D01*
X0210575Y0244956D01*
X0210736Y0245065D01*
X0210895Y0245179D01*
X0211050Y0245296D01*
X0211203Y0245417D01*
X0211353Y0245542D01*
X0211500Y0245670D01*
X0211643Y0245802D01*
X0211783Y0245937D01*
X0211920Y0246075D01*
X0212054Y0246217D01*
X0212184Y0246362D01*
X0212310Y0246511D01*
X0212433Y0246662D01*
X0212552Y0246816D01*
X0212667Y0246973D01*
X0212779Y0247133D01*
X0212886Y0247295D01*
X0212990Y0247460D01*
X0213089Y0247628D01*
X0213185Y0247798D01*
X0213276Y0247970D01*
X0213363Y0248144D01*
X0213445Y0248321D01*
X0213524Y0248499D01*
X0213598Y0248679D01*
X0213667Y0248861D01*
X0213733Y0249045D01*
X0213793Y0249230D01*
X0213849Y0249417D01*
X0213901Y0249605D01*
X0213948Y0249794D01*
X0213990Y0249984D01*
X0214028Y0250175D01*
X0214061Y0250367D01*
X0214089Y0250560D01*
X0214113Y0250753D01*
X0214132Y0250947D01*
X0214146Y0251141D01*
X0214156Y0251336D01*
X0214160Y0251531D01*
X0214160Y0251725D01*
X0214156Y0251920D01*
X0214146Y0252115D01*
X0214132Y0252309D01*
X0214113Y0252503D01*
X0214089Y0252696D01*
X0214061Y0252889D01*
X0214028Y0253081D01*
X0213990Y0253272D01*
X0213948Y0253462D01*
X0213901Y0253651D01*
X0213849Y0253839D01*
X0213793Y0254026D01*
X0213733Y0254211D01*
X0213667Y0254395D01*
X0213598Y0254577D01*
X0213524Y0254757D01*
X0213445Y0254935D01*
X0213363Y0255112D01*
X0213276Y0255286D01*
X0213185Y0255458D01*
X0213089Y0255628D01*
X0212990Y0255796D01*
X0212886Y0255961D01*
X0212779Y0256123D01*
X0212667Y0256283D01*
X0212552Y0256440D01*
X0212433Y0256594D01*
X0212310Y0256745D01*
X0212184Y0256894D01*
X0212054Y0257039D01*
X0211920Y0257181D01*
X0211783Y0257319D01*
X0211643Y0257454D01*
X0211500Y0257586D01*
X0211353Y0257714D01*
X0211203Y0257839D01*
X0211050Y0257960D01*
X0210895Y0258077D01*
X0210736Y0258191D01*
X0210575Y0258300D01*
X0210411Y0258405D01*
X0210245Y0258507D01*
X0210076Y0258604D01*
X0209905Y0258698D01*
X0209732Y0258787D01*
X0209557Y0258872D01*
X0209379Y0258952D01*
X0209200Y0259028D01*
X0209019Y0259100D01*
X0208836Y0259168D01*
X0208652Y0259230D01*
X0208466Y0259289D01*
X0208279Y0259343D01*
X0208090Y0259392D01*
X0207900Y0259437D01*
X0207710Y0259477D01*
X0207518Y0259512D01*
X0207326Y0259543D01*
X0207133Y0259569D01*
X0206939Y0259590D01*
X0206745Y0259607D01*
X0206551Y0259619D01*
X0206356Y0259626D01*
X0206161Y0259628D01*
X0203161Y0256128D02*
X0196661Y0256128D01*
X0196601Y0256130D01*
X0196540Y0256135D01*
X0196481Y0256144D01*
X0196422Y0256157D01*
X0196363Y0256173D01*
X0196306Y0256193D01*
X0196251Y0256216D01*
X0196196Y0256243D01*
X0196144Y0256272D01*
X0196093Y0256305D01*
X0196044Y0256341D01*
X0195998Y0256379D01*
X0195954Y0256421D01*
X0195912Y0256465D01*
X0195874Y0256511D01*
X0195838Y0256560D01*
X0195805Y0256611D01*
X0195776Y0256663D01*
X0195749Y0256718D01*
X0195726Y0256773D01*
X0195706Y0256830D01*
X0195690Y0256889D01*
X0195677Y0256948D01*
X0195668Y0257007D01*
X0195663Y0257068D01*
X0195661Y0257128D01*
X0195661Y0258628D02*
X0195663Y0258688D01*
X0195668Y0258749D01*
X0195677Y0258808D01*
X0195690Y0258867D01*
X0195706Y0258926D01*
X0195726Y0258983D01*
X0195749Y0259038D01*
X0195776Y0259093D01*
X0195805Y0259145D01*
X0195838Y0259196D01*
X0195874Y0259245D01*
X0195912Y0259291D01*
X0195954Y0259335D01*
X0195998Y0259377D01*
X0196044Y0259415D01*
X0196093Y0259451D01*
X0196144Y0259484D01*
X0196196Y0259513D01*
X0196251Y0259540D01*
X0196306Y0259563D01*
X0196363Y0259583D01*
X0196422Y0259599D01*
X0196481Y0259612D01*
X0196540Y0259621D01*
X0196601Y0259626D01*
X0196661Y0259628D01*
X0217161Y0283988D02*
X0217161Y0323988D01*
X0192661Y0323988D01*
X0195161Y0321888D02*
X0214661Y0321888D01*
X0214661Y0305888D01*
X0195161Y0305888D01*
X0195161Y0321888D01*
X0195661Y0320888D02*
X0195661Y0306888D01*
X0195663Y0306828D01*
X0195668Y0306767D01*
X0195677Y0306708D01*
X0195690Y0306649D01*
X0195706Y0306590D01*
X0195726Y0306533D01*
X0195749Y0306478D01*
X0195776Y0306423D01*
X0195805Y0306371D01*
X0195838Y0306320D01*
X0195874Y0306271D01*
X0195912Y0306225D01*
X0195954Y0306181D01*
X0195998Y0306139D01*
X0196044Y0306101D01*
X0196093Y0306065D01*
X0196144Y0306032D01*
X0196196Y0306003D01*
X0196251Y0305976D01*
X0196306Y0305953D01*
X0196363Y0305933D01*
X0196422Y0305917D01*
X0196481Y0305904D01*
X0196540Y0305895D01*
X0196601Y0305890D01*
X0196661Y0305888D01*
X0195661Y0308388D02*
X0195663Y0308448D01*
X0195668Y0308509D01*
X0195677Y0308568D01*
X0195690Y0308627D01*
X0195706Y0308686D01*
X0195726Y0308743D01*
X0195749Y0308798D01*
X0195776Y0308853D01*
X0195805Y0308905D01*
X0195838Y0308956D01*
X0195874Y0309005D01*
X0195912Y0309051D01*
X0195954Y0309095D01*
X0195998Y0309137D01*
X0196044Y0309175D01*
X0196093Y0309211D01*
X0196144Y0309244D01*
X0196196Y0309273D01*
X0196251Y0309300D01*
X0196306Y0309323D01*
X0196363Y0309343D01*
X0196422Y0309359D01*
X0196481Y0309372D01*
X0196540Y0309381D01*
X0196601Y0309386D01*
X0196661Y0309388D01*
X0203161Y0309388D01*
X0206161Y0305888D02*
X0206356Y0305890D01*
X0206551Y0305897D01*
X0206745Y0305909D01*
X0206939Y0305926D01*
X0207133Y0305947D01*
X0207326Y0305973D01*
X0207518Y0306004D01*
X0207710Y0306039D01*
X0207900Y0306079D01*
X0208090Y0306124D01*
X0208279Y0306173D01*
X0208466Y0306227D01*
X0208652Y0306286D01*
X0208836Y0306348D01*
X0209019Y0306416D01*
X0209200Y0306488D01*
X0209379Y0306564D01*
X0209557Y0306644D01*
X0209732Y0306729D01*
X0209905Y0306818D01*
X0210076Y0306912D01*
X0210245Y0307009D01*
X0210411Y0307111D01*
X0210575Y0307216D01*
X0210736Y0307325D01*
X0210895Y0307439D01*
X0211050Y0307556D01*
X0211203Y0307677D01*
X0211353Y0307802D01*
X0211500Y0307930D01*
X0211643Y0308062D01*
X0211783Y0308197D01*
X0211920Y0308335D01*
X0212054Y0308477D01*
X0212184Y0308622D01*
X0212310Y0308771D01*
X0212433Y0308922D01*
X0212552Y0309076D01*
X0212667Y0309233D01*
X0212779Y0309393D01*
X0212886Y0309555D01*
X0212990Y0309720D01*
X0213089Y0309888D01*
X0213185Y0310058D01*
X0213276Y0310230D01*
X0213363Y0310404D01*
X0213445Y0310581D01*
X0213524Y0310759D01*
X0213598Y0310939D01*
X0213667Y0311121D01*
X0213733Y0311305D01*
X0213793Y0311490D01*
X0213849Y0311677D01*
X0213901Y0311865D01*
X0213948Y0312054D01*
X0213990Y0312244D01*
X0214028Y0312435D01*
X0214061Y0312627D01*
X0214089Y0312820D01*
X0214113Y0313013D01*
X0214132Y0313207D01*
X0214146Y0313401D01*
X0214156Y0313596D01*
X0214160Y0313791D01*
X0214160Y0313985D01*
X0214156Y0314180D01*
X0214146Y0314375D01*
X0214132Y0314569D01*
X0214113Y0314763D01*
X0214089Y0314956D01*
X0214061Y0315149D01*
X0214028Y0315341D01*
X0213990Y0315532D01*
X0213948Y0315722D01*
X0213901Y0315911D01*
X0213849Y0316099D01*
X0213793Y0316286D01*
X0213733Y0316471D01*
X0213667Y0316655D01*
X0213598Y0316837D01*
X0213524Y0317017D01*
X0213445Y0317195D01*
X0213363Y0317372D01*
X0213276Y0317546D01*
X0213185Y0317718D01*
X0213089Y0317888D01*
X0212990Y0318056D01*
X0212886Y0318221D01*
X0212779Y0318383D01*
X0212667Y0318543D01*
X0212552Y0318700D01*
X0212433Y0318854D01*
X0212310Y0319005D01*
X0212184Y0319154D01*
X0212054Y0319299D01*
X0211920Y0319441D01*
X0211783Y0319579D01*
X0211643Y0319714D01*
X0211500Y0319846D01*
X0211353Y0319974D01*
X0211203Y0320099D01*
X0211050Y0320220D01*
X0210895Y0320337D01*
X0210736Y0320451D01*
X0210575Y0320560D01*
X0210411Y0320665D01*
X0210245Y0320767D01*
X0210076Y0320864D01*
X0209905Y0320958D01*
X0209732Y0321047D01*
X0209557Y0321132D01*
X0209379Y0321212D01*
X0209200Y0321288D01*
X0209019Y0321360D01*
X0208836Y0321428D01*
X0208652Y0321490D01*
X0208466Y0321549D01*
X0208279Y0321603D01*
X0208090Y0321652D01*
X0207900Y0321697D01*
X0207710Y0321737D01*
X0207518Y0321772D01*
X0207326Y0321803D01*
X0207133Y0321829D01*
X0206939Y0321850D01*
X0206745Y0321867D01*
X0206551Y0321879D01*
X0206356Y0321886D01*
X0206161Y0321888D01*
X0203161Y0318388D02*
X0196661Y0318388D01*
X0196601Y0318390D01*
X0196540Y0318395D01*
X0196481Y0318404D01*
X0196422Y0318417D01*
X0196363Y0318433D01*
X0196306Y0318453D01*
X0196251Y0318476D01*
X0196196Y0318503D01*
X0196144Y0318532D01*
X0196093Y0318565D01*
X0196044Y0318601D01*
X0195998Y0318639D01*
X0195954Y0318681D01*
X0195912Y0318725D01*
X0195874Y0318771D01*
X0195838Y0318820D01*
X0195805Y0318871D01*
X0195776Y0318923D01*
X0195749Y0318978D01*
X0195726Y0319033D01*
X0195706Y0319090D01*
X0195690Y0319149D01*
X0195677Y0319208D01*
X0195668Y0319267D01*
X0195663Y0319328D01*
X0195661Y0319388D01*
X0195661Y0320888D02*
X0195663Y0320948D01*
X0195668Y0321009D01*
X0195677Y0321068D01*
X0195690Y0321127D01*
X0195706Y0321186D01*
X0195726Y0321243D01*
X0195749Y0321298D01*
X0195776Y0321353D01*
X0195805Y0321405D01*
X0195838Y0321456D01*
X0195874Y0321505D01*
X0195912Y0321551D01*
X0195954Y0321595D01*
X0195998Y0321637D01*
X0196044Y0321675D01*
X0196093Y0321711D01*
X0196144Y0321744D01*
X0196196Y0321773D01*
X0196251Y0321800D01*
X0196306Y0321823D01*
X0196363Y0321843D01*
X0196422Y0321859D01*
X0196481Y0321872D01*
X0196540Y0321881D01*
X0196601Y0321886D01*
X0196661Y0321888D01*
X0195161Y0302088D02*
X0195161Y0286088D01*
X0214661Y0286088D01*
X0214661Y0302088D01*
X0195161Y0302088D01*
X0195661Y0301088D02*
X0195661Y0287088D01*
X0195663Y0287028D01*
X0195668Y0286967D01*
X0195677Y0286908D01*
X0195690Y0286849D01*
X0195706Y0286790D01*
X0195726Y0286733D01*
X0195749Y0286678D01*
X0195776Y0286623D01*
X0195805Y0286571D01*
X0195838Y0286520D01*
X0195874Y0286471D01*
X0195912Y0286425D01*
X0195954Y0286381D01*
X0195998Y0286339D01*
X0196044Y0286301D01*
X0196093Y0286265D01*
X0196144Y0286232D01*
X0196196Y0286203D01*
X0196251Y0286176D01*
X0196306Y0286153D01*
X0196363Y0286133D01*
X0196422Y0286117D01*
X0196481Y0286104D01*
X0196540Y0286095D01*
X0196601Y0286090D01*
X0196661Y0286088D01*
X0195661Y0288588D02*
X0195663Y0288648D01*
X0195668Y0288709D01*
X0195677Y0288768D01*
X0195690Y0288827D01*
X0195706Y0288886D01*
X0195726Y0288943D01*
X0195749Y0288998D01*
X0195776Y0289053D01*
X0195805Y0289105D01*
X0195838Y0289156D01*
X0195874Y0289205D01*
X0195912Y0289251D01*
X0195954Y0289295D01*
X0195998Y0289337D01*
X0196044Y0289375D01*
X0196093Y0289411D01*
X0196144Y0289444D01*
X0196196Y0289473D01*
X0196251Y0289500D01*
X0196306Y0289523D01*
X0196363Y0289543D01*
X0196422Y0289559D01*
X0196481Y0289572D01*
X0196540Y0289581D01*
X0196601Y0289586D01*
X0196661Y0289588D01*
X0203161Y0289588D01*
X0206161Y0286088D02*
X0206356Y0286090D01*
X0206551Y0286097D01*
X0206745Y0286109D01*
X0206939Y0286126D01*
X0207133Y0286147D01*
X0207326Y0286173D01*
X0207518Y0286204D01*
X0207710Y0286239D01*
X0207900Y0286279D01*
X0208090Y0286324D01*
X0208279Y0286373D01*
X0208466Y0286427D01*
X0208652Y0286486D01*
X0208836Y0286548D01*
X0209019Y0286616D01*
X0209200Y0286688D01*
X0209379Y0286764D01*
X0209557Y0286844D01*
X0209732Y0286929D01*
X0209905Y0287018D01*
X0210076Y0287112D01*
X0210245Y0287209D01*
X0210411Y0287311D01*
X0210575Y0287416D01*
X0210736Y0287525D01*
X0210895Y0287639D01*
X0211050Y0287756D01*
X0211203Y0287877D01*
X0211353Y0288002D01*
X0211500Y0288130D01*
X0211643Y0288262D01*
X0211783Y0288397D01*
X0211920Y0288535D01*
X0212054Y0288677D01*
X0212184Y0288822D01*
X0212310Y0288971D01*
X0212433Y0289122D01*
X0212552Y0289276D01*
X0212667Y0289433D01*
X0212779Y0289593D01*
X0212886Y0289755D01*
X0212990Y0289920D01*
X0213089Y0290088D01*
X0213185Y0290258D01*
X0213276Y0290430D01*
X0213363Y0290604D01*
X0213445Y0290781D01*
X0213524Y0290959D01*
X0213598Y0291139D01*
X0213667Y0291321D01*
X0213733Y0291505D01*
X0213793Y0291690D01*
X0213849Y0291877D01*
X0213901Y0292065D01*
X0213948Y0292254D01*
X0213990Y0292444D01*
X0214028Y0292635D01*
X0214061Y0292827D01*
X0214089Y0293020D01*
X0214113Y0293213D01*
X0214132Y0293407D01*
X0214146Y0293601D01*
X0214156Y0293796D01*
X0214160Y0293991D01*
X0214160Y0294185D01*
X0214156Y0294380D01*
X0214146Y0294575D01*
X0214132Y0294769D01*
X0214113Y0294963D01*
X0214089Y0295156D01*
X0214061Y0295349D01*
X0214028Y0295541D01*
X0213990Y0295732D01*
X0213948Y0295922D01*
X0213901Y0296111D01*
X0213849Y0296299D01*
X0213793Y0296486D01*
X0213733Y0296671D01*
X0213667Y0296855D01*
X0213598Y0297037D01*
X0213524Y0297217D01*
X0213445Y0297395D01*
X0213363Y0297572D01*
X0213276Y0297746D01*
X0213185Y0297918D01*
X0213089Y0298088D01*
X0212990Y0298256D01*
X0212886Y0298421D01*
X0212779Y0298583D01*
X0212667Y0298743D01*
X0212552Y0298900D01*
X0212433Y0299054D01*
X0212310Y0299205D01*
X0212184Y0299354D01*
X0212054Y0299499D01*
X0211920Y0299641D01*
X0211783Y0299779D01*
X0211643Y0299914D01*
X0211500Y0300046D01*
X0211353Y0300174D01*
X0211203Y0300299D01*
X0211050Y0300420D01*
X0210895Y0300537D01*
X0210736Y0300651D01*
X0210575Y0300760D01*
X0210411Y0300865D01*
X0210245Y0300967D01*
X0210076Y0301064D01*
X0209905Y0301158D01*
X0209732Y0301247D01*
X0209557Y0301332D01*
X0209379Y0301412D01*
X0209200Y0301488D01*
X0209019Y0301560D01*
X0208836Y0301628D01*
X0208652Y0301690D01*
X0208466Y0301749D01*
X0208279Y0301803D01*
X0208090Y0301852D01*
X0207900Y0301897D01*
X0207710Y0301937D01*
X0207518Y0301972D01*
X0207326Y0302003D01*
X0207133Y0302029D01*
X0206939Y0302050D01*
X0206745Y0302067D01*
X0206551Y0302079D01*
X0206356Y0302086D01*
X0206161Y0302088D01*
X0203161Y0298588D02*
X0196661Y0298588D01*
X0196601Y0298590D01*
X0196540Y0298595D01*
X0196481Y0298604D01*
X0196422Y0298617D01*
X0196363Y0298633D01*
X0196306Y0298653D01*
X0196251Y0298676D01*
X0196196Y0298703D01*
X0196144Y0298732D01*
X0196093Y0298765D01*
X0196044Y0298801D01*
X0195998Y0298839D01*
X0195954Y0298881D01*
X0195912Y0298925D01*
X0195874Y0298971D01*
X0195838Y0299020D01*
X0195805Y0299071D01*
X0195776Y0299123D01*
X0195749Y0299178D01*
X0195726Y0299233D01*
X0195706Y0299290D01*
X0195690Y0299349D01*
X0195677Y0299408D01*
X0195668Y0299467D01*
X0195663Y0299528D01*
X0195661Y0299588D01*
X0195661Y0301088D02*
X0195663Y0301148D01*
X0195668Y0301209D01*
X0195677Y0301268D01*
X0195690Y0301327D01*
X0195706Y0301386D01*
X0195726Y0301443D01*
X0195749Y0301498D01*
X0195776Y0301553D01*
X0195805Y0301605D01*
X0195838Y0301656D01*
X0195874Y0301705D01*
X0195912Y0301751D01*
X0195954Y0301795D01*
X0195998Y0301837D01*
X0196044Y0301875D01*
X0196093Y0301911D01*
X0196144Y0301944D01*
X0196196Y0301973D01*
X0196251Y0302000D01*
X0196306Y0302023D01*
X0196363Y0302043D01*
X0196422Y0302059D01*
X0196481Y0302072D01*
X0196540Y0302081D01*
X0196601Y0302086D01*
X0196661Y0302088D01*
X0215211Y0325658D02*
X0215211Y0332063D01*
X0219481Y0325658D01*
X0219481Y0332063D01*
X0224371Y0321028D02*
X0235371Y0321028D01*
X0235469Y0321026D01*
X0235567Y0321020D01*
X0235665Y0321011D01*
X0235762Y0320997D01*
X0235859Y0320980D01*
X0235955Y0320959D01*
X0236050Y0320934D01*
X0236144Y0320906D01*
X0236236Y0320873D01*
X0236328Y0320838D01*
X0236418Y0320798D01*
X0236506Y0320756D01*
X0236593Y0320709D01*
X0236677Y0320660D01*
X0236760Y0320607D01*
X0236840Y0320551D01*
X0236919Y0320491D01*
X0236995Y0320429D01*
X0237068Y0320364D01*
X0237139Y0320296D01*
X0237207Y0320225D01*
X0237272Y0320152D01*
X0237334Y0320076D01*
X0237394Y0319997D01*
X0237450Y0319917D01*
X0237503Y0319834D01*
X0237552Y0319750D01*
X0237599Y0319663D01*
X0237641Y0319575D01*
X0237681Y0319485D01*
X0237716Y0319393D01*
X0237749Y0319301D01*
X0237777Y0319207D01*
X0237802Y0319112D01*
X0237823Y0319016D01*
X0237840Y0318919D01*
X0237854Y0318822D01*
X0237863Y0318724D01*
X0237869Y0318626D01*
X0237871Y0318528D01*
X0237871Y0289528D01*
X0237869Y0289430D01*
X0237863Y0289332D01*
X0237854Y0289234D01*
X0237840Y0289137D01*
X0237823Y0289040D01*
X0237802Y0288944D01*
X0237777Y0288849D01*
X0237749Y0288755D01*
X0237716Y0288663D01*
X0237681Y0288571D01*
X0237641Y0288481D01*
X0237599Y0288393D01*
X0237552Y0288306D01*
X0237503Y0288222D01*
X0237450Y0288139D01*
X0237394Y0288059D01*
X0237334Y0287980D01*
X0237272Y0287904D01*
X0237207Y0287831D01*
X0237139Y0287760D01*
X0237068Y0287692D01*
X0236995Y0287627D01*
X0236919Y0287565D01*
X0236840Y0287505D01*
X0236760Y0287449D01*
X0236677Y0287396D01*
X0236593Y0287347D01*
X0236506Y0287300D01*
X0236418Y0287258D01*
X0236328Y0287218D01*
X0236236Y0287183D01*
X0236144Y0287150D01*
X0236050Y0287122D01*
X0235955Y0287097D01*
X0235859Y0287076D01*
X0235762Y0287059D01*
X0235665Y0287045D01*
X0235567Y0287036D01*
X0235469Y0287030D01*
X0235371Y0287028D01*
X0224371Y0287028D01*
X0224273Y0287030D01*
X0224175Y0287036D01*
X0224077Y0287045D01*
X0223980Y0287059D01*
X0223883Y0287076D01*
X0223787Y0287097D01*
X0223692Y0287122D01*
X0223598Y0287150D01*
X0223506Y0287183D01*
X0223414Y0287218D01*
X0223324Y0287258D01*
X0223236Y0287300D01*
X0223149Y0287347D01*
X0223065Y0287396D01*
X0222982Y0287449D01*
X0222902Y0287505D01*
X0222823Y0287565D01*
X0222747Y0287627D01*
X0222674Y0287692D01*
X0222603Y0287760D01*
X0222535Y0287831D01*
X0222470Y0287904D01*
X0222408Y0287980D01*
X0222348Y0288059D01*
X0222292Y0288139D01*
X0222239Y0288222D01*
X0222190Y0288306D01*
X0222143Y0288393D01*
X0222101Y0288481D01*
X0222061Y0288571D01*
X0222026Y0288663D01*
X0221993Y0288755D01*
X0221965Y0288849D01*
X0221940Y0288944D01*
X0221919Y0289040D01*
X0221902Y0289137D01*
X0221888Y0289234D01*
X0221879Y0289332D01*
X0221873Y0289430D01*
X0221871Y0289528D01*
X0221871Y0318528D01*
X0221873Y0318626D01*
X0221879Y0318724D01*
X0221888Y0318822D01*
X0221902Y0318919D01*
X0221919Y0319016D01*
X0221940Y0319112D01*
X0221965Y0319207D01*
X0221993Y0319301D01*
X0222026Y0319393D01*
X0222061Y0319485D01*
X0222101Y0319575D01*
X0222143Y0319663D01*
X0222190Y0319750D01*
X0222239Y0319834D01*
X0222292Y0319917D01*
X0222348Y0319997D01*
X0222408Y0320076D01*
X0222470Y0320152D01*
X0222535Y0320225D01*
X0222603Y0320296D01*
X0222674Y0320364D01*
X0222747Y0320429D01*
X0222823Y0320491D01*
X0222902Y0320551D01*
X0222982Y0320607D01*
X0223065Y0320660D01*
X0223149Y0320709D01*
X0223236Y0320756D01*
X0223324Y0320798D01*
X0223414Y0320838D01*
X0223506Y0320873D01*
X0223598Y0320906D01*
X0223692Y0320934D01*
X0223787Y0320959D01*
X0223883Y0320980D01*
X0223980Y0320997D01*
X0224077Y0321011D01*
X0224175Y0321020D01*
X0224273Y0321026D01*
X0224371Y0321028D01*
X0218961Y0289563D02*
X0218961Y0283158D01*
X0223231Y0283158D01*
X0203861Y0184028D02*
X0203861Y0179528D01*
X0207361Y0159528D02*
X0240361Y0159528D01*
X0247361Y0159528D02*
X0252861Y0159528D01*
X0309821Y0159528D02*
X0315321Y0159528D01*
X0315321Y0238528D01*
X0309821Y0238528D01*
X0336161Y0234108D02*
X0336161Y0229108D01*
X0338661Y0226608D01*
X0336161Y0224108D01*
X0336161Y0219108D01*
X0338661Y0216608D01*
X0336161Y0214108D01*
X0336161Y0209108D01*
X0338661Y0206608D01*
X0336161Y0204108D01*
X0336161Y0199108D01*
X0338661Y0196608D01*
X0336161Y0194108D01*
X0336161Y0189108D01*
X0338661Y0186608D01*
X0336161Y0184108D01*
X0336161Y0179108D01*
X0338661Y0176608D01*
X0343661Y0176608D01*
X0346161Y0179108D01*
X0346161Y0184108D01*
X0343661Y0186608D01*
X0346161Y0189108D01*
X0346161Y0194108D01*
X0343661Y0196608D01*
X0346161Y0199108D01*
X0346161Y0204108D01*
X0343661Y0206608D01*
X0346161Y0209108D01*
X0346161Y0214108D01*
X0343661Y0216608D01*
X0346161Y0219108D01*
X0346161Y0224108D01*
X0343661Y0226608D01*
X0346161Y0229108D01*
X0346161Y0234108D01*
X0343661Y0236608D01*
X0338661Y0236608D01*
X0336161Y0234108D01*
D12*
X0308316Y0248805D02*
X0307549Y0248038D01*
X0306014Y0248038D01*
X0305247Y0248805D01*
X0303712Y0248805D02*
X0303712Y0251874D01*
X0300643Y0248805D01*
X0301410Y0248038D01*
X0302945Y0248038D01*
X0303712Y0248805D01*
X0300643Y0248805D02*
X0300643Y0251874D01*
X0301410Y0252642D01*
X0302945Y0252642D01*
X0303712Y0251874D01*
X0305247Y0251874D02*
X0306014Y0252642D01*
X0307549Y0252642D01*
X0308316Y0251874D01*
X0308316Y0251107D01*
X0307549Y0250340D01*
X0308316Y0249572D01*
X0308316Y0248805D01*
X0307549Y0250340D02*
X0306782Y0250340D01*
X0299108Y0251874D02*
X0299108Y0248805D01*
X0298341Y0248038D01*
X0296807Y0248038D01*
X0296039Y0248805D01*
X0299108Y0251874D01*
X0298341Y0252642D01*
X0296807Y0252642D01*
X0296039Y0251874D01*
X0296039Y0248805D01*
X0294505Y0250340D02*
X0291435Y0250340D01*
X0289901Y0250340D02*
X0289901Y0248805D01*
X0289133Y0248038D01*
X0287599Y0248038D01*
X0286831Y0248805D01*
X0285297Y0248805D02*
X0285297Y0251874D01*
X0282227Y0248805D01*
X0282995Y0248038D01*
X0284529Y0248038D01*
X0285297Y0248805D01*
X0286831Y0250340D02*
X0286831Y0252642D01*
X0289901Y0252642D01*
X0289133Y0251107D02*
X0289901Y0250340D01*
X0289133Y0251107D02*
X0288366Y0251107D01*
X0286831Y0250340D01*
X0285297Y0251874D02*
X0284529Y0252642D01*
X0282995Y0252642D01*
X0282227Y0251874D01*
X0282227Y0248805D01*
X0280693Y0248805D02*
X0279925Y0248038D01*
X0278391Y0248038D01*
X0277623Y0248805D01*
X0280693Y0251874D01*
X0280693Y0248805D01*
X0280693Y0251874D02*
X0279925Y0252642D01*
X0278391Y0252642D01*
X0277623Y0251874D01*
X0277623Y0248805D01*
X0276089Y0250340D02*
X0273020Y0250340D01*
X0271485Y0250340D02*
X0268416Y0250340D01*
X0270718Y0252642D01*
X0270718Y0248038D01*
X0266881Y0248038D02*
X0263812Y0248038D01*
X0265346Y0248038D02*
X0265346Y0252642D01*
X0263812Y0251107D01*
X0262277Y0251107D02*
X0262277Y0251874D01*
X0261510Y0252642D01*
X0259975Y0252642D01*
X0259208Y0251874D01*
X0257673Y0250340D02*
X0254604Y0250340D01*
X0253069Y0252642D02*
X0250000Y0248038D01*
X0253069Y0248038D02*
X0250000Y0252642D01*
X0248465Y0252642D02*
X0245396Y0252642D01*
X0243861Y0252642D02*
X0243861Y0249572D01*
X0242327Y0248038D01*
X0240792Y0249572D01*
X0240792Y0252642D01*
X0235742Y0252377D02*
X0232673Y0249308D01*
X0235742Y0249308D01*
X0235742Y0252377D02*
X0235742Y0253144D01*
X0234975Y0253912D01*
X0233440Y0253912D01*
X0232673Y0253144D01*
X0231138Y0253912D02*
X0228069Y0253912D01*
X0229604Y0253912D02*
X0229604Y0249308D01*
X0226534Y0250075D02*
X0226534Y0253912D01*
X0223465Y0253912D02*
X0223465Y0250075D01*
X0224232Y0249308D01*
X0225767Y0249308D01*
X0226534Y0250075D01*
X0221930Y0250075D02*
X0221930Y0253144D01*
X0221163Y0253912D01*
X0219628Y0253912D01*
X0218861Y0253144D01*
X0218861Y0250075D01*
X0219628Y0249308D01*
X0221163Y0249308D01*
X0221930Y0250075D01*
X0221163Y0270558D02*
X0221930Y0271325D01*
X0221930Y0274394D01*
X0221163Y0275162D01*
X0219628Y0275162D01*
X0218861Y0274394D01*
X0218861Y0271325D01*
X0219628Y0270558D01*
X0221163Y0270558D01*
X0223465Y0271325D02*
X0224232Y0270558D01*
X0225767Y0270558D01*
X0226534Y0271325D01*
X0226534Y0275162D01*
X0228069Y0275162D02*
X0231138Y0275162D01*
X0229604Y0275162D02*
X0229604Y0270558D01*
X0232673Y0270558D02*
X0235742Y0270558D01*
X0234208Y0270558D02*
X0234208Y0275162D01*
X0232673Y0273627D01*
X0223465Y0275162D02*
X0223465Y0271325D01*
X0246931Y0252642D02*
X0246931Y0248038D01*
X0259208Y0248038D02*
X0262277Y0251107D01*
X0262277Y0248038D02*
X0259208Y0248038D01*
X0257450Y0310360D02*
X0254381Y0310360D01*
X0257450Y0313430D01*
X0257450Y0314197D01*
X0256683Y0314964D01*
X0255148Y0314964D01*
X0254381Y0314197D01*
X0261435Y0313430D02*
X0261435Y0310360D01*
X0261435Y0312662D02*
X0264505Y0312662D01*
X0264505Y0313430D02*
X0264505Y0310360D01*
X0266039Y0311128D02*
X0266807Y0310360D01*
X0268341Y0310360D01*
X0269109Y0311128D01*
X0270643Y0310360D02*
X0273713Y0314964D01*
X0275247Y0314964D02*
X0275247Y0310360D01*
X0278316Y0310360D01*
X0269109Y0314197D02*
X0268341Y0314964D01*
X0266807Y0314964D01*
X0266039Y0314197D01*
X0266039Y0311128D01*
X0264505Y0313430D02*
X0262970Y0314964D01*
X0261435Y0313430D01*
X0257450Y0325715D02*
X0254381Y0325715D01*
X0255916Y0325715D02*
X0255916Y0330319D01*
X0254381Y0328784D01*
X0261435Y0330715D02*
X0261435Y0333784D01*
X0262970Y0335319D01*
X0264505Y0333784D01*
X0264505Y0330715D01*
X0266039Y0331482D02*
X0266807Y0330715D01*
X0268341Y0330715D01*
X0269109Y0331482D01*
X0270643Y0330715D02*
X0273713Y0335319D01*
X0275247Y0335319D02*
X0278316Y0330715D01*
X0278316Y0335319D01*
X0275247Y0335319D02*
X0275247Y0330715D01*
X0269109Y0334551D02*
X0268341Y0335319D01*
X0266807Y0335319D01*
X0266039Y0334551D01*
X0266039Y0331482D01*
X0264505Y0333017D02*
X0261435Y0333017D01*
X0311509Y0330397D02*
X0311509Y0327328D01*
X0313044Y0325794D01*
X0314579Y0327328D01*
X0314579Y0330397D01*
X0316113Y0328095D02*
X0319183Y0328095D01*
X0317648Y0329630D02*
X0317648Y0326561D01*
X0322499Y0325757D02*
X0324034Y0326524D01*
X0324801Y0326524D01*
X0325568Y0325757D01*
X0325568Y0324222D01*
X0324801Y0323455D01*
X0323266Y0323455D01*
X0322499Y0324222D01*
X0322499Y0325757D02*
X0322499Y0328059D01*
X0325568Y0328059D01*
X0314579Y0293665D02*
X0314579Y0290596D01*
X0313044Y0289061D01*
X0311509Y0290596D01*
X0311509Y0293665D01*
X0316113Y0291363D02*
X0319183Y0291363D01*
X0324478Y0287130D02*
X0322176Y0284828D01*
X0325246Y0284828D01*
X0324478Y0282526D02*
X0324478Y0287130D01*
X0281121Y0187297D02*
X0279586Y0185762D01*
X0279586Y0186530D02*
X0279586Y0184228D01*
X0281121Y0184228D02*
X0276517Y0184228D01*
X0276517Y0186530D01*
X0277285Y0187297D01*
X0278819Y0187297D01*
X0279586Y0186530D01*
X0279586Y0172297D02*
X0280354Y0172297D01*
X0281121Y0171530D01*
X0281121Y0169995D01*
X0280354Y0169228D01*
X0278819Y0169995D02*
X0278819Y0171530D01*
X0279586Y0172297D01*
X0277285Y0172297D02*
X0276517Y0171530D01*
X0276517Y0169995D01*
X0277285Y0169228D01*
X0278052Y0169228D01*
X0278819Y0169995D01*
X0218661Y0169995D02*
X0217894Y0169228D01*
X0218661Y0169995D02*
X0218661Y0171530D01*
X0217894Y0172297D01*
X0217126Y0172297D01*
X0216359Y0171530D01*
X0216359Y0169995D01*
X0215592Y0169228D01*
X0214825Y0169228D01*
X0214057Y0169995D01*
X0214057Y0171530D01*
X0214825Y0172297D01*
X0214057Y0184228D02*
X0214057Y0186530D01*
X0214825Y0187297D01*
X0216359Y0187297D01*
X0217126Y0186530D01*
X0217126Y0184228D01*
X0217126Y0185762D02*
X0218661Y0187297D01*
X0218661Y0184228D02*
X0214057Y0184228D01*
D13*
X0191161Y0241528D02*
X0191161Y0281528D01*
X0191161Y0283988D02*
X0191161Y0323988D01*
X0194161Y0322888D02*
X0194161Y0304888D01*
X0215661Y0304888D01*
X0215661Y0322888D01*
X0194161Y0322888D01*
X0194161Y0303088D02*
X0215661Y0303088D01*
X0215661Y0285088D01*
X0194161Y0285088D01*
X0194161Y0303088D01*
X0194161Y0280428D02*
X0194161Y0262428D01*
X0215661Y0262428D01*
X0215661Y0280428D01*
X0194161Y0280428D01*
X0194161Y0260628D02*
X0215661Y0260628D01*
X0215661Y0242628D01*
X0194161Y0242628D01*
X0194161Y0260628D01*
D14*
X0188411Y0252676D02*
X0188411Y0249674D01*
X0185409Y0252676D01*
X0184658Y0252676D01*
X0183907Y0251926D01*
X0183907Y0250424D01*
X0184658Y0249674D01*
X0185409Y0269674D02*
X0183907Y0271175D01*
X0188411Y0271175D01*
X0188411Y0269674D02*
X0188411Y0272676D01*
X0188411Y0292134D02*
X0185409Y0295136D01*
X0184658Y0295136D01*
X0183907Y0294386D01*
X0183907Y0292884D01*
X0184658Y0292134D01*
X0188411Y0292134D02*
X0188411Y0295136D01*
X0188411Y0312134D02*
X0188411Y0315136D01*
X0188411Y0313635D02*
X0183907Y0313635D01*
X0185409Y0312134D01*
X0187781Y0325858D02*
X0187781Y0328860D01*
X0189282Y0330361D01*
X0190784Y0328860D01*
X0190784Y0325858D01*
X0192385Y0326608D02*
X0193136Y0325858D01*
X0194637Y0325858D01*
X0195388Y0326608D01*
X0196989Y0328110D02*
X0199992Y0328110D01*
X0201593Y0330361D02*
X0203094Y0330361D01*
X0202344Y0330361D02*
X0202344Y0325858D01*
X0203094Y0325858D02*
X0201593Y0325858D01*
X0204662Y0325858D02*
X0204662Y0330361D01*
X0207665Y0325858D01*
X0207665Y0330361D01*
X0195388Y0329611D02*
X0194637Y0330361D01*
X0193136Y0330361D01*
X0192385Y0329611D01*
X0192385Y0326608D01*
X0190784Y0328110D02*
X0187781Y0328110D01*
X0223783Y0326321D02*
X0223783Y0321818D01*
X0223783Y0324070D02*
X0225285Y0324070D01*
X0226786Y0326321D02*
X0223783Y0326321D01*
X0228387Y0324820D02*
X0229888Y0326321D01*
X0229888Y0321818D01*
X0228387Y0321818D02*
X0231390Y0321818D01*
X0239690Y0342838D02*
X0339612Y0342838D01*
X0339612Y0242838D01*
X0239690Y0242838D01*
X0239690Y0342838D01*
X0226359Y0235780D02*
X0226359Y0232778D01*
X0224107Y0235030D01*
X0228611Y0235030D01*
X0227860Y0205780D02*
X0228611Y0205030D01*
X0228611Y0203528D01*
X0227860Y0202778D01*
X0226359Y0204279D02*
X0226359Y0205030D01*
X0227110Y0205780D01*
X0227860Y0205780D01*
X0226359Y0205030D02*
X0225609Y0205780D01*
X0224858Y0205780D01*
X0224107Y0205030D01*
X0224107Y0203528D01*
X0224858Y0202778D01*
X0229858Y0180780D02*
X0229107Y0180030D01*
X0229107Y0178528D01*
X0229858Y0177778D01*
X0229858Y0180780D02*
X0230609Y0180780D01*
X0233611Y0177778D01*
X0233611Y0180780D01*
X0233611Y0165780D02*
X0233611Y0162778D01*
X0233611Y0164279D02*
X0229107Y0164279D01*
X0230609Y0162778D01*
X0217860Y0163279D02*
X0214858Y0163279D01*
X0213611Y0163528D02*
X0212860Y0162778D01*
X0212110Y0162778D01*
X0211359Y0163528D01*
X0211359Y0165030D01*
X0212110Y0165780D01*
X0212860Y0165780D01*
X0213611Y0165030D01*
X0213611Y0163528D01*
X0211359Y0163528D02*
X0210609Y0162778D01*
X0209858Y0162778D01*
X0209107Y0163528D01*
X0209107Y0165030D01*
X0209858Y0165780D01*
X0210609Y0165780D01*
X0211359Y0165030D01*
X0216359Y0164780D02*
X0216359Y0161778D01*
X0216359Y0176778D02*
X0216359Y0179780D01*
X0214858Y0178279D02*
X0217860Y0178279D01*
X0213611Y0177778D02*
X0212860Y0177778D01*
X0209858Y0180780D01*
X0209107Y0180780D01*
X0209107Y0177778D01*
X0271567Y0177778D02*
X0271567Y0180780D01*
X0272318Y0180780D01*
X0275320Y0177778D01*
X0276071Y0177778D01*
X0277318Y0178279D02*
X0280320Y0178279D01*
X0278819Y0176778D02*
X0278819Y0179780D01*
X0291567Y0180030D02*
X0291567Y0178528D01*
X0292318Y0177778D01*
X0291567Y0180030D02*
X0292318Y0180780D01*
X0293069Y0180780D01*
X0296071Y0177778D01*
X0296071Y0180780D01*
X0296071Y0165780D02*
X0296071Y0162778D01*
X0296071Y0164279D02*
X0291567Y0164279D01*
X0293069Y0162778D01*
X0280320Y0163279D02*
X0277318Y0163279D01*
X0276071Y0163528D02*
X0275320Y0162778D01*
X0274570Y0162778D01*
X0273819Y0163528D01*
X0273819Y0165030D01*
X0274570Y0165780D01*
X0275320Y0165780D01*
X0276071Y0165030D01*
X0276071Y0163528D01*
X0273819Y0163528D02*
X0273069Y0162778D01*
X0272318Y0162778D01*
X0271567Y0163528D01*
X0271567Y0165030D01*
X0272318Y0165780D01*
X0273069Y0165780D01*
X0273819Y0165030D01*
X0278819Y0164780D02*
X0278819Y0161778D01*
X0287318Y0202778D02*
X0286567Y0203528D01*
X0286567Y0205030D01*
X0287318Y0205780D01*
X0288069Y0205780D01*
X0288819Y0205030D01*
X0289570Y0205780D01*
X0290320Y0205780D01*
X0291071Y0205030D01*
X0291071Y0203528D01*
X0290320Y0202778D01*
X0288819Y0204279D02*
X0288819Y0205030D01*
X0288819Y0232778D02*
X0288819Y0235780D01*
X0286567Y0235030D02*
X0288819Y0232778D01*
X0291071Y0235030D02*
X0286567Y0235030D01*
X0329907Y0231255D02*
X0334411Y0231255D01*
X0334411Y0229754D02*
X0334411Y0232756D01*
X0331409Y0229754D02*
X0329907Y0231255D01*
X0347907Y0182756D02*
X0348658Y0181255D01*
X0350159Y0179754D01*
X0350159Y0182006D01*
X0350910Y0182756D01*
X0351660Y0182756D01*
X0352411Y0182006D01*
X0352411Y0180504D01*
X0351660Y0179754D01*
X0350159Y0179754D01*
D15*
X0197911Y0251628D03*
X0197911Y0271428D03*
X0197911Y0294088D03*
X0197911Y0313888D03*
D16*
X0221361Y0189028D02*
X0221361Y0184028D01*
X0221361Y0179028D01*
X0226361Y0179028D01*
X0226361Y0184028D01*
X0226361Y0189028D01*
X0221361Y0189028D01*
X0221361Y0174028D02*
X0221361Y0169028D01*
X0221361Y0164028D01*
X0226361Y0164028D01*
X0226361Y0169028D01*
X0226361Y0174028D01*
X0221361Y0174028D01*
X0283821Y0174028D02*
X0283821Y0169028D01*
X0283821Y0164028D01*
X0288821Y0164028D01*
X0288821Y0169028D01*
X0288821Y0174028D01*
X0283821Y0174028D01*
X0283821Y0179028D02*
X0283821Y0184028D01*
X0283821Y0189028D01*
X0288821Y0189028D01*
X0288821Y0184028D01*
X0288821Y0179028D01*
X0283821Y0179028D01*
D17*
X0316530Y0224628D02*
X0316530Y0230933D01*
X0317581Y0227780D02*
X0320734Y0224628D01*
X0322976Y0224628D02*
X0327179Y0224628D01*
X0325077Y0224628D02*
X0325077Y0230933D01*
X0322976Y0228831D01*
X0320734Y0230933D02*
X0316530Y0226729D01*
X0192219Y0227581D02*
X0192219Y0228632D01*
X0191168Y0229683D01*
X0189067Y0229683D01*
X0188016Y0228632D01*
X0185774Y0229683D02*
X0181570Y0225479D01*
X0182621Y0226530D02*
X0185774Y0223378D01*
X0188016Y0223378D02*
X0192219Y0227581D01*
X0192219Y0223378D02*
X0188016Y0223378D01*
X0181570Y0223378D02*
X0181570Y0229683D01*
M02*
