%
M48
M72
T01C0.0200
T02C0.0236
T03C0.0400
%
T01
X11157Y8702
X11157Y9202
X11157Y9702
X11157Y10202
T02
X11907Y12202
X13157Y10952
X9157Y13827
X8907Y12827
X7532Y10702
X7282Y9327
X6532Y8452
X7657Y8202
X7782Y7327
X8282Y5327
X8282Y4327
X8282Y3327
X5532Y5702
X4282Y6077
X3532Y6077
X1016Y6827
X1411Y9833
X2192Y9952
X1782Y11577
X5532Y11952
X6907Y12202
X7032Y14577
X6657Y15327
X6157Y14577
X2290Y1077
T03
X1417Y1077
X1417Y2077
X1417Y3077
X1417Y4077
X1417Y5077
X1417Y6077
X10407Y4327
X10407Y3327
X10407Y2327
X10407Y1327
X12532Y2327
X12532Y3327
X12532Y4327
X12532Y5327
X12532Y6327
X12532Y7327
M30
