G75*
%MOIN*%
%OFA0B0*%
%FSLAX25Y25*%
%IPPOS*%
%LPD*%
%AMOC8*
5,1,8,0,0,1.08239X$1,22.5*
%
%ADD10C,0.00000*%
%ADD11R,0.08000X0.02600*%
%ADD12R,0.07087X0.04724*%
%ADD13R,0.04724X0.07087*%
%ADD14R,0.07874X0.04724*%
%ADD15R,0.08465X0.07087*%
D10*
X0002817Y0003271D02*
X0002817Y0160771D01*
X0030317Y0188271D01*
X0117817Y0188271D01*
X0137817Y0168271D01*
X0137817Y0020771D01*
X0120317Y0003271D01*
X0002817Y0003271D01*
D11*
X0080517Y0128271D03*
X0080517Y0133271D03*
X0080517Y0138271D03*
X0080517Y0143271D03*
X0080517Y0148271D03*
X0080517Y0153271D03*
X0080517Y0158271D03*
X0080517Y0163271D03*
X0080517Y0168271D03*
X0120117Y0168271D03*
X0120117Y0163271D03*
X0120117Y0158271D03*
X0120117Y0153271D03*
X0120117Y0148271D03*
X0120117Y0143271D03*
X0120117Y0138271D03*
X0120117Y0133271D03*
X0120117Y0128271D03*
D12*
X0109968Y0133271D03*
X0098165Y0133271D03*
X0094415Y0149521D03*
X0094415Y0159521D03*
X0094415Y0168271D03*
X0106218Y0168271D03*
X0106218Y0159521D03*
X0106218Y0149521D03*
X0062468Y0107021D03*
X0050665Y0107021D03*
X0037468Y0107021D03*
X0025665Y0107021D03*
X0025665Y0122021D03*
X0037468Y0122021D03*
D13*
X0061567Y0122369D03*
X0061567Y0134172D03*
X0014067Y0091672D03*
X0014067Y0079869D03*
D14*
X0026537Y0077149D03*
X0026537Y0069275D03*
X0026537Y0061401D03*
X0026537Y0053526D03*
X0026537Y0045652D03*
X0026537Y0037778D03*
X0026537Y0085023D03*
X0026537Y0092897D03*
X0090317Y0092897D03*
X0090317Y0085023D03*
X0090317Y0077149D03*
X0090317Y0069275D03*
X0090317Y0061401D03*
X0090317Y0053526D03*
X0090317Y0045652D03*
X0090317Y0037778D03*
D15*
X0088664Y0114481D03*
X0077050Y0114481D03*
M02*
