G75*
%MOIN*%
%OFA0B0*%
%FSLAX25Y25*%
%IPPOS*%
%LPD*%
%AMOC8*
5,1,8,0,0,1.08239X$1,22.5*
%
%ADD10C,0.00000*%
%ADD11C,0.06000*%
%ADD12C,0.04000*%
%ADD13R,0.03562X0.03562*%
%ADD14C,0.02400*%
%ADD15C,0.01600*%
D10*
X0002817Y0003271D02*
X0002817Y0160771D01*
X0030317Y0188271D01*
X0117817Y0188271D01*
X0137817Y0168271D01*
X0137817Y0020771D01*
X0120317Y0003271D01*
X0002817Y0003271D01*
D11*
X0011167Y0010771D02*
X0017167Y0010771D01*
X0017167Y0020771D02*
X0011167Y0020771D01*
X0011167Y0030771D02*
X0017167Y0030771D01*
X0017167Y0040771D02*
X0011167Y0040771D01*
X0011167Y0050771D02*
X0017167Y0050771D01*
X0017167Y0060771D02*
X0011167Y0060771D01*
X0101067Y0043271D02*
X0107067Y0043271D01*
X0107067Y0033271D02*
X0101067Y0033271D01*
X0101067Y0023271D02*
X0107067Y0023271D01*
X0107067Y0013271D02*
X0101067Y0013271D01*
X0122317Y0023271D02*
X0128317Y0023271D01*
X0128317Y0033271D02*
X0122317Y0033271D01*
X0122317Y0043271D02*
X0128317Y0043271D01*
X0128317Y0053271D02*
X0122317Y0053271D01*
X0122317Y0063271D02*
X0128317Y0063271D01*
X0128317Y0073271D02*
X0122317Y0073271D01*
D12*
X0111567Y0087021D03*
X0111567Y0092021D03*
X0111567Y0097021D03*
X0111567Y0102021D03*
D13*
X0119067Y0122021D03*
X0131567Y0109521D03*
X0091567Y0138271D03*
X0089067Y0128271D03*
X0075317Y0107021D03*
X0072817Y0093271D03*
X0065317Y0084521D03*
X0076567Y0082021D03*
X0077817Y0073271D03*
X0082817Y0053271D03*
X0082817Y0043271D03*
X0082817Y0033271D03*
X0055317Y0057021D03*
X0042817Y0060771D03*
X0035317Y0060771D03*
X0010157Y0068271D03*
X0014107Y0098331D03*
X0021915Y0099521D03*
X0017817Y0115771D03*
X0055317Y0119521D03*
X0069067Y0122021D03*
X0070317Y0145771D03*
X0066567Y0153271D03*
X0061567Y0145771D03*
X0022897Y0010771D03*
D14*
X0022897Y0050771D02*
X0060317Y0050771D01*
X0075317Y0050771D01*
X0077817Y0048271D01*
X0104067Y0048271D01*
X0104067Y0043271D01*
X0104067Y0048271D02*
X0111567Y0048271D01*
X0114067Y0045771D01*
X0114067Y0033271D01*
X0125317Y0033271D01*
X0072817Y0093271D02*
X0065317Y0093271D01*
X0060317Y0088271D01*
X0060317Y0050771D01*
X0022897Y0050771D02*
X0022897Y0067081D01*
X0014107Y0074581D01*
X0014107Y0098331D01*
X0069067Y0122021D02*
X0119067Y0122021D01*
D15*
X0122848Y0121560D02*
X0135317Y0121560D01*
X0135317Y0119962D02*
X0122848Y0119962D01*
X0122848Y0119411D02*
X0121676Y0118239D01*
X0116457Y0118239D01*
X0115876Y0118821D01*
X0072257Y0118821D01*
X0071676Y0118239D01*
X0066457Y0118239D01*
X0065286Y0119411D01*
X0065286Y0124630D01*
X0066457Y0125802D01*
X0071676Y0125802D01*
X0072257Y0125221D01*
X0115876Y0125221D01*
X0116457Y0125802D01*
X0121676Y0125802D01*
X0122848Y0124630D01*
X0122848Y0119411D01*
X0121800Y0118363D02*
X0135317Y0118363D01*
X0135317Y0116765D02*
X0058952Y0116765D01*
X0059098Y0116911D02*
X0058117Y0115930D01*
X0058117Y0090596D01*
X0058504Y0090983D01*
X0063504Y0095983D01*
X0064680Y0096471D01*
X0069626Y0096471D01*
X0070207Y0097052D01*
X0075426Y0097052D01*
X0076598Y0095880D01*
X0076598Y0090661D01*
X0075426Y0089489D01*
X0070207Y0089489D01*
X0069626Y0090071D01*
X0066642Y0090071D01*
X0064873Y0088302D01*
X0067926Y0088302D01*
X0069098Y0087130D01*
X0069098Y0081911D01*
X0068117Y0080930D01*
X0068117Y0057321D01*
X0082124Y0057321D01*
X0082773Y0057052D01*
X0085426Y0057052D01*
X0086598Y0055880D01*
X0086598Y0051471D01*
X0112203Y0051471D01*
X0113379Y0050983D01*
X0116779Y0047583D01*
X0117267Y0046407D01*
X0117267Y0036471D01*
X0118446Y0036471D01*
X0119484Y0037509D01*
X0121322Y0038271D01*
X0129311Y0038271D01*
X0131149Y0039032D01*
X0132555Y0040438D01*
X0133317Y0042276D01*
X0133317Y0044265D01*
X0132555Y0046103D01*
X0131149Y0047509D01*
X0129311Y0048271D01*
X0131149Y0049032D01*
X0132555Y0050438D01*
X0133317Y0052276D01*
X0133317Y0054265D01*
X0132555Y0056103D01*
X0131149Y0057509D01*
X0129311Y0058271D01*
X0131149Y0059032D01*
X0132555Y0060438D01*
X0132569Y0060471D01*
X0134624Y0060471D01*
X0135317Y0060758D01*
X0135317Y0021099D01*
X0119988Y0005771D01*
X0092817Y0005771D01*
X0092817Y0035771D01*
X0086598Y0035771D01*
X0086598Y0035880D01*
X0085617Y0036861D01*
X0085617Y0039680D01*
X0086598Y0040661D01*
X0086598Y0045071D01*
X0096400Y0045071D01*
X0096067Y0044265D01*
X0096067Y0042276D01*
X0096828Y0040438D01*
X0098234Y0039032D01*
X0100072Y0038271D01*
X0108061Y0038271D01*
X0109899Y0039032D01*
X0110867Y0040000D01*
X0110867Y0036542D01*
X0109899Y0037509D01*
X0108061Y0038271D01*
X0100072Y0038271D01*
X0098234Y0037509D01*
X0096828Y0036103D01*
X0096067Y0034265D01*
X0096067Y0032276D01*
X0096828Y0030438D01*
X0098234Y0029032D01*
X0100072Y0028271D01*
X0108061Y0028271D01*
X0109899Y0029032D01*
X0111305Y0030438D01*
X0111618Y0031194D01*
X0112254Y0030558D01*
X0113430Y0030071D01*
X0118446Y0030071D01*
X0119484Y0029032D01*
X0121322Y0028271D01*
X0129311Y0028271D01*
X0131149Y0029032D01*
X0132555Y0030438D01*
X0133317Y0032276D01*
X0133317Y0034265D01*
X0132555Y0036103D01*
X0131149Y0037509D01*
X0129311Y0038271D01*
X0121322Y0038271D01*
X0119484Y0039032D01*
X0118078Y0040438D01*
X0117317Y0042276D01*
X0117317Y0044265D01*
X0118078Y0046103D01*
X0119484Y0047509D01*
X0121322Y0048271D01*
X0129311Y0048271D01*
X0121322Y0048271D01*
X0119484Y0049032D01*
X0118078Y0050438D01*
X0117317Y0052276D01*
X0117317Y0054265D01*
X0118078Y0056103D01*
X0119484Y0057509D01*
X0121322Y0058271D01*
X0129311Y0058271D01*
X0121322Y0058271D01*
X0119484Y0059032D01*
X0118078Y0060438D01*
X0117317Y0062276D01*
X0117317Y0064265D01*
X0118078Y0066103D01*
X0119484Y0067509D01*
X0121322Y0068271D01*
X0129311Y0068271D01*
X0131149Y0069032D01*
X0131267Y0069150D01*
X0131267Y0067392D01*
X0131149Y0067509D01*
X0129311Y0068271D01*
X0121322Y0068271D01*
X0119484Y0069032D01*
X0118078Y0070438D01*
X0117317Y0072276D01*
X0117317Y0074265D01*
X0118078Y0076103D01*
X0119484Y0077509D01*
X0121322Y0078271D01*
X0129311Y0078271D01*
X0131149Y0077509D01*
X0131267Y0077392D01*
X0131267Y0101540D01*
X0130403Y0101972D01*
X0129981Y0102147D01*
X0129908Y0102219D01*
X0129816Y0102265D01*
X0129517Y0102611D01*
X0129193Y0102935D01*
X0129154Y0103029D01*
X0129086Y0103107D01*
X0128942Y0103541D01*
X0128767Y0103964D01*
X0128767Y0104066D01*
X0128734Y0104164D01*
X0128767Y0104620D01*
X0128767Y0105930D01*
X0127786Y0106911D01*
X0127786Y0112130D01*
X0128957Y0113302D01*
X0134176Y0113302D01*
X0135317Y0112161D01*
X0135317Y0167942D01*
X0117488Y0185771D01*
X0034027Y0185771D01*
X0007797Y0158271D01*
X0007797Y0114561D01*
X0005317Y0112101D01*
X0005317Y0073511D01*
X0005357Y0069721D01*
X0005357Y0005271D01*
X0009833Y0005271D01*
X0012817Y0005771D01*
X0010172Y0005771D01*
X0008334Y0006532D01*
X0006928Y0007938D01*
X0006167Y0009776D01*
X0006167Y0011765D01*
X0006928Y0013603D01*
X0008334Y0015009D01*
X0010172Y0015771D01*
X0012817Y0015771D01*
X0010172Y0015771D01*
X0008334Y0016532D01*
X0006928Y0017938D01*
X0006167Y0019776D01*
X0006167Y0021765D01*
X0006928Y0023603D01*
X0008334Y0025009D01*
X0010172Y0025771D01*
X0016150Y0025771D01*
X0016150Y0025771D01*
X0010172Y0025771D01*
X0008334Y0026532D01*
X0006928Y0027938D01*
X0006167Y0029776D01*
X0006167Y0031765D01*
X0006928Y0033603D01*
X0008334Y0035009D01*
X0010172Y0035771D01*
X0018161Y0035771D01*
X0019999Y0036532D01*
X0020097Y0036630D01*
X0020097Y0034912D01*
X0019999Y0035009D01*
X0018161Y0035771D01*
X0010172Y0035771D01*
X0008334Y0036532D01*
X0006928Y0037938D01*
X0006167Y0039776D01*
X0006167Y0041765D01*
X0006928Y0043603D01*
X0008334Y0045009D01*
X0010172Y0045771D01*
X0018161Y0045771D01*
X0019999Y0046532D01*
X0020097Y0046630D01*
X0020097Y0044912D01*
X0019999Y0045009D01*
X0018161Y0045771D01*
X0010172Y0045771D01*
X0008334Y0046532D01*
X0006928Y0047938D01*
X0006167Y0049776D01*
X0006167Y0051765D01*
X0006928Y0053603D01*
X0008334Y0055009D01*
X0010172Y0055771D01*
X0018161Y0055771D01*
X0019697Y0055135D01*
X0019697Y0056676D01*
X0019682Y0056665D01*
X0019009Y0056322D01*
X0018291Y0056089D01*
X0017544Y0055971D01*
X0014367Y0055971D01*
X0014367Y0060570D01*
X0013967Y0060570D01*
X0013967Y0055971D01*
X0010789Y0055971D01*
X0010043Y0056089D01*
X0009324Y0056322D01*
X0008651Y0056665D01*
X0008040Y0057109D01*
X0007505Y0057644D01*
X0007061Y0058255D01*
X0006718Y0058928D01*
X0006485Y0059647D01*
X0006367Y0060393D01*
X0006367Y0060571D01*
X0013967Y0060571D01*
X0013967Y0060971D01*
X0013967Y0065571D01*
X0013847Y0065571D01*
X0013938Y0065661D01*
X0013938Y0070518D01*
X0019697Y0065604D01*
X0019697Y0064866D01*
X0019682Y0064876D01*
X0019009Y0065219D01*
X0018291Y0065452D01*
X0017544Y0065571D01*
X0014367Y0065571D01*
X0014367Y0060971D01*
X0013967Y0060971D01*
X0006367Y0060971D01*
X0006367Y0061148D01*
X0006485Y0061895D01*
X0006718Y0062613D01*
X0007061Y0063286D01*
X0007505Y0063898D01*
X0008040Y0064432D01*
X0008119Y0064489D01*
X0007547Y0064489D01*
X0006376Y0065661D01*
X0006376Y0070880D01*
X0007357Y0071861D01*
X0007357Y0109520D01*
X0007356Y0110073D01*
X0007357Y0110075D01*
X0007357Y0110078D01*
X0007569Y0110591D01*
X0007780Y0111103D01*
X0007782Y0111105D01*
X0007783Y0111107D01*
X0008175Y0111499D01*
X0014036Y0117378D01*
X0014036Y0118380D01*
X0015207Y0119552D01*
X0020426Y0119552D01*
X0021598Y0118380D01*
X0021598Y0113161D01*
X0020426Y0111989D01*
X0016572Y0111989D01*
X0012957Y0108363D01*
X0012957Y0102112D01*
X0016716Y0102112D01*
X0017888Y0100940D01*
X0017888Y0095721D01*
X0017307Y0095140D01*
X0017307Y0076057D01*
X0024589Y0069843D01*
X0024709Y0069793D01*
X0025070Y0069433D01*
X0025458Y0069102D01*
X0025517Y0068985D01*
X0025609Y0068893D01*
X0025805Y0068422D01*
X0026036Y0067968D01*
X0026047Y0067838D01*
X0026097Y0067717D01*
X0026097Y0067207D01*
X0026137Y0066699D01*
X0026097Y0066575D01*
X0026097Y0053971D01*
X0051976Y0053971D01*
X0051536Y0054411D01*
X0051536Y0059630D01*
X0052517Y0060611D01*
X0052517Y0115930D01*
X0051536Y0116911D01*
X0051536Y0122130D01*
X0052707Y0123302D01*
X0057926Y0123302D01*
X0059098Y0122130D01*
X0059098Y0116911D01*
X0059098Y0118363D02*
X0066333Y0118363D01*
X0065286Y0119962D02*
X0059098Y0119962D01*
X0059098Y0121560D02*
X0065286Y0121560D01*
X0065286Y0123159D02*
X0058069Y0123159D01*
X0055317Y0119521D02*
X0055317Y0057021D01*
X0052517Y0060817D02*
X0046823Y0060817D01*
X0046598Y0060592D02*
X0048153Y0062147D01*
X0048940Y0062935D01*
X0049367Y0063964D01*
X0049367Y0133361D01*
X0058476Y0142470D01*
X0058957Y0141989D01*
X0064176Y0141989D01*
X0065348Y0143161D01*
X0065348Y0148380D01*
X0064238Y0149489D01*
X0067645Y0149489D01*
X0066536Y0148380D01*
X0066536Y0143161D01*
X0067517Y0142180D01*
X0067517Y0141464D01*
X0067943Y0140435D01*
X0071693Y0136685D01*
X0071693Y0136685D01*
X0072481Y0135897D01*
X0073510Y0135471D01*
X0087976Y0135471D01*
X0088957Y0134489D01*
X0094176Y0134489D01*
X0095348Y0135661D01*
X0095348Y0140880D01*
X0094176Y0142052D01*
X0088957Y0142052D01*
X0087976Y0141071D01*
X0075226Y0141071D01*
X0073617Y0142680D01*
X0074098Y0143161D01*
X0074098Y0148380D01*
X0072926Y0149552D01*
X0069238Y0149552D01*
X0070348Y0150661D01*
X0070348Y0155880D01*
X0069176Y0157052D01*
X0063957Y0157052D01*
X0062976Y0156071D01*
X0058510Y0156071D01*
X0057481Y0155644D01*
X0041231Y0139394D01*
X0040443Y0138607D01*
X0040017Y0137578D01*
X0040017Y0069430D01*
X0035138Y0064552D01*
X0032707Y0064552D01*
X0031536Y0063380D01*
X0031536Y0058161D01*
X0032707Y0056989D01*
X0037926Y0056989D01*
X0039067Y0058130D01*
X0040207Y0056989D01*
X0045426Y0056989D01*
X0046598Y0058161D01*
X0046598Y0060592D01*
X0046598Y0059218D02*
X0051536Y0059218D01*
X0051536Y0057620D02*
X0046057Y0057620D01*
X0042817Y0060771D02*
X0046567Y0064521D01*
X0046567Y0134521D01*
X0057817Y0145771D01*
X0061567Y0145771D01*
X0065348Y0145538D02*
X0066536Y0145538D01*
X0066536Y0143940D02*
X0065348Y0143940D01*
X0064528Y0142341D02*
X0067356Y0142341D01*
X0067815Y0140743D02*
X0056748Y0140743D01*
X0058347Y0142341D02*
X0058606Y0142341D01*
X0055150Y0139144D02*
X0069233Y0139144D01*
X0070832Y0137546D02*
X0053551Y0137546D01*
X0051953Y0135947D02*
X0072430Y0135947D01*
X0074067Y0138271D02*
X0091567Y0138271D01*
X0095348Y0137546D02*
X0135317Y0137546D01*
X0135317Y0139144D02*
X0095348Y0139144D01*
X0095348Y0140743D02*
X0135317Y0140743D01*
X0135317Y0142341D02*
X0073956Y0142341D01*
X0074098Y0143940D02*
X0135317Y0143940D01*
X0135317Y0145538D02*
X0074098Y0145538D01*
X0074098Y0147137D02*
X0135317Y0147137D01*
X0135317Y0148735D02*
X0073743Y0148735D01*
X0070020Y0150334D02*
X0135317Y0150334D01*
X0135317Y0151932D02*
X0070348Y0151932D01*
X0070348Y0153531D02*
X0135317Y0153531D01*
X0135317Y0155129D02*
X0070348Y0155129D01*
X0069500Y0156728D02*
X0135317Y0156728D01*
X0135317Y0158326D02*
X0007850Y0158326D01*
X0007797Y0156728D02*
X0063633Y0156728D01*
X0066567Y0153271D02*
X0059067Y0153271D01*
X0042817Y0137021D01*
X0042817Y0068271D01*
X0035317Y0060771D01*
X0031536Y0060817D02*
X0026097Y0060817D01*
X0026097Y0062416D02*
X0031536Y0062416D01*
X0032169Y0064014D02*
X0026097Y0064014D01*
X0026097Y0065613D02*
X0036199Y0065613D01*
X0037797Y0067211D02*
X0026097Y0067211D01*
X0025644Y0068810D02*
X0039396Y0068810D01*
X0040017Y0070408D02*
X0023927Y0070408D01*
X0022053Y0072007D02*
X0040017Y0072007D01*
X0040017Y0073605D02*
X0020180Y0073605D01*
X0018307Y0075204D02*
X0040017Y0075204D01*
X0040017Y0076802D02*
X0017307Y0076802D01*
X0017307Y0078401D02*
X0040017Y0078401D01*
X0040017Y0079999D02*
X0017307Y0079999D01*
X0017307Y0081598D02*
X0040017Y0081598D01*
X0040017Y0083196D02*
X0017307Y0083196D01*
X0017307Y0084795D02*
X0040017Y0084795D01*
X0040017Y0086393D02*
X0017307Y0086393D01*
X0017307Y0087992D02*
X0040017Y0087992D01*
X0040017Y0089590D02*
X0017307Y0089590D01*
X0017307Y0091189D02*
X0040017Y0091189D01*
X0040017Y0092787D02*
X0017307Y0092787D01*
X0017307Y0094386D02*
X0040017Y0094386D01*
X0040017Y0095984D02*
X0017888Y0095984D01*
X0017888Y0097583D02*
X0040017Y0097583D01*
X0040017Y0099181D02*
X0017888Y0099181D01*
X0017888Y0100780D02*
X0040017Y0100780D01*
X0040017Y0102378D02*
X0012957Y0102378D01*
X0012957Y0103977D02*
X0040017Y0103977D01*
X0040017Y0105575D02*
X0012957Y0105575D01*
X0012957Y0107174D02*
X0040017Y0107174D01*
X0040017Y0108772D02*
X0013364Y0108772D01*
X0014958Y0110371D02*
X0040017Y0110371D01*
X0040017Y0111969D02*
X0016551Y0111969D01*
X0016567Y0115951D02*
X0010157Y0109521D01*
X0010157Y0068271D01*
X0013938Y0068810D02*
X0015940Y0068810D01*
X0014067Y0070408D02*
X0013938Y0070408D01*
X0013938Y0067211D02*
X0017814Y0067211D01*
X0019687Y0065613D02*
X0013889Y0065613D01*
X0013967Y0064014D02*
X0014367Y0064014D01*
X0014367Y0062416D02*
X0013967Y0062416D01*
X0013967Y0060817D02*
X0005357Y0060817D01*
X0005357Y0062416D02*
X0006654Y0062416D01*
X0007622Y0064014D02*
X0005357Y0064014D01*
X0005357Y0065613D02*
X0006424Y0065613D01*
X0006376Y0067211D02*
X0005357Y0067211D01*
X0005357Y0068810D02*
X0006376Y0068810D01*
X0006376Y0070408D02*
X0005349Y0070408D01*
X0005333Y0072007D02*
X0007357Y0072007D01*
X0007357Y0073605D02*
X0005317Y0073605D01*
X0005317Y0075204D02*
X0007357Y0075204D01*
X0007357Y0076802D02*
X0005317Y0076802D01*
X0005317Y0078401D02*
X0007357Y0078401D01*
X0007357Y0079999D02*
X0005317Y0079999D01*
X0005317Y0081598D02*
X0007357Y0081598D01*
X0007357Y0083196D02*
X0005317Y0083196D01*
X0005317Y0084795D02*
X0007357Y0084795D01*
X0007357Y0086393D02*
X0005317Y0086393D01*
X0005317Y0087992D02*
X0007357Y0087992D01*
X0007357Y0089590D02*
X0005317Y0089590D01*
X0005317Y0091189D02*
X0007357Y0091189D01*
X0007357Y0092787D02*
X0005317Y0092787D01*
X0005317Y0094386D02*
X0007357Y0094386D01*
X0007357Y0095984D02*
X0005317Y0095984D01*
X0005317Y0097583D02*
X0007357Y0097583D01*
X0007357Y0099181D02*
X0005317Y0099181D01*
X0005317Y0100780D02*
X0007357Y0100780D01*
X0007357Y0102378D02*
X0005317Y0102378D01*
X0005317Y0103977D02*
X0007357Y0103977D01*
X0007357Y0105575D02*
X0005317Y0105575D01*
X0005317Y0107174D02*
X0007357Y0107174D01*
X0007357Y0108772D02*
X0005317Y0108772D01*
X0005317Y0110371D02*
X0007478Y0110371D01*
X0008644Y0111969D02*
X0005317Y0111969D01*
X0006796Y0113568D02*
X0010238Y0113568D01*
X0011831Y0115166D02*
X0007797Y0115166D01*
X0007797Y0116765D02*
X0013425Y0116765D01*
X0014036Y0118363D02*
X0007797Y0118363D01*
X0007797Y0119962D02*
X0040017Y0119962D01*
X0040017Y0121560D02*
X0007797Y0121560D01*
X0007797Y0123159D02*
X0040017Y0123159D01*
X0040017Y0124757D02*
X0007797Y0124757D01*
X0007797Y0126356D02*
X0040017Y0126356D01*
X0040017Y0127954D02*
X0007797Y0127954D01*
X0007797Y0129553D02*
X0040017Y0129553D01*
X0040017Y0131151D02*
X0007797Y0131151D01*
X0007797Y0132750D02*
X0040017Y0132750D01*
X0040017Y0134349D02*
X0007797Y0134349D01*
X0007797Y0135947D02*
X0040017Y0135947D01*
X0040017Y0137546D02*
X0007797Y0137546D01*
X0007797Y0139144D02*
X0040980Y0139144D01*
X0042579Y0140743D02*
X0007797Y0140743D01*
X0007797Y0142341D02*
X0044177Y0142341D01*
X0045776Y0143940D02*
X0007797Y0143940D01*
X0007797Y0145538D02*
X0047374Y0145538D01*
X0048973Y0147137D02*
X0007797Y0147137D01*
X0007797Y0148735D02*
X0050571Y0148735D01*
X0052170Y0150334D02*
X0007797Y0150334D01*
X0007797Y0151932D02*
X0053768Y0151932D01*
X0055367Y0153531D02*
X0007797Y0153531D01*
X0007797Y0155129D02*
X0056965Y0155129D01*
X0064993Y0148735D02*
X0066891Y0148735D01*
X0066536Y0147137D02*
X0065348Y0147137D01*
X0070317Y0145771D02*
X0070317Y0142021D01*
X0074067Y0138271D01*
X0065413Y0124757D02*
X0049367Y0124757D01*
X0049367Y0123159D02*
X0052564Y0123159D01*
X0051536Y0121560D02*
X0049367Y0121560D01*
X0049367Y0119962D02*
X0051536Y0119962D01*
X0051536Y0118363D02*
X0049367Y0118363D01*
X0049367Y0116765D02*
X0051682Y0116765D01*
X0052517Y0115166D02*
X0049367Y0115166D01*
X0049367Y0113568D02*
X0052517Y0113568D01*
X0052517Y0111969D02*
X0049367Y0111969D01*
X0049367Y0110371D02*
X0052517Y0110371D01*
X0052517Y0108772D02*
X0049367Y0108772D01*
X0049367Y0107174D02*
X0052517Y0107174D01*
X0052517Y0105575D02*
X0049367Y0105575D01*
X0049367Y0103977D02*
X0052517Y0103977D01*
X0052517Y0102378D02*
X0049367Y0102378D01*
X0049367Y0100780D02*
X0052517Y0100780D01*
X0052517Y0099181D02*
X0049367Y0099181D01*
X0049367Y0097583D02*
X0052517Y0097583D01*
X0052517Y0095984D02*
X0049367Y0095984D01*
X0049367Y0094386D02*
X0052517Y0094386D01*
X0052517Y0092787D02*
X0049367Y0092787D01*
X0049367Y0091189D02*
X0052517Y0091189D01*
X0052517Y0089590D02*
X0049367Y0089590D01*
X0049367Y0087992D02*
X0052517Y0087992D01*
X0052517Y0086393D02*
X0049367Y0086393D01*
X0049367Y0084795D02*
X0052517Y0084795D01*
X0052517Y0083196D02*
X0049367Y0083196D01*
X0049367Y0081598D02*
X0052517Y0081598D01*
X0052517Y0079999D02*
X0049367Y0079999D01*
X0049367Y0078401D02*
X0052517Y0078401D01*
X0052517Y0076802D02*
X0049367Y0076802D01*
X0049367Y0075204D02*
X0052517Y0075204D01*
X0052517Y0073605D02*
X0049367Y0073605D01*
X0049367Y0072007D02*
X0052517Y0072007D01*
X0052517Y0070408D02*
X0049367Y0070408D01*
X0049367Y0068810D02*
X0052517Y0068810D01*
X0052517Y0067211D02*
X0049367Y0067211D01*
X0049367Y0065613D02*
X0052517Y0065613D01*
X0052517Y0064014D02*
X0049367Y0064014D01*
X0048421Y0062416D02*
X0052517Y0062416D01*
X0051536Y0056021D02*
X0026097Y0056021D01*
X0026097Y0054423D02*
X0051536Y0054423D01*
X0039577Y0057620D02*
X0038557Y0057620D01*
X0032077Y0057620D02*
X0026097Y0057620D01*
X0026097Y0059218D02*
X0031536Y0059218D01*
X0022897Y0050771D02*
X0022897Y0010771D01*
X0012817Y0015771D02*
X0012817Y0015771D01*
X0009477Y0016059D02*
X0005357Y0016059D01*
X0005357Y0017657D02*
X0007209Y0017657D01*
X0006382Y0019256D02*
X0005357Y0019256D01*
X0005357Y0020854D02*
X0006167Y0020854D01*
X0006451Y0022453D02*
X0005357Y0022453D01*
X0005357Y0024051D02*
X0007376Y0024051D01*
X0005357Y0025650D02*
X0009880Y0025650D01*
X0007618Y0027248D02*
X0005357Y0027248D01*
X0005357Y0028847D02*
X0006552Y0028847D01*
X0006167Y0030445D02*
X0005357Y0030445D01*
X0005357Y0032044D02*
X0006282Y0032044D01*
X0006967Y0033642D02*
X0005357Y0033642D01*
X0005357Y0035241D02*
X0008893Y0035241D01*
X0008027Y0036839D02*
X0005357Y0036839D01*
X0005357Y0038438D02*
X0006721Y0038438D01*
X0006167Y0040036D02*
X0005357Y0040036D01*
X0005357Y0041635D02*
X0006167Y0041635D01*
X0006775Y0043233D02*
X0005357Y0043233D01*
X0005357Y0044832D02*
X0008157Y0044832D01*
X0008579Y0046430D02*
X0005357Y0046430D01*
X0005357Y0048029D02*
X0006890Y0048029D01*
X0006228Y0049627D02*
X0005357Y0049627D01*
X0005357Y0051226D02*
X0006167Y0051226D01*
X0006605Y0052824D02*
X0005357Y0052824D01*
X0005357Y0054423D02*
X0007748Y0054423D01*
X0005357Y0056021D02*
X0010468Y0056021D01*
X0007529Y0057620D02*
X0005357Y0057620D01*
X0005357Y0059218D02*
X0006624Y0059218D01*
X0013967Y0059218D02*
X0014367Y0059218D01*
X0014367Y0057620D02*
X0013967Y0057620D01*
X0013967Y0056021D02*
X0014367Y0056021D01*
X0017866Y0056021D02*
X0019697Y0056021D01*
X0019754Y0046430D02*
X0020097Y0046430D01*
X0020097Y0035241D02*
X0019440Y0035241D01*
X0007785Y0014460D02*
X0005357Y0014460D01*
X0005357Y0012862D02*
X0006621Y0012862D01*
X0006167Y0011263D02*
X0005357Y0011263D01*
X0005357Y0009665D02*
X0006213Y0009665D01*
X0006875Y0008066D02*
X0005357Y0008066D01*
X0005357Y0006468D02*
X0008489Y0006468D01*
X0065317Y0054521D02*
X0081567Y0054521D01*
X0082817Y0053271D01*
X0086598Y0052824D02*
X0117317Y0052824D01*
X0117382Y0054423D02*
X0086598Y0054423D01*
X0086456Y0056021D02*
X0118044Y0056021D01*
X0119751Y0057620D02*
X0068117Y0057620D01*
X0068117Y0059218D02*
X0119298Y0059218D01*
X0117921Y0060817D02*
X0068117Y0060817D01*
X0068117Y0062416D02*
X0117317Y0062416D01*
X0117317Y0064014D02*
X0068117Y0064014D01*
X0068117Y0065613D02*
X0117875Y0065613D01*
X0119186Y0067211D02*
X0068117Y0067211D01*
X0068117Y0068810D02*
X0120021Y0068810D01*
X0118108Y0070408D02*
X0081345Y0070408D01*
X0081598Y0070661D02*
X0081598Y0073092D01*
X0087726Y0079221D01*
X0117124Y0079221D01*
X0118153Y0079647D01*
X0118940Y0080435D01*
X0119367Y0081464D01*
X0119367Y0092578D01*
X0118940Y0093607D01*
X0118153Y0094394D01*
X0117124Y0094821D01*
X0114667Y0094821D01*
X0114934Y0095221D01*
X0115221Y0095912D01*
X0115367Y0096646D01*
X0115367Y0097021D01*
X0115367Y0097395D01*
X0115221Y0098129D01*
X0114934Y0098821D01*
X0114569Y0099366D01*
X0114958Y0099755D01*
X0115567Y0101225D01*
X0115567Y0102816D01*
X0114958Y0104286D01*
X0114367Y0104877D01*
X0114367Y0107578D01*
X0113940Y0108607D01*
X0113153Y0109394D01*
X0112124Y0109821D01*
X0078907Y0109821D01*
X0077926Y0110802D01*
X0072707Y0110802D01*
X0071536Y0109630D01*
X0071536Y0104411D01*
X0072707Y0103239D01*
X0077926Y0103239D01*
X0078907Y0104221D01*
X0108148Y0104221D01*
X0107567Y0102816D01*
X0107567Y0101225D01*
X0108176Y0099755D01*
X0108564Y0099366D01*
X0108199Y0098821D01*
X0107913Y0098129D01*
X0107767Y0097395D01*
X0107767Y0097021D01*
X0111567Y0097021D01*
X0115367Y0097021D01*
X0111567Y0097021D01*
X0111567Y0097021D01*
X0111567Y0097021D01*
X0107767Y0097021D01*
X0107767Y0096646D01*
X0107913Y0095912D01*
X0108199Y0095221D01*
X0108564Y0094675D01*
X0108176Y0094286D01*
X0107567Y0092816D01*
X0107567Y0091225D01*
X0108148Y0089821D01*
X0081010Y0089821D01*
X0079981Y0089394D01*
X0079193Y0088607D01*
X0076388Y0085802D01*
X0073957Y0085802D01*
X0072786Y0084630D01*
X0072786Y0079411D01*
X0073957Y0078239D01*
X0078826Y0078239D01*
X0077638Y0077052D01*
X0075207Y0077052D01*
X0074036Y0075880D01*
X0074036Y0070661D01*
X0075207Y0069489D01*
X0080426Y0069489D01*
X0081598Y0070661D01*
X0081598Y0072007D02*
X0117428Y0072007D01*
X0117317Y0073605D02*
X0082111Y0073605D01*
X0083709Y0075204D02*
X0117705Y0075204D01*
X0118777Y0076802D02*
X0085308Y0076802D01*
X0086906Y0078401D02*
X0131267Y0078401D01*
X0131267Y0079999D02*
X0118505Y0079999D01*
X0119367Y0081598D02*
X0131267Y0081598D01*
X0131267Y0083196D02*
X0119367Y0083196D01*
X0119367Y0084795D02*
X0131267Y0084795D01*
X0131267Y0086393D02*
X0119367Y0086393D01*
X0119367Y0087992D02*
X0131267Y0087992D01*
X0131267Y0089590D02*
X0119367Y0089590D01*
X0119367Y0091189D02*
X0131267Y0091189D01*
X0131267Y0092787D02*
X0119280Y0092787D01*
X0118161Y0094386D02*
X0131267Y0094386D01*
X0131267Y0095984D02*
X0115235Y0095984D01*
X0115329Y0097583D02*
X0131267Y0097583D01*
X0131267Y0099181D02*
X0114693Y0099181D01*
X0115382Y0100780D02*
X0131267Y0100780D01*
X0129718Y0102378D02*
X0115567Y0102378D01*
X0115086Y0103977D02*
X0128767Y0103977D01*
X0128767Y0105575D02*
X0114367Y0105575D01*
X0114367Y0107174D02*
X0127786Y0107174D01*
X0127786Y0108772D02*
X0113775Y0108772D01*
X0111567Y0107021D02*
X0075317Y0107021D01*
X0071536Y0107174D02*
X0058117Y0107174D01*
X0058117Y0108772D02*
X0071536Y0108772D01*
X0072276Y0110371D02*
X0058117Y0110371D01*
X0058117Y0111969D02*
X0127786Y0111969D01*
X0127786Y0110371D02*
X0078357Y0110371D01*
X0078663Y0103977D02*
X0108047Y0103977D01*
X0107567Y0102378D02*
X0058117Y0102378D01*
X0058117Y0100780D02*
X0107751Y0100780D01*
X0108440Y0099181D02*
X0058117Y0099181D01*
X0058117Y0097583D02*
X0107804Y0097583D01*
X0107898Y0095984D02*
X0076494Y0095984D01*
X0076598Y0094386D02*
X0108275Y0094386D01*
X0107567Y0092787D02*
X0076598Y0092787D01*
X0076598Y0091189D02*
X0107582Y0091189D01*
X0111567Y0092021D02*
X0116567Y0092021D01*
X0116567Y0082021D01*
X0086567Y0082021D01*
X0077817Y0073271D01*
X0074958Y0076802D02*
X0068117Y0076802D01*
X0068117Y0075204D02*
X0074036Y0075204D01*
X0074036Y0073605D02*
X0068117Y0073605D01*
X0068117Y0072007D02*
X0074036Y0072007D01*
X0074289Y0070408D02*
X0068117Y0070408D01*
X0068117Y0078401D02*
X0073796Y0078401D01*
X0072786Y0079999D02*
X0068117Y0079999D01*
X0068784Y0081598D02*
X0072786Y0081598D01*
X0072786Y0083196D02*
X0069098Y0083196D01*
X0069098Y0084795D02*
X0072950Y0084795D01*
X0069098Y0086393D02*
X0076979Y0086393D01*
X0078578Y0087992D02*
X0068236Y0087992D01*
X0070106Y0089590D02*
X0066162Y0089590D01*
X0065317Y0084521D02*
X0065317Y0054521D01*
X0082817Y0043271D02*
X0082817Y0033271D01*
X0085639Y0036839D02*
X0097564Y0036839D01*
X0096471Y0035241D02*
X0092817Y0035241D01*
X0092817Y0033642D02*
X0096067Y0033642D01*
X0096163Y0032044D02*
X0092817Y0032044D01*
X0092817Y0030445D02*
X0096825Y0030445D01*
X0098681Y0028847D02*
X0092817Y0028847D01*
X0092817Y0027248D02*
X0097973Y0027248D01*
X0098234Y0027509D02*
X0096828Y0026103D01*
X0096067Y0024265D01*
X0096067Y0022276D01*
X0096828Y0020438D01*
X0098234Y0019032D01*
X0100072Y0018271D01*
X0108061Y0018271D01*
X0109899Y0019032D01*
X0111305Y0020438D01*
X0112067Y0022276D01*
X0112067Y0024265D01*
X0111305Y0026103D01*
X0109899Y0027509D01*
X0108061Y0028271D01*
X0100072Y0028271D01*
X0098234Y0027509D01*
X0096640Y0025650D02*
X0092817Y0025650D01*
X0092817Y0024051D02*
X0096067Y0024051D01*
X0096067Y0022453D02*
X0092817Y0022453D01*
X0092817Y0020854D02*
X0096656Y0020854D01*
X0098010Y0019256D02*
X0092817Y0019256D01*
X0092817Y0017657D02*
X0099103Y0017657D01*
X0099224Y0017719D02*
X0098551Y0017376D01*
X0097940Y0016932D01*
X0097405Y0016398D01*
X0096961Y0015786D01*
X0096618Y0015113D01*
X0096385Y0014395D01*
X0096267Y0013648D01*
X0096267Y0013471D01*
X0103867Y0013471D01*
X0103867Y0018071D01*
X0100689Y0018071D01*
X0099943Y0017952D01*
X0099224Y0017719D01*
X0097159Y0016059D02*
X0092817Y0016059D01*
X0092817Y0014460D02*
X0096406Y0014460D01*
X0096267Y0013071D02*
X0096267Y0012893D01*
X0096385Y0012147D01*
X0096618Y0011428D01*
X0096961Y0010755D01*
X0097405Y0010144D01*
X0097940Y0009609D01*
X0098551Y0009165D01*
X0099224Y0008822D01*
X0099943Y0008589D01*
X0100689Y0008471D01*
X0103867Y0008471D01*
X0103867Y0013070D01*
X0104267Y0013070D01*
X0104267Y0008471D01*
X0107444Y0008471D01*
X0108191Y0008589D01*
X0108909Y0008822D01*
X0109582Y0009165D01*
X0110194Y0009609D01*
X0110728Y0010144D01*
X0111172Y0010755D01*
X0111515Y0011428D01*
X0111748Y0012147D01*
X0111867Y0012893D01*
X0111867Y0013071D01*
X0104267Y0013071D01*
X0104267Y0013471D01*
X0103867Y0013471D01*
X0103867Y0013071D01*
X0096267Y0013071D01*
X0096272Y0012862D02*
X0092817Y0012862D01*
X0092817Y0011263D02*
X0096702Y0011263D01*
X0097884Y0009665D02*
X0092817Y0009665D01*
X0092817Y0008066D02*
X0122284Y0008066D01*
X0123882Y0009665D02*
X0110249Y0009665D01*
X0111431Y0011263D02*
X0125481Y0011263D01*
X0127079Y0012862D02*
X0111862Y0012862D01*
X0111867Y0013471D02*
X0111867Y0013648D01*
X0111748Y0014395D01*
X0111515Y0015113D01*
X0111172Y0015786D01*
X0110728Y0016398D01*
X0110194Y0016932D01*
X0109582Y0017376D01*
X0108909Y0017719D01*
X0108191Y0017952D01*
X0107444Y0018071D01*
X0104267Y0018071D01*
X0104267Y0013471D01*
X0111867Y0013471D01*
X0111727Y0014460D02*
X0128678Y0014460D01*
X0130276Y0016059D02*
X0110974Y0016059D01*
X0109030Y0017657D02*
X0131875Y0017657D01*
X0130832Y0019165D02*
X0131444Y0019609D01*
X0131978Y0020144D01*
X0132422Y0020755D01*
X0132765Y0021428D01*
X0132998Y0022147D01*
X0133117Y0022893D01*
X0133117Y0023071D01*
X0125517Y0023071D01*
X0125517Y0023471D01*
X0125117Y0023471D01*
X0125117Y0028071D01*
X0121939Y0028071D01*
X0121193Y0027952D01*
X0120474Y0027719D01*
X0119801Y0027376D01*
X0119190Y0026932D01*
X0118655Y0026398D01*
X0118211Y0025786D01*
X0117868Y0025113D01*
X0117635Y0024395D01*
X0117517Y0023648D01*
X0117517Y0023471D01*
X0125117Y0023471D01*
X0125117Y0023071D01*
X0125117Y0023070D02*
X0125517Y0023070D01*
X0125517Y0018471D01*
X0128694Y0018471D01*
X0129441Y0018589D01*
X0130159Y0018822D01*
X0130832Y0019165D01*
X0130957Y0019256D02*
X0133473Y0019256D01*
X0132473Y0020854D02*
X0135072Y0020854D01*
X0135317Y0022453D02*
X0133047Y0022453D01*
X0133117Y0023471D02*
X0133117Y0023648D01*
X0132998Y0024395D01*
X0132765Y0025113D01*
X0132422Y0025786D01*
X0131978Y0026398D01*
X0131444Y0026932D01*
X0130832Y0027376D01*
X0130159Y0027719D01*
X0129441Y0027952D01*
X0128694Y0028071D01*
X0125517Y0028071D01*
X0125517Y0023471D01*
X0133117Y0023471D01*
X0133053Y0024051D02*
X0135317Y0024051D01*
X0135317Y0025650D02*
X0132492Y0025650D01*
X0131008Y0027248D02*
X0135317Y0027248D01*
X0135317Y0028847D02*
X0130702Y0028847D01*
X0132558Y0030445D02*
X0135317Y0030445D01*
X0135317Y0032044D02*
X0133220Y0032044D01*
X0133317Y0033642D02*
X0135317Y0033642D01*
X0135317Y0035241D02*
X0132913Y0035241D01*
X0131819Y0036839D02*
X0135317Y0036839D01*
X0135317Y0038438D02*
X0129715Y0038438D01*
X0132153Y0040036D02*
X0135317Y0040036D01*
X0135317Y0041635D02*
X0133051Y0041635D01*
X0133317Y0043233D02*
X0135317Y0043233D01*
X0135317Y0044832D02*
X0133082Y0044832D01*
X0132228Y0046430D02*
X0135317Y0046430D01*
X0135317Y0048029D02*
X0129895Y0048029D01*
X0131745Y0049627D02*
X0135317Y0049627D01*
X0135317Y0051226D02*
X0132882Y0051226D01*
X0133317Y0052824D02*
X0135317Y0052824D01*
X0135317Y0054423D02*
X0133251Y0054423D01*
X0132589Y0056021D02*
X0135317Y0056021D01*
X0135317Y0057620D02*
X0130882Y0057620D01*
X0131336Y0059218D02*
X0135317Y0059218D01*
X0134067Y0063271D02*
X0125317Y0063271D01*
X0130612Y0068810D02*
X0131267Y0068810D01*
X0134067Y0063271D02*
X0134067Y0103271D01*
X0131567Y0104521D01*
X0131567Y0109521D01*
X0135317Y0113568D02*
X0058117Y0113568D01*
X0058117Y0115166D02*
X0135317Y0115166D01*
X0135317Y0123159D02*
X0122848Y0123159D01*
X0122720Y0124757D02*
X0135317Y0124757D01*
X0135317Y0126356D02*
X0049367Y0126356D01*
X0049367Y0127954D02*
X0135317Y0127954D01*
X0135317Y0129553D02*
X0049367Y0129553D01*
X0049367Y0131151D02*
X0135317Y0131151D01*
X0135317Y0132750D02*
X0049367Y0132750D01*
X0050354Y0134349D02*
X0135317Y0134349D01*
X0135317Y0135947D02*
X0095348Y0135947D01*
X0116333Y0118363D02*
X0071800Y0118363D01*
X0071536Y0105575D02*
X0058117Y0105575D01*
X0058117Y0103977D02*
X0071970Y0103977D01*
X0063506Y0095984D02*
X0058117Y0095984D01*
X0058117Y0094386D02*
X0061906Y0094386D01*
X0060308Y0092787D02*
X0058117Y0092787D01*
X0058117Y0091189D02*
X0058709Y0091189D01*
X0075527Y0089590D02*
X0080454Y0089590D01*
X0081567Y0087021D02*
X0111567Y0087021D01*
X0111567Y0102021D02*
X0111567Y0107021D01*
X0081567Y0087021D02*
X0076567Y0082021D01*
X0086598Y0044832D02*
X0096301Y0044832D01*
X0096067Y0043233D02*
X0086598Y0043233D01*
X0086598Y0041635D02*
X0096332Y0041635D01*
X0097230Y0040036D02*
X0085973Y0040036D01*
X0085617Y0038438D02*
X0099668Y0038438D01*
X0108465Y0038438D02*
X0110867Y0038438D01*
X0110867Y0036839D02*
X0110569Y0036839D01*
X0111308Y0030445D02*
X0112526Y0030445D01*
X0109452Y0028847D02*
X0119931Y0028847D01*
X0119625Y0027248D02*
X0110160Y0027248D01*
X0111493Y0025650D02*
X0118142Y0025650D01*
X0117580Y0024051D02*
X0112067Y0024051D01*
X0112067Y0022453D02*
X0117586Y0022453D01*
X0117635Y0022147D02*
X0117868Y0021428D01*
X0118211Y0020755D01*
X0118655Y0020144D01*
X0119190Y0019609D01*
X0119801Y0019165D01*
X0120474Y0018822D01*
X0121193Y0018589D01*
X0121939Y0018471D01*
X0125117Y0018471D01*
X0125117Y0023070D01*
X0125117Y0023071D02*
X0117517Y0023071D01*
X0117517Y0022893D01*
X0117635Y0022147D01*
X0118161Y0020854D02*
X0111478Y0020854D01*
X0110123Y0019256D02*
X0119676Y0019256D01*
X0125117Y0019256D02*
X0125517Y0019256D01*
X0125517Y0020854D02*
X0125117Y0020854D01*
X0125117Y0022453D02*
X0125517Y0022453D01*
X0125517Y0024051D02*
X0125117Y0024051D01*
X0125117Y0025650D02*
X0125517Y0025650D01*
X0125517Y0027248D02*
X0125117Y0027248D01*
X0118814Y0036839D02*
X0117267Y0036839D01*
X0117267Y0038438D02*
X0120918Y0038438D01*
X0118480Y0040036D02*
X0117267Y0040036D01*
X0117267Y0041635D02*
X0117582Y0041635D01*
X0117317Y0043233D02*
X0117267Y0043233D01*
X0117267Y0044832D02*
X0117551Y0044832D01*
X0117257Y0046430D02*
X0118405Y0046430D01*
X0116334Y0048029D02*
X0120739Y0048029D01*
X0118889Y0049627D02*
X0114735Y0049627D01*
X0112794Y0051226D02*
X0117752Y0051226D01*
X0104267Y0017657D02*
X0103867Y0017657D01*
X0103867Y0016059D02*
X0104267Y0016059D01*
X0104267Y0014460D02*
X0103867Y0014460D01*
X0103867Y0012862D02*
X0104267Y0012862D01*
X0104267Y0011263D02*
X0103867Y0011263D01*
X0103867Y0009665D02*
X0104267Y0009665D01*
X0092817Y0006468D02*
X0120685Y0006468D01*
X0040017Y0113568D02*
X0021598Y0113568D01*
X0021598Y0115166D02*
X0040017Y0115166D01*
X0040017Y0116765D02*
X0021598Y0116765D01*
X0021598Y0118363D02*
X0040017Y0118363D01*
X0021915Y0099521D02*
X0021567Y0099521D01*
X0017817Y0115771D02*
X0016567Y0115951D01*
X0009374Y0159925D02*
X0135317Y0159925D01*
X0135317Y0161523D02*
X0010899Y0161523D01*
X0012424Y0163122D02*
X0135317Y0163122D01*
X0135317Y0164720D02*
X0013948Y0164720D01*
X0015473Y0166319D02*
X0135317Y0166319D01*
X0135317Y0167917D02*
X0016998Y0167917D01*
X0018523Y0169516D02*
X0133743Y0169516D01*
X0132145Y0171114D02*
X0020047Y0171114D01*
X0021572Y0172713D02*
X0130546Y0172713D01*
X0128948Y0174311D02*
X0023097Y0174311D01*
X0024621Y0175910D02*
X0127349Y0175910D01*
X0125751Y0177508D02*
X0026146Y0177508D01*
X0027671Y0179107D02*
X0124152Y0179107D01*
X0122553Y0180705D02*
X0029195Y0180705D01*
X0030720Y0182304D02*
X0120955Y0182304D01*
X0119356Y0183902D02*
X0032245Y0183902D01*
X0033769Y0185501D02*
X0117758Y0185501D01*
M02*
