G75*
%MOIN*%
%OFA0B0*%
%FSLAX25Y25*%
%IPPOS*%
%LPD*%
%AMOC8*
5,1,8,0,0,1.08239X$1,22.5*
%
%ADD10C,0.00000*%
%ADD11C,0.00300*%
%ADD12C,0.00400*%
%ADD13C,0.00200*%
%ADD14C,0.00600*%
%ADD15C,0.00500*%
%ADD16R,0.00500X0.02000*%
%ADD17C,0.01000*%
D10*
X0002817Y0003271D02*
X0002817Y0160771D01*
X0030317Y0188271D01*
X0117817Y0188271D01*
X0137817Y0168271D01*
X0137817Y0020771D01*
X0120317Y0003271D01*
X0002817Y0003271D01*
D11*
X0003998Y0006367D02*
X0003514Y0006851D01*
X0003514Y0007818D01*
X0003998Y0008302D01*
X0004482Y0008302D01*
X0004965Y0007818D01*
X0005449Y0008302D01*
X0005933Y0008302D01*
X0006417Y0007818D01*
X0006417Y0006851D01*
X0005933Y0006367D01*
X0004965Y0007335D02*
X0004965Y0007818D01*
X0005933Y0009314D02*
X0005933Y0009797D01*
X0006417Y0009797D01*
X0006417Y0009314D01*
X0005933Y0009314D01*
X0005933Y0010787D02*
X0006417Y0011271D01*
X0006417Y0012238D01*
X0005933Y0012722D01*
X0005449Y0012722D01*
X0004965Y0012238D01*
X0004965Y0011754D01*
X0004965Y0012238D02*
X0004482Y0012722D01*
X0003998Y0012722D01*
X0003514Y0012238D01*
X0003514Y0011271D01*
X0003998Y0010787D01*
X0003514Y0016680D02*
X0003514Y0018131D01*
X0003998Y0018615D01*
X0004965Y0018615D01*
X0005449Y0018131D01*
X0005449Y0016680D01*
X0005449Y0017647D02*
X0006417Y0018615D01*
X0006417Y0016680D02*
X0003514Y0016680D01*
X0003514Y0019626D02*
X0003514Y0021561D01*
X0003514Y0020594D02*
X0006417Y0020594D01*
X0005933Y0022573D02*
X0006417Y0023057D01*
X0006417Y0024024D01*
X0005933Y0024508D01*
X0005449Y0024508D01*
X0004965Y0024024D01*
X0004965Y0023057D01*
X0004482Y0022573D01*
X0003998Y0022573D01*
X0003514Y0023057D01*
X0003514Y0024024D01*
X0003998Y0024508D01*
X0003514Y0028466D02*
X0003514Y0030401D01*
X0003514Y0029433D02*
X0006417Y0029433D01*
X0006417Y0031412D02*
X0003514Y0033347D01*
X0003514Y0031412D02*
X0006417Y0033347D01*
X0006417Y0037306D02*
X0003514Y0037306D01*
X0003514Y0038757D01*
X0003998Y0039241D01*
X0004965Y0039241D01*
X0005449Y0038757D01*
X0005449Y0037306D01*
X0005449Y0038273D02*
X0006417Y0039241D01*
X0006417Y0040252D02*
X0003514Y0042187D01*
X0003514Y0040252D02*
X0006417Y0042187D01*
X0006417Y0046145D02*
X0003514Y0046145D01*
X0003514Y0047596D01*
X0003998Y0048080D01*
X0005933Y0048080D01*
X0006417Y0047596D01*
X0006417Y0046145D01*
X0006417Y0050059D02*
X0003514Y0050059D01*
X0003514Y0049092D02*
X0003514Y0051027D01*
X0003514Y0052038D02*
X0003514Y0053489D01*
X0003998Y0053973D01*
X0004965Y0053973D01*
X0005449Y0053489D01*
X0005449Y0052038D01*
X0005449Y0053006D02*
X0006417Y0053973D01*
X0006417Y0052038D02*
X0003514Y0052038D01*
X0006714Y0077528D02*
X0006714Y0078979D01*
X0007198Y0079463D01*
X0008165Y0079463D01*
X0008649Y0078979D01*
X0008649Y0077528D01*
X0008649Y0078495D02*
X0009617Y0079463D01*
X0009133Y0080474D02*
X0009617Y0080958D01*
X0009617Y0081925D01*
X0009133Y0082409D01*
X0008165Y0082409D01*
X0007682Y0081925D01*
X0007682Y0081442D01*
X0008165Y0080474D01*
X0006714Y0080474D01*
X0006714Y0082409D01*
X0006714Y0077528D02*
X0009617Y0077528D01*
X0023324Y0112721D02*
X0023324Y0115623D01*
X0024775Y0115623D01*
X0025259Y0115139D01*
X0025259Y0114172D01*
X0024775Y0113688D01*
X0023324Y0113688D01*
X0024291Y0113688D02*
X0025259Y0112721D01*
X0026270Y0113204D02*
X0026754Y0112721D01*
X0027721Y0112721D01*
X0028205Y0113204D01*
X0028205Y0113688D01*
X0027721Y0114172D01*
X0027238Y0114172D01*
X0027721Y0114172D02*
X0028205Y0114656D01*
X0028205Y0115139D01*
X0027721Y0115623D01*
X0026754Y0115623D01*
X0026270Y0115139D01*
X0026270Y0127721D02*
X0028205Y0129656D01*
X0028205Y0130139D01*
X0027721Y0130623D01*
X0026754Y0130623D01*
X0026270Y0130139D01*
X0025259Y0130139D02*
X0025259Y0129172D01*
X0024775Y0128688D01*
X0023324Y0128688D01*
X0024291Y0128688D02*
X0025259Y0127721D01*
X0026270Y0127721D02*
X0028205Y0127721D01*
X0025259Y0130139D02*
X0024775Y0130623D01*
X0023324Y0130623D01*
X0023324Y0127721D01*
X0024083Y0134671D02*
X0024083Y0135288D01*
X0024700Y0135288D01*
X0024700Y0134671D01*
X0024083Y0134671D01*
X0024083Y0136522D02*
X0024083Y0137139D01*
X0024700Y0137139D01*
X0024700Y0136522D01*
X0024083Y0136522D01*
X0024083Y0140671D02*
X0024083Y0141288D01*
X0024700Y0141288D01*
X0024700Y0140671D01*
X0024083Y0140671D01*
X0024083Y0142522D02*
X0024083Y0143139D01*
X0024700Y0143139D01*
X0024700Y0142522D01*
X0024083Y0142522D01*
X0022251Y0146671D02*
X0021017Y0146671D01*
X0020400Y0147288D01*
X0020400Y0149757D01*
X0021017Y0150374D01*
X0022251Y0150374D01*
X0022869Y0149757D01*
X0022869Y0147288D02*
X0022251Y0146671D01*
X0019185Y0146671D02*
X0019185Y0149139D01*
X0017951Y0150374D01*
X0016717Y0149139D01*
X0016717Y0146671D01*
X0016717Y0148522D02*
X0019185Y0148522D01*
X0018568Y0144374D02*
X0019185Y0143757D01*
X0019185Y0143139D01*
X0018568Y0142522D01*
X0019185Y0141905D01*
X0019185Y0141288D01*
X0018568Y0140671D01*
X0017334Y0140671D01*
X0016717Y0141288D01*
X0017951Y0142522D02*
X0018568Y0142522D01*
X0018568Y0144374D02*
X0017334Y0144374D01*
X0016717Y0143757D01*
X0018568Y0138374D02*
X0016717Y0136522D01*
X0019185Y0136522D01*
X0018568Y0134671D02*
X0018568Y0138374D01*
X0027766Y0147288D02*
X0028383Y0146671D01*
X0029618Y0146671D01*
X0030235Y0147288D01*
X0030235Y0149757D01*
X0029618Y0150374D01*
X0028383Y0150374D01*
X0027766Y0149757D01*
X0027766Y0147288D01*
X0029608Y0144374D02*
X0029608Y0140671D01*
X0032076Y0140671D01*
X0029608Y0138374D02*
X0029608Y0134671D01*
X0032076Y0134671D01*
X0036974Y0135288D02*
X0037591Y0134671D01*
X0038826Y0134671D01*
X0039443Y0135288D01*
X0039443Y0136522D01*
X0038826Y0137139D01*
X0037591Y0137139D01*
X0036974Y0136522D01*
X0036974Y0135288D01*
X0037591Y0140671D02*
X0036974Y0141288D01*
X0036974Y0142522D01*
X0037591Y0143139D01*
X0038826Y0143139D01*
X0039443Y0142522D01*
X0039443Y0141288D01*
X0038826Y0140671D01*
X0037591Y0140671D01*
X0040657Y0141288D02*
X0041274Y0140671D01*
X0043126Y0140671D01*
X0043126Y0143139D01*
X0044340Y0143139D02*
X0045575Y0143139D01*
X0044957Y0143757D02*
X0044957Y0141288D01*
X0045575Y0140671D01*
X0046796Y0140671D02*
X0049264Y0140671D01*
X0048030Y0140671D02*
X0048030Y0144374D01*
X0046796Y0143139D01*
X0047413Y0138374D02*
X0046796Y0137757D01*
X0047413Y0138374D02*
X0048647Y0138374D01*
X0049264Y0137757D01*
X0049264Y0137139D01*
X0046796Y0134671D01*
X0049264Y0134671D01*
X0045575Y0134671D02*
X0044957Y0135288D01*
X0044957Y0137757D01*
X0044340Y0137139D02*
X0045575Y0137139D01*
X0043126Y0137139D02*
X0043126Y0134671D01*
X0041274Y0134671D01*
X0040657Y0135288D01*
X0040657Y0137139D01*
X0040657Y0141288D02*
X0040657Y0143139D01*
X0036367Y0146671D02*
X0036367Y0150374D01*
X0037601Y0150374D02*
X0035132Y0150374D01*
X0033918Y0150374D02*
X0033918Y0147288D01*
X0033301Y0146671D01*
X0032066Y0146671D01*
X0031449Y0147288D01*
X0031449Y0150374D01*
X0032076Y0153421D02*
X0029608Y0153421D01*
X0029608Y0157124D01*
X0029608Y0159421D02*
X0029608Y0163124D01*
X0032076Y0159421D01*
X0032076Y0163124D01*
X0032690Y0165421D02*
X0032690Y0169124D01*
X0030222Y0169124D02*
X0030222Y0165421D01*
X0029000Y0165421D02*
X0027766Y0165421D01*
X0028383Y0165421D02*
X0028383Y0169124D01*
X0027766Y0169124D02*
X0029000Y0169124D01*
X0030222Y0169124D02*
X0032690Y0165421D01*
X0024700Y0161889D02*
X0024700Y0161272D01*
X0024083Y0161272D01*
X0024083Y0161889D01*
X0024700Y0161889D01*
X0024700Y0160038D02*
X0024700Y0159421D01*
X0024083Y0159421D01*
X0024083Y0160038D01*
X0024700Y0160038D01*
X0024700Y0155889D02*
X0024700Y0155272D01*
X0024083Y0155272D01*
X0024083Y0155889D01*
X0024700Y0155889D01*
X0024700Y0154038D02*
X0024700Y0153421D01*
X0024083Y0153421D01*
X0024083Y0154038D01*
X0024700Y0154038D01*
X0019185Y0153421D02*
X0016717Y0153421D01*
X0019185Y0155889D01*
X0019185Y0156507D01*
X0018568Y0157124D01*
X0017334Y0157124D01*
X0016717Y0156507D01*
X0016717Y0159421D02*
X0019185Y0159421D01*
X0017951Y0159421D02*
X0017951Y0163124D01*
X0016717Y0161889D01*
X0016717Y0165421D02*
X0016717Y0167889D01*
X0017951Y0169124D01*
X0019185Y0167889D01*
X0019185Y0165421D01*
X0020400Y0166038D02*
X0020400Y0168507D01*
X0021017Y0169124D01*
X0022251Y0169124D01*
X0022869Y0168507D01*
X0022869Y0166038D02*
X0022251Y0165421D01*
X0021017Y0165421D01*
X0020400Y0166038D01*
X0019185Y0167272D02*
X0016717Y0167272D01*
X0035467Y0175921D02*
X0035467Y0179624D01*
X0037318Y0179624D01*
X0037935Y0179007D01*
X0037935Y0177772D01*
X0037318Y0177155D01*
X0035467Y0177155D01*
X0039150Y0176538D02*
X0039767Y0175921D01*
X0041001Y0175921D01*
X0041619Y0176538D01*
X0042833Y0175921D02*
X0042833Y0179624D01*
X0044685Y0179624D01*
X0045302Y0179007D01*
X0045302Y0178389D01*
X0044685Y0177772D01*
X0042833Y0177772D01*
X0041619Y0179007D02*
X0041001Y0179624D01*
X0039767Y0179624D01*
X0039150Y0179007D01*
X0039150Y0176538D01*
X0042833Y0175921D02*
X0044685Y0175921D01*
X0045302Y0176538D01*
X0045302Y0177155D01*
X0044685Y0177772D01*
X0046516Y0177772D02*
X0048985Y0177772D01*
X0050199Y0175921D02*
X0052668Y0175921D01*
X0053882Y0176538D02*
X0054500Y0175921D01*
X0055734Y0175921D01*
X0056351Y0176538D01*
X0056351Y0177772D01*
X0055734Y0178389D01*
X0054500Y0178389D01*
X0053882Y0177772D01*
X0053882Y0176538D01*
X0050199Y0175921D02*
X0050199Y0179624D01*
X0049589Y0181921D02*
X0048972Y0182538D01*
X0049589Y0183155D01*
X0051440Y0183155D01*
X0051440Y0183772D02*
X0051440Y0181921D01*
X0049589Y0181921D01*
X0047757Y0182538D02*
X0047757Y0184389D01*
X0049589Y0184389D02*
X0050823Y0184389D01*
X0051440Y0183772D01*
X0052655Y0181921D02*
X0053889Y0181921D01*
X0053272Y0181921D02*
X0053272Y0185624D01*
X0052655Y0185624D01*
X0055110Y0185624D02*
X0055727Y0185624D01*
X0055727Y0181921D01*
X0055110Y0181921D02*
X0056344Y0181921D01*
X0058183Y0178389D02*
X0057566Y0177772D01*
X0057566Y0176538D01*
X0058183Y0175921D01*
X0060034Y0175921D01*
X0060034Y0175303D02*
X0060034Y0178389D01*
X0058183Y0178389D01*
X0061249Y0178389D02*
X0061866Y0178389D01*
X0061866Y0175921D01*
X0061249Y0175921D02*
X0062483Y0175921D01*
X0063704Y0176538D02*
X0064321Y0175921D01*
X0066173Y0175921D01*
X0067387Y0177772D02*
X0069856Y0177772D01*
X0071070Y0178389D02*
X0072305Y0179624D01*
X0072305Y0175921D01*
X0073539Y0175921D02*
X0071070Y0175921D01*
X0074754Y0175921D02*
X0075371Y0175921D01*
X0075371Y0176538D01*
X0074754Y0176538D01*
X0074754Y0175921D01*
X0076595Y0175921D02*
X0079064Y0175921D01*
X0077829Y0175921D02*
X0077829Y0179624D01*
X0076595Y0178389D01*
X0076608Y0181921D02*
X0074140Y0181921D01*
X0072915Y0181921D02*
X0072298Y0181921D01*
X0072298Y0182538D01*
X0072915Y0182538D01*
X0072915Y0181921D01*
X0071084Y0181921D02*
X0068615Y0181921D01*
X0071084Y0184389D01*
X0071084Y0185007D01*
X0070467Y0185624D01*
X0069232Y0185624D01*
X0068615Y0185007D01*
X0067401Y0185007D02*
X0067401Y0182538D01*
X0066783Y0181921D01*
X0065549Y0181921D01*
X0064932Y0182538D01*
X0067401Y0185007D01*
X0066783Y0185624D01*
X0065549Y0185624D01*
X0064932Y0185007D01*
X0064932Y0182538D01*
X0063717Y0182538D02*
X0063100Y0181921D01*
X0061866Y0181921D01*
X0061249Y0182538D01*
X0061249Y0183155D01*
X0061866Y0183772D01*
X0063100Y0183772D01*
X0063717Y0183155D01*
X0063717Y0182538D01*
X0063100Y0183772D02*
X0063717Y0184389D01*
X0063717Y0185007D01*
X0063100Y0185624D01*
X0061866Y0185624D01*
X0061249Y0185007D01*
X0061249Y0184389D01*
X0061866Y0183772D01*
X0061866Y0180241D02*
X0061866Y0179624D01*
X0063704Y0177772D02*
X0063704Y0176538D01*
X0063704Y0177772D02*
X0064321Y0178389D01*
X0066173Y0178389D01*
X0060034Y0175303D02*
X0059417Y0174686D01*
X0058800Y0174686D01*
X0047757Y0182538D02*
X0047140Y0181921D01*
X0046523Y0182538D01*
X0045906Y0181921D01*
X0045288Y0182538D01*
X0045288Y0184389D01*
X0044074Y0183772D02*
X0041605Y0183772D01*
X0040391Y0183772D02*
X0040391Y0181921D01*
X0040391Y0183772D02*
X0039774Y0184389D01*
X0037922Y0184389D01*
X0037922Y0181921D01*
X0036701Y0181921D02*
X0035467Y0181921D01*
X0036084Y0181921D02*
X0036084Y0184389D01*
X0035467Y0184389D01*
X0036084Y0185624D02*
X0036084Y0186241D01*
X0067465Y0137052D02*
X0067465Y0135117D01*
X0066014Y0136568D01*
X0068917Y0136568D01*
X0068917Y0134106D02*
X0067949Y0133138D01*
X0067949Y0133622D02*
X0067949Y0132171D01*
X0068917Y0132171D02*
X0066014Y0132171D01*
X0066014Y0133622D01*
X0066498Y0134106D01*
X0067465Y0134106D01*
X0067949Y0133622D01*
X0074025Y0122896D02*
X0073541Y0122412D01*
X0073541Y0120477D01*
X0074025Y0119994D01*
X0074992Y0119994D01*
X0075476Y0120477D01*
X0076487Y0119994D02*
X0078422Y0119994D01*
X0077455Y0119994D02*
X0077455Y0122896D01*
X0076487Y0121929D01*
X0075476Y0122412D02*
X0074992Y0122896D01*
X0074025Y0122896D01*
X0074026Y0105388D02*
X0072091Y0105388D01*
X0072091Y0102486D01*
X0074026Y0102486D01*
X0075037Y0102969D02*
X0075521Y0102486D01*
X0076488Y0102486D01*
X0076972Y0102969D01*
X0076972Y0103453D01*
X0076488Y0103937D01*
X0075521Y0103937D01*
X0075037Y0104421D01*
X0075037Y0104904D01*
X0075521Y0105388D01*
X0076488Y0105388D01*
X0076972Y0104904D01*
X0077984Y0105388D02*
X0079435Y0105388D01*
X0079919Y0104904D01*
X0079919Y0103937D01*
X0079435Y0103453D01*
X0077984Y0103453D01*
X0077984Y0102486D02*
X0077984Y0105388D01*
X0080930Y0103937D02*
X0082865Y0103937D01*
X0083877Y0104421D02*
X0084844Y0105388D01*
X0084844Y0102486D01*
X0083877Y0102486D02*
X0085812Y0102486D01*
X0086823Y0102486D02*
X0088758Y0104421D01*
X0088758Y0104904D01*
X0088274Y0105388D01*
X0087307Y0105388D01*
X0086823Y0104904D01*
X0086823Y0102486D02*
X0088758Y0102486D01*
X0102713Y0101563D02*
X0106417Y0101563D01*
X0106417Y0100329D02*
X0106417Y0102798D01*
X0103948Y0100329D02*
X0102713Y0101563D01*
X0109038Y0109321D02*
X0109038Y0112223D01*
X0109038Y0110772D02*
X0110973Y0110772D01*
X0110973Y0112223D02*
X0110973Y0109321D01*
X0111984Y0109321D02*
X0112952Y0109321D01*
X0112468Y0109321D02*
X0112468Y0112223D01*
X0111984Y0112223D02*
X0112952Y0112223D01*
X0113949Y0112223D02*
X0113949Y0109321D01*
X0113949Y0110772D02*
X0115884Y0110772D01*
X0115884Y0112223D02*
X0115884Y0109321D01*
X0113007Y0120421D02*
X0112040Y0120421D01*
X0111556Y0120904D01*
X0110545Y0120904D02*
X0110061Y0120421D01*
X0109093Y0120421D01*
X0108610Y0120904D01*
X0110545Y0122839D01*
X0110545Y0120904D01*
X0110545Y0122839D02*
X0110061Y0123323D01*
X0109093Y0123323D01*
X0108610Y0122839D01*
X0108610Y0120904D01*
X0107598Y0120904D02*
X0107114Y0120421D01*
X0106147Y0120421D01*
X0105663Y0120904D01*
X0105663Y0121388D01*
X0106147Y0121872D01*
X0107114Y0121872D01*
X0107598Y0121388D01*
X0107598Y0120904D01*
X0107114Y0121872D02*
X0107598Y0122356D01*
X0107598Y0122839D01*
X0107114Y0123323D01*
X0106147Y0123323D01*
X0105663Y0122839D01*
X0105663Y0122356D01*
X0106147Y0121872D01*
X0104652Y0122356D02*
X0104652Y0122839D01*
X0104168Y0123323D01*
X0103200Y0123323D01*
X0102717Y0122839D01*
X0104652Y0122356D02*
X0102717Y0120421D01*
X0104652Y0120421D01*
X0111556Y0122839D02*
X0112040Y0123323D01*
X0113007Y0123323D01*
X0113491Y0122839D01*
X0113491Y0122356D01*
X0113007Y0121872D01*
X0113491Y0121388D01*
X0113491Y0120904D01*
X0113007Y0120421D01*
X0113007Y0121872D02*
X0112524Y0121872D01*
X0136417Y0076229D02*
X0136417Y0073960D01*
X0136417Y0075095D02*
X0133014Y0075095D01*
X0134148Y0073960D01*
X0133581Y0072822D02*
X0133014Y0072255D01*
X0133014Y0071121D01*
X0133581Y0070553D01*
X0134148Y0070553D01*
X0134715Y0071121D01*
X0134715Y0072255D01*
X0135282Y0072822D01*
X0135850Y0072822D01*
X0136417Y0072255D01*
X0136417Y0071121D01*
X0135850Y0070553D01*
X0136417Y0066008D02*
X0136417Y0063740D01*
X0136417Y0064874D02*
X0133014Y0064874D01*
X0134148Y0063740D01*
X0133581Y0062601D02*
X0134715Y0062601D01*
X0135282Y0062034D01*
X0135282Y0060333D01*
X0135282Y0061467D02*
X0136417Y0062601D01*
X0136417Y0060333D02*
X0133014Y0060333D01*
X0133014Y0062034D01*
X0133581Y0062601D01*
X0133581Y0055787D02*
X0133014Y0055220D01*
X0133014Y0054086D01*
X0133581Y0053519D01*
X0133581Y0052381D02*
X0133014Y0051813D01*
X0133014Y0050679D01*
X0133581Y0050112D01*
X0134148Y0050112D01*
X0134715Y0050679D01*
X0134715Y0051813D01*
X0135282Y0052381D01*
X0135850Y0052381D01*
X0136417Y0051813D01*
X0136417Y0050679D01*
X0135850Y0050112D01*
X0136417Y0053519D02*
X0134148Y0055787D01*
X0133581Y0055787D01*
X0136417Y0055787D02*
X0136417Y0053519D01*
X0136417Y0045567D02*
X0136417Y0043298D01*
X0134148Y0045567D01*
X0133581Y0045567D01*
X0133014Y0045000D01*
X0133014Y0043865D01*
X0133581Y0043298D01*
X0133581Y0042160D02*
X0134715Y0042160D01*
X0135282Y0041593D01*
X0135282Y0039891D01*
X0135282Y0041026D02*
X0136417Y0042160D01*
X0136417Y0039891D02*
X0133014Y0039891D01*
X0133014Y0041593D01*
X0133581Y0042160D01*
X0134715Y0035346D02*
X0134715Y0033077D01*
X0133581Y0034212D02*
X0135850Y0034212D01*
X0116401Y0034269D02*
X0112698Y0034269D01*
X0112698Y0036121D01*
X0113315Y0036738D01*
X0114549Y0036738D01*
X0115167Y0036121D01*
X0115167Y0034269D01*
X0114549Y0033055D02*
X0111463Y0033055D01*
X0111463Y0030586D02*
X0114549Y0030586D01*
X0115167Y0031203D01*
X0115167Y0032438D01*
X0114549Y0033055D01*
X0114549Y0025689D02*
X0112698Y0025689D01*
X0114549Y0025689D02*
X0115167Y0025072D01*
X0114549Y0024454D01*
X0115167Y0023837D01*
X0114549Y0023220D01*
X0112698Y0023220D01*
X0112081Y0022006D02*
X0111463Y0021388D01*
X0111463Y0019537D01*
X0115167Y0019537D01*
X0115167Y0021388D01*
X0114549Y0022006D01*
X0112081Y0022006D01*
X0113315Y0014639D02*
X0113315Y0012171D01*
X0096117Y0011724D02*
X0093214Y0011724D01*
X0093214Y0013175D01*
X0093698Y0013659D01*
X0094665Y0013659D01*
X0095149Y0013175D01*
X0095149Y0011724D01*
X0095149Y0010713D02*
X0095633Y0010713D01*
X0096117Y0010229D01*
X0096117Y0008778D01*
X0093214Y0008778D01*
X0093214Y0010229D01*
X0093698Y0010713D01*
X0094182Y0010713D01*
X0094665Y0010229D01*
X0094665Y0008778D01*
X0094665Y0010229D02*
X0095149Y0010713D01*
X0113315Y0041636D02*
X0113315Y0044105D01*
X0112081Y0042870D02*
X0114549Y0042870D01*
X0073058Y0103937D02*
X0072091Y0103937D01*
X0052848Y0112171D02*
X0050913Y0112171D01*
X0051881Y0112171D02*
X0051881Y0115073D01*
X0050913Y0114106D01*
X0049902Y0114589D02*
X0049902Y0113622D01*
X0049418Y0113138D01*
X0047967Y0113138D01*
X0048934Y0113138D02*
X0049902Y0112171D01*
X0047967Y0112171D02*
X0047967Y0115073D01*
X0049418Y0115073D01*
X0049902Y0114589D01*
X0075374Y0181921D02*
X0075374Y0185624D01*
X0074140Y0184389D01*
X0077823Y0184389D02*
X0079057Y0185624D01*
X0079057Y0181921D01*
X0077823Y0181921D02*
X0080292Y0181921D01*
X0085189Y0181921D02*
X0086423Y0181921D01*
X0085806Y0181921D02*
X0085806Y0185624D01*
X0085189Y0185624D02*
X0086423Y0185624D01*
X0087645Y0185007D02*
X0087645Y0182538D01*
X0088262Y0181921D01*
X0089496Y0181921D01*
X0090113Y0182538D01*
X0090113Y0185007D01*
X0089496Y0185624D01*
X0088262Y0185624D01*
X0087645Y0185007D01*
X0091328Y0185624D02*
X0093796Y0185624D01*
X0092562Y0185624D02*
X0092562Y0181921D01*
D12*
X0129263Y0168186D02*
X0129263Y0165116D01*
X0131565Y0165116D01*
X0130797Y0166651D01*
X0130797Y0167418D01*
X0131565Y0168186D01*
X0133099Y0168186D01*
X0133867Y0167418D01*
X0133867Y0165884D01*
X0133099Y0165116D01*
X0133867Y0163582D02*
X0133867Y0160513D01*
X0133867Y0162047D02*
X0129263Y0162047D01*
X0130797Y0160513D01*
X0130030Y0158978D02*
X0133099Y0155909D01*
X0133867Y0156676D01*
X0133867Y0158211D01*
X0133099Y0158978D01*
X0130030Y0158978D01*
X0129263Y0158211D01*
X0129263Y0156676D01*
X0130030Y0155909D01*
X0133099Y0155909D01*
X0133867Y0154374D02*
X0133867Y0151305D01*
X0130797Y0154374D01*
X0130030Y0154374D01*
X0129263Y0153607D01*
X0129263Y0152072D01*
X0130030Y0151305D01*
X0131565Y0145166D02*
X0132332Y0145166D01*
X0132332Y0142097D01*
X0133099Y0142097D02*
X0131565Y0142097D01*
X0130797Y0142864D01*
X0130797Y0144399D01*
X0131565Y0145166D01*
X0133867Y0142864D02*
X0133099Y0142097D01*
X0133867Y0142864D02*
X0133867Y0144399D01*
X0130797Y0140562D02*
X0130797Y0139795D01*
X0132332Y0138260D01*
X0133867Y0138260D02*
X0130797Y0138260D01*
X0130797Y0136726D02*
X0133867Y0135191D01*
X0130797Y0133656D01*
X0131565Y0132122D02*
X0130797Y0131354D01*
X0130797Y0129052D01*
X0129263Y0129052D02*
X0133867Y0129052D01*
X0133867Y0131354D01*
X0133099Y0132122D01*
X0131565Y0132122D01*
X0131565Y0127518D02*
X0132332Y0127518D01*
X0132332Y0124448D01*
X0133099Y0124448D02*
X0131565Y0124448D01*
X0130797Y0125216D01*
X0130797Y0126750D01*
X0131565Y0127518D01*
X0133867Y0125216D02*
X0133099Y0124448D01*
X0133867Y0125216D02*
X0133867Y0126750D01*
X0131565Y0122914D02*
X0131565Y0121379D01*
X0131565Y0119845D02*
X0132332Y0119845D01*
X0132332Y0116775D01*
X0133099Y0116775D02*
X0131565Y0116775D01*
X0130797Y0117543D01*
X0130797Y0119077D01*
X0131565Y0119845D01*
X0130030Y0122147D02*
X0129263Y0122914D01*
X0130030Y0122147D02*
X0133867Y0122147D01*
X0133867Y0119077D02*
X0133867Y0117543D01*
X0133099Y0116775D01*
X0133867Y0115241D02*
X0133867Y0112171D01*
X0129263Y0112171D01*
X0131565Y0106033D02*
X0133867Y0106033D01*
X0133867Y0102963D02*
X0130797Y0102963D01*
X0130797Y0105265D01*
X0131565Y0106033D01*
X0131565Y0101429D02*
X0133867Y0101429D01*
X0133867Y0098360D02*
X0130797Y0098360D01*
X0130797Y0100662D01*
X0131565Y0101429D01*
X0131565Y0096825D02*
X0133867Y0096825D01*
X0133867Y0094523D01*
X0133099Y0093756D01*
X0132332Y0094523D01*
X0132332Y0096825D01*
X0131565Y0096825D02*
X0130797Y0096058D01*
X0130797Y0094523D01*
X0131565Y0092221D02*
X0130797Y0091454D01*
X0130797Y0089919D01*
X0131565Y0089152D01*
X0133099Y0089152D01*
X0133867Y0089919D01*
X0133867Y0091454D01*
X0133099Y0092221D01*
X0131565Y0092221D01*
X0130030Y0087617D02*
X0129263Y0087617D01*
X0130030Y0087617D02*
X0131565Y0086082D01*
X0133867Y0086082D01*
X0131565Y0086082D02*
X0130030Y0084548D01*
X0129263Y0084548D01*
D13*
X0123804Y0085871D02*
X0123804Y0087338D01*
X0123070Y0088072D01*
X0122336Y0087338D01*
X0122336Y0085871D01*
X0121594Y0086238D02*
X0121594Y0087705D01*
X0121227Y0088072D01*
X0120127Y0088072D01*
X0120127Y0085871D01*
X0121227Y0085871D01*
X0121594Y0086238D01*
X0122336Y0086972D02*
X0123804Y0086972D01*
X0123804Y0090871D02*
X0122336Y0090871D01*
X0122336Y0093072D01*
X0121594Y0092705D02*
X0121227Y0093072D01*
X0120494Y0093072D01*
X0120127Y0092705D01*
X0120127Y0091238D01*
X0120494Y0090871D01*
X0121227Y0090871D01*
X0121594Y0091238D01*
X0119385Y0091238D02*
X0119018Y0090871D01*
X0118284Y0090871D01*
X0117917Y0091238D01*
X0118284Y0091972D02*
X0117917Y0092338D01*
X0117917Y0092705D01*
X0118284Y0093072D01*
X0119018Y0093072D01*
X0119385Y0092705D01*
X0119018Y0091972D02*
X0119385Y0091605D01*
X0119385Y0091238D01*
X0119018Y0091972D02*
X0118284Y0091972D01*
X0118284Y0088072D02*
X0117917Y0087705D01*
X0117917Y0087338D01*
X0118284Y0086972D01*
X0119018Y0086972D01*
X0119385Y0086605D01*
X0119385Y0086238D01*
X0119018Y0085871D01*
X0118284Y0085871D01*
X0117917Y0086238D01*
X0118284Y0088072D02*
X0119018Y0088072D01*
X0119385Y0087705D01*
X0119385Y0096972D02*
X0117917Y0096972D01*
X0118284Y0100871D02*
X0117917Y0101238D01*
X0118284Y0100871D02*
X0119018Y0100871D01*
X0119385Y0101238D01*
X0119385Y0101605D01*
X0119018Y0101972D01*
X0118651Y0101972D01*
X0119018Y0101972D02*
X0119385Y0102338D01*
X0119385Y0102705D01*
X0119018Y0103072D01*
X0118284Y0103072D01*
X0117917Y0102705D01*
X0120127Y0101238D02*
X0120494Y0101238D01*
X0120494Y0100871D01*
X0120127Y0100871D01*
X0120127Y0101238D01*
X0121231Y0101238D02*
X0121598Y0100871D01*
X0122332Y0100871D01*
X0122699Y0101238D01*
X0122699Y0101605D01*
X0122332Y0101972D01*
X0121965Y0101972D01*
X0122332Y0101972D02*
X0122699Y0102338D01*
X0122699Y0102705D01*
X0122332Y0103072D01*
X0121598Y0103072D01*
X0121231Y0102705D01*
X0101227Y0137121D02*
X0101594Y0137488D01*
X0101594Y0138955D01*
X0101227Y0139322D01*
X0100494Y0139322D01*
X0100127Y0138955D01*
X0100127Y0138588D01*
X0100494Y0138222D01*
X0101594Y0138222D01*
X0101227Y0137121D02*
X0100494Y0137121D01*
X0100127Y0137488D01*
X0099385Y0137121D02*
X0098651Y0137855D01*
X0099018Y0137855D02*
X0097917Y0137855D01*
X0097917Y0137121D02*
X0097917Y0139322D01*
X0099018Y0139322D01*
X0099385Y0138955D01*
X0099385Y0138222D01*
X0099018Y0137855D01*
X0110417Y0147121D02*
X0110417Y0149322D01*
X0111518Y0149322D01*
X0111885Y0148955D01*
X0111885Y0148222D01*
X0111518Y0147855D01*
X0110417Y0147855D01*
X0111151Y0147855D02*
X0111885Y0147121D01*
X0112627Y0147488D02*
X0112627Y0147855D01*
X0112994Y0148222D01*
X0113727Y0148222D01*
X0114094Y0147855D01*
X0114094Y0147488D01*
X0113727Y0147121D01*
X0112994Y0147121D01*
X0112627Y0147488D01*
X0112994Y0148222D02*
X0112627Y0148588D01*
X0112627Y0148955D01*
X0112994Y0149322D01*
X0113727Y0149322D01*
X0114094Y0148955D01*
X0114094Y0148588D01*
X0113727Y0148222D01*
X0112627Y0157121D02*
X0112627Y0157488D01*
X0114094Y0158955D01*
X0114094Y0159322D01*
X0112627Y0159322D01*
X0111885Y0158955D02*
X0111885Y0158222D01*
X0111518Y0157855D01*
X0110417Y0157855D01*
X0111151Y0157855D02*
X0111885Y0157121D01*
X0110417Y0157121D02*
X0110417Y0159322D01*
X0111518Y0159322D01*
X0111885Y0158955D01*
X0111885Y0165871D02*
X0111151Y0166605D01*
X0111518Y0166605D02*
X0110417Y0166605D01*
X0110417Y0165871D02*
X0110417Y0168072D01*
X0111518Y0168072D01*
X0111885Y0167705D01*
X0111885Y0166972D01*
X0111518Y0166605D01*
X0112627Y0166972D02*
X0113727Y0166972D01*
X0114094Y0166605D01*
X0114094Y0166238D01*
X0113727Y0165871D01*
X0112994Y0165871D01*
X0112627Y0166238D01*
X0112627Y0166972D01*
X0113360Y0167705D01*
X0114094Y0168072D01*
X0087017Y0171271D02*
X0087017Y0125271D01*
D14*
X0087117Y0125171D02*
X0113517Y0125171D01*
X0113593Y0125173D01*
X0113669Y0125179D01*
X0113744Y0125188D01*
X0113819Y0125202D01*
X0113893Y0125219D01*
X0113966Y0125240D01*
X0114038Y0125264D01*
X0114109Y0125293D01*
X0114178Y0125324D01*
X0114245Y0125359D01*
X0114310Y0125398D01*
X0114374Y0125440D01*
X0114435Y0125485D01*
X0114494Y0125533D01*
X0114550Y0125584D01*
X0114604Y0125638D01*
X0114655Y0125694D01*
X0114703Y0125753D01*
X0114748Y0125814D01*
X0114790Y0125878D01*
X0114829Y0125943D01*
X0114864Y0126010D01*
X0114895Y0126079D01*
X0114924Y0126150D01*
X0114948Y0126222D01*
X0114969Y0126295D01*
X0114986Y0126369D01*
X0115000Y0126444D01*
X0115009Y0126519D01*
X0115015Y0126595D01*
X0115017Y0126671D01*
X0115017Y0169871D01*
X0115015Y0169947D01*
X0115009Y0170023D01*
X0115000Y0170098D01*
X0114986Y0170173D01*
X0114969Y0170247D01*
X0114948Y0170320D01*
X0114924Y0170392D01*
X0114895Y0170463D01*
X0114864Y0170532D01*
X0114829Y0170599D01*
X0114790Y0170664D01*
X0114748Y0170728D01*
X0114703Y0170789D01*
X0114655Y0170848D01*
X0114604Y0170904D01*
X0114550Y0170958D01*
X0114494Y0171009D01*
X0114435Y0171057D01*
X0114374Y0171102D01*
X0114310Y0171144D01*
X0114245Y0171183D01*
X0114178Y0171218D01*
X0114109Y0171249D01*
X0114038Y0171278D01*
X0113966Y0171302D01*
X0113893Y0171323D01*
X0113819Y0171340D01*
X0113744Y0171354D01*
X0113669Y0171363D01*
X0113593Y0171369D01*
X0113517Y0171371D01*
X0087117Y0171371D01*
X0087041Y0171369D01*
X0086965Y0171363D01*
X0086890Y0171354D01*
X0086815Y0171340D01*
X0086741Y0171323D01*
X0086668Y0171302D01*
X0086596Y0171278D01*
X0086525Y0171249D01*
X0086456Y0171218D01*
X0086389Y0171183D01*
X0086324Y0171144D01*
X0086260Y0171102D01*
X0086199Y0171057D01*
X0086140Y0171009D01*
X0086084Y0170958D01*
X0086030Y0170904D01*
X0085979Y0170848D01*
X0085931Y0170789D01*
X0085886Y0170728D01*
X0085844Y0170664D01*
X0085805Y0170599D01*
X0085770Y0170532D01*
X0085739Y0170463D01*
X0085710Y0170392D01*
X0085686Y0170320D01*
X0085665Y0170247D01*
X0085648Y0170173D01*
X0085634Y0170098D01*
X0085625Y0170023D01*
X0085619Y0169947D01*
X0085617Y0169871D01*
X0085617Y0126671D01*
X0085619Y0126595D01*
X0085625Y0126519D01*
X0085634Y0126444D01*
X0085648Y0126369D01*
X0085665Y0126295D01*
X0085686Y0126222D01*
X0085710Y0126150D01*
X0085739Y0126079D01*
X0085770Y0126010D01*
X0085805Y0125943D01*
X0085844Y0125878D01*
X0085886Y0125814D01*
X0085931Y0125753D01*
X0085979Y0125694D01*
X0086030Y0125638D01*
X0086084Y0125584D01*
X0086140Y0125533D01*
X0086199Y0125485D01*
X0086260Y0125440D01*
X0086324Y0125398D01*
X0086389Y0125359D01*
X0086456Y0125324D01*
X0086525Y0125293D01*
X0086596Y0125264D01*
X0086668Y0125240D01*
X0086741Y0125219D01*
X0086815Y0125202D01*
X0086890Y0125188D01*
X0086965Y0125179D01*
X0087041Y0125173D01*
X0087117Y0125171D01*
X0095317Y0171371D02*
X0095319Y0171231D01*
X0095325Y0171091D01*
X0095335Y0170951D01*
X0095348Y0170811D01*
X0095366Y0170672D01*
X0095388Y0170533D01*
X0095413Y0170396D01*
X0095442Y0170258D01*
X0095475Y0170122D01*
X0095512Y0169987D01*
X0095553Y0169853D01*
X0095598Y0169720D01*
X0095646Y0169588D01*
X0095698Y0169458D01*
X0095753Y0169329D01*
X0095812Y0169202D01*
X0095875Y0169076D01*
X0095941Y0168952D01*
X0096010Y0168831D01*
X0096083Y0168711D01*
X0096160Y0168593D01*
X0096239Y0168478D01*
X0096322Y0168364D01*
X0096408Y0168254D01*
X0096497Y0168145D01*
X0096589Y0168039D01*
X0096684Y0167936D01*
X0096781Y0167835D01*
X0096882Y0167738D01*
X0096985Y0167643D01*
X0097091Y0167551D01*
X0097200Y0167462D01*
X0097310Y0167376D01*
X0097424Y0167293D01*
X0097539Y0167214D01*
X0097657Y0167137D01*
X0097777Y0167064D01*
X0097898Y0166995D01*
X0098022Y0166929D01*
X0098148Y0166866D01*
X0098275Y0166807D01*
X0098404Y0166752D01*
X0098534Y0166700D01*
X0098666Y0166652D01*
X0098799Y0166607D01*
X0098933Y0166566D01*
X0099068Y0166529D01*
X0099204Y0166496D01*
X0099342Y0166467D01*
X0099479Y0166442D01*
X0099618Y0166420D01*
X0099757Y0166402D01*
X0099897Y0166389D01*
X0100037Y0166379D01*
X0100177Y0166373D01*
X0100317Y0166371D01*
X0100457Y0166373D01*
X0100597Y0166379D01*
X0100737Y0166389D01*
X0100877Y0166402D01*
X0101016Y0166420D01*
X0101155Y0166442D01*
X0101292Y0166467D01*
X0101430Y0166496D01*
X0101566Y0166529D01*
X0101701Y0166566D01*
X0101835Y0166607D01*
X0101968Y0166652D01*
X0102100Y0166700D01*
X0102230Y0166752D01*
X0102359Y0166807D01*
X0102486Y0166866D01*
X0102612Y0166929D01*
X0102736Y0166995D01*
X0102857Y0167064D01*
X0102977Y0167137D01*
X0103095Y0167214D01*
X0103210Y0167293D01*
X0103324Y0167376D01*
X0103434Y0167462D01*
X0103543Y0167551D01*
X0103649Y0167643D01*
X0103752Y0167738D01*
X0103853Y0167835D01*
X0103950Y0167936D01*
X0104045Y0168039D01*
X0104137Y0168145D01*
X0104226Y0168254D01*
X0104312Y0168364D01*
X0104395Y0168478D01*
X0104474Y0168593D01*
X0104551Y0168711D01*
X0104624Y0168831D01*
X0104693Y0168952D01*
X0104759Y0169076D01*
X0104822Y0169202D01*
X0104881Y0169329D01*
X0104936Y0169458D01*
X0104988Y0169588D01*
X0105036Y0169720D01*
X0105081Y0169853D01*
X0105122Y0169987D01*
X0105159Y0170122D01*
X0105192Y0170258D01*
X0105221Y0170396D01*
X0105246Y0170533D01*
X0105268Y0170672D01*
X0105286Y0170811D01*
X0105299Y0170951D01*
X0105309Y0171091D01*
X0105315Y0171231D01*
X0105317Y0171371D01*
X0122817Y0078271D02*
X0120317Y0075771D01*
X0120317Y0070771D01*
X0122817Y0068271D01*
X0120317Y0065771D01*
X0120317Y0060771D01*
X0122817Y0058271D01*
X0120317Y0055771D01*
X0120317Y0050771D01*
X0122817Y0048271D01*
X0120317Y0045771D01*
X0120317Y0040771D01*
X0122817Y0038271D01*
X0120317Y0035771D01*
X0120317Y0030771D01*
X0122817Y0028271D01*
X0120317Y0025771D01*
X0120317Y0020771D01*
X0122817Y0018271D01*
X0127817Y0018271D01*
X0130317Y0020771D01*
X0130317Y0025771D01*
X0127817Y0028271D01*
X0130317Y0030771D01*
X0130317Y0035771D01*
X0127817Y0038271D01*
X0130317Y0040771D01*
X0130317Y0045771D01*
X0127817Y0048271D01*
X0130317Y0050771D01*
X0130317Y0055771D01*
X0127817Y0058271D01*
X0130317Y0060771D01*
X0130317Y0065771D01*
X0127817Y0068271D01*
X0130317Y0070771D01*
X0130317Y0075771D01*
X0127817Y0078271D01*
X0122817Y0078271D01*
X0106567Y0048271D02*
X0101567Y0048271D01*
X0099067Y0045771D01*
X0099067Y0040771D01*
X0101567Y0038271D01*
X0099067Y0035771D01*
X0099067Y0030771D01*
X0101567Y0028271D01*
X0099067Y0025771D01*
X0099067Y0020771D01*
X0101567Y0018271D01*
X0099067Y0015771D01*
X0099067Y0010771D01*
X0101567Y0008271D01*
X0106567Y0008271D01*
X0109067Y0010771D01*
X0109067Y0015771D01*
X0106567Y0018271D01*
X0109067Y0020771D01*
X0109067Y0025771D01*
X0106567Y0028271D01*
X0109067Y0030771D01*
X0109067Y0035771D01*
X0106567Y0038271D01*
X0109067Y0040771D01*
X0109067Y0045771D01*
X0106567Y0048271D01*
X0019167Y0048271D02*
X0016667Y0045771D01*
X0019167Y0043271D01*
X0019167Y0038271D01*
X0016667Y0035771D01*
X0019167Y0033271D01*
X0019167Y0028271D01*
X0016667Y0025771D01*
X0019167Y0023271D01*
X0019167Y0018271D01*
X0016667Y0015771D01*
X0019167Y0013271D01*
X0019167Y0008271D01*
X0016667Y0005771D01*
X0011667Y0005771D01*
X0009167Y0008271D01*
X0009167Y0013271D01*
X0011667Y0015771D01*
X0009167Y0018271D01*
X0009167Y0023271D01*
X0011667Y0025771D01*
X0009167Y0028271D01*
X0009167Y0033271D01*
X0011667Y0035771D01*
X0009167Y0038271D01*
X0009167Y0043271D01*
X0011667Y0045771D01*
X0009167Y0048271D01*
X0009167Y0053271D01*
X0011667Y0055771D01*
X0009167Y0058271D01*
X0009167Y0063271D01*
X0011667Y0065771D01*
X0016667Y0065771D01*
X0019167Y0063271D01*
X0019167Y0058271D01*
X0016667Y0055771D01*
X0019167Y0053271D01*
X0019167Y0048271D01*
D15*
X0007417Y0059271D02*
X0007417Y0060773D01*
X0006666Y0061523D01*
X0005915Y0061523D01*
X0005165Y0060773D01*
X0005165Y0058521D01*
X0006666Y0058521D01*
X0007417Y0059271D01*
X0005165Y0058521D02*
X0003663Y0060022D01*
X0002913Y0061523D01*
X0026537Y0100771D02*
X0026537Y0005889D01*
X0090317Y0005889D01*
X0090317Y0100771D01*
X0026537Y0100771D01*
X0025417Y0011523D02*
X0025417Y0008521D01*
X0025417Y0010022D02*
X0020913Y0010022D01*
X0022414Y0008521D01*
X0101813Y0005169D02*
X0104065Y0002917D01*
X0104065Y0005919D01*
X0106317Y0005169D02*
X0101813Y0005169D01*
X0132813Y0022918D02*
X0134315Y0021417D01*
X0134315Y0023669D01*
X0135065Y0024419D01*
X0135816Y0024419D01*
X0136567Y0023669D01*
X0136567Y0022167D01*
X0135816Y0021417D01*
X0134315Y0021417D01*
X0132813Y0022918D02*
X0132063Y0024419D01*
X0106317Y0048417D02*
X0106317Y0051419D01*
X0106317Y0049918D02*
X0101813Y0049918D01*
X0103314Y0048417D01*
X0115564Y0071417D02*
X0114063Y0072918D01*
X0118567Y0072918D01*
X0118567Y0071417D02*
X0118567Y0074419D01*
D16*
X0115267Y0128271D03*
X0115267Y0133271D03*
X0115267Y0138271D03*
X0115267Y0143271D03*
X0115267Y0148271D03*
X0115267Y0153271D03*
X0115267Y0158271D03*
X0115267Y0163271D03*
X0115267Y0168271D03*
X0085367Y0168271D03*
X0085367Y0163271D03*
X0085367Y0158271D03*
X0085367Y0153271D03*
X0085367Y0148271D03*
X0085367Y0143271D03*
X0085367Y0138271D03*
X0085367Y0133271D03*
X0085367Y0128271D03*
D17*
X0101567Y0107021D02*
X0116567Y0107021D01*
X0116567Y0082021D01*
X0101567Y0082021D01*
X0101567Y0107021D01*
M02*
