G75*
%MOIN*%
%OFA0B0*%
%FSLAX25Y25*%
%IPPOS*%
%LPD*%
%AMOC8*
5,1,8,0,0,1.08239X$1,22.5*
%
%ADD10C,0.00000*%
%ADD11C,0.06000*%
%ADD12R,0.08000X0.02600*%
%ADD13R,0.07087X0.04724*%
%ADD14R,0.04724X0.07087*%
%ADD15R,0.07874X0.04724*%
%ADD16R,0.08465X0.07087*%
%ADD17C,0.04000*%
%ADD18C,0.02400*%
%ADD19C,0.01600*%
%ADD20R,0.03562X0.03562*%
D10*
X0002817Y0003271D02*
X0002817Y0160771D01*
X0030317Y0188271D01*
X0117817Y0188271D01*
X0137817Y0168271D01*
X0137817Y0020771D01*
X0120317Y0003271D01*
X0002817Y0003271D01*
D11*
X0011167Y0010771D02*
X0017167Y0010771D01*
X0017167Y0020771D02*
X0011167Y0020771D01*
X0011167Y0030771D02*
X0017167Y0030771D01*
X0017167Y0040771D02*
X0011167Y0040771D01*
X0011167Y0050771D02*
X0017167Y0050771D01*
X0017167Y0060771D02*
X0011167Y0060771D01*
X0101067Y0043271D02*
X0107067Y0043271D01*
X0107067Y0033271D02*
X0101067Y0033271D01*
X0101067Y0023271D02*
X0107067Y0023271D01*
X0107067Y0013271D02*
X0101067Y0013271D01*
X0122317Y0023271D02*
X0128317Y0023271D01*
X0128317Y0033271D02*
X0122317Y0033271D01*
X0122317Y0043271D02*
X0128317Y0043271D01*
X0128317Y0053271D02*
X0122317Y0053271D01*
X0122317Y0063271D02*
X0128317Y0063271D01*
X0128317Y0073271D02*
X0122317Y0073271D01*
D12*
X0120117Y0128271D03*
X0120117Y0133271D03*
X0120117Y0138271D03*
X0120117Y0143271D03*
X0120117Y0148271D03*
X0120117Y0153271D03*
X0120117Y0158271D03*
X0120117Y0163271D03*
X0120117Y0168271D03*
X0080517Y0168271D03*
X0080517Y0163271D03*
X0080517Y0158271D03*
X0080517Y0153271D03*
X0080517Y0148271D03*
X0080517Y0143271D03*
X0080517Y0138271D03*
X0080517Y0133271D03*
X0080517Y0128271D03*
D13*
X0094415Y0149521D03*
X0094415Y0159521D03*
X0094415Y0168271D03*
X0106218Y0168271D03*
X0106218Y0159521D03*
X0106218Y0149521D03*
X0109968Y0133271D03*
X0098165Y0133271D03*
X0062468Y0107021D03*
X0050665Y0107021D03*
X0037468Y0107021D03*
X0025665Y0107021D03*
X0025665Y0122021D03*
X0037468Y0122021D03*
D14*
X0061567Y0122369D03*
X0061567Y0134172D03*
X0014067Y0091672D03*
X0014067Y0079869D03*
D15*
X0026537Y0077149D03*
X0026537Y0069275D03*
X0026537Y0061401D03*
X0026537Y0053526D03*
X0026537Y0045652D03*
X0026537Y0037778D03*
X0026537Y0085023D03*
X0026537Y0092897D03*
X0090317Y0092897D03*
X0090317Y0085023D03*
X0090317Y0077149D03*
X0090317Y0069275D03*
X0090317Y0061401D03*
X0090317Y0053526D03*
X0090317Y0045652D03*
X0090317Y0037778D03*
D16*
X0088664Y0114481D03*
X0077050Y0114481D03*
D17*
X0111567Y0102021D03*
X0111567Y0097021D03*
X0111567Y0092021D03*
X0111567Y0087021D03*
D18*
X0090317Y0093271D02*
X0072817Y0093271D01*
X0072817Y0107021D01*
X0072817Y0114521D01*
X0069067Y0114521D01*
X0069067Y0122021D01*
X0080517Y0128271D02*
X0089067Y0128271D01*
X0088664Y0127423D01*
X0088664Y0114481D01*
X0072817Y0107021D02*
X0062468Y0107021D01*
X0119067Y0122021D02*
X0122817Y0122021D01*
X0122817Y0128271D01*
D19*
X0120117Y0128271D01*
X0112817Y0128271D02*
X0105317Y0120791D01*
X0105337Y0120771D01*
X0105337Y0118291D01*
X0105317Y0060771D01*
X0105337Y0059521D01*
X0121567Y0043271D01*
X0125317Y0043271D01*
X0125317Y0053271D02*
X0117817Y0053271D01*
X0115317Y0055771D01*
X0115317Y0075771D01*
X0127817Y0088271D01*
X0127817Y0158271D01*
X0120117Y0158271D01*
X0115317Y0158271D01*
X0107817Y0150771D01*
X0106218Y0149521D01*
X0104067Y0143271D02*
X0104067Y0128271D01*
X0101567Y0125771D01*
X0101567Y0080771D01*
X0097817Y0077021D01*
X0090445Y0077021D01*
X0090317Y0077149D01*
X0090317Y0069275D02*
X0087817Y0068271D01*
X0090317Y0069275D02*
X0092817Y0068271D01*
X0100317Y0068271D01*
X0100317Y0058271D01*
X0114067Y0044521D01*
X0114067Y0025771D01*
X0111567Y0023271D01*
X0104067Y0023271D01*
X0100317Y0032021D02*
X0085317Y0032021D01*
X0082817Y0033271D01*
X0081567Y0038271D02*
X0089825Y0038271D01*
X0090317Y0037778D01*
X0082817Y0043271D02*
X0077817Y0048271D01*
X0077817Y0060771D01*
X0090317Y0060771D01*
X0090317Y0061401D01*
X0090317Y0053526D02*
X0090061Y0053271D01*
X0082817Y0053271D01*
X0074067Y0050771D02*
X0074067Y0045771D01*
X0081567Y0038271D01*
X0074067Y0050771D02*
X0055317Y0050771D01*
X0055317Y0057021D01*
X0055317Y0050771D02*
X0032817Y0050771D01*
X0032817Y0032021D01*
X0027877Y0032021D01*
X0016627Y0020771D01*
X0014167Y0020771D01*
X0014167Y0030771D02*
X0016587Y0030771D01*
X0022325Y0037778D01*
X0026537Y0037778D01*
X0026537Y0045652D02*
X0026419Y0045771D01*
X0022817Y0045771D01*
X0017817Y0040771D01*
X0014167Y0040771D01*
X0014167Y0050771D02*
X0010317Y0050771D01*
X0006407Y0055771D01*
X0006407Y0064541D01*
X0010157Y0068271D01*
X0025533Y0068271D01*
X0026537Y0069275D01*
X0073821Y0069275D01*
X0077817Y0073271D01*
X0071695Y0077149D02*
X0076567Y0082021D01*
X0071695Y0077149D02*
X0026537Y0077149D01*
X0015537Y0077149D01*
X0014067Y0079869D01*
X0014067Y0091672D02*
X0014067Y0098371D01*
X0014107Y0098331D01*
X0021915Y0099521D02*
X0025317Y0099521D01*
X0025317Y0107021D01*
X0025665Y0107021D01*
X0025317Y0099521D02*
X0025317Y0093769D01*
X0025665Y0093769D01*
X0026537Y0092897D01*
X0026163Y0093271D01*
X0026537Y0085023D02*
X0032069Y0085023D01*
X0034067Y0087021D01*
X0034067Y0099521D01*
X0037817Y0103271D01*
X0037817Y0106672D01*
X0037468Y0107021D01*
X0050337Y0107021D02*
X0050337Y0103251D01*
X0050317Y0087021D01*
X0052817Y0084521D01*
X0065317Y0084521D01*
X0072817Y0107021D02*
X0075317Y0107021D01*
X0077050Y0114481D02*
X0072857Y0114481D01*
X0072817Y0114521D01*
X0069067Y0122021D02*
X0069067Y0135771D01*
X0063165Y0135771D01*
X0061567Y0134172D01*
X0062817Y0135771D01*
X0054067Y0135771D01*
X0040317Y0122021D01*
X0037468Y0122021D01*
X0025665Y0122021D02*
X0022817Y0121672D01*
X0019968Y0121672D01*
X0017817Y0119521D01*
X0017817Y0115771D01*
X0050337Y0107021D02*
X0050665Y0107021D01*
X0055317Y0119521D02*
X0062468Y0119521D01*
X0061567Y0122369D01*
X0061567Y0145771D02*
X0061567Y0155771D01*
X0074067Y0168271D01*
X0080517Y0168271D01*
X0094415Y0168271D01*
X0094415Y0159521D02*
X0090317Y0159521D01*
X0086567Y0163271D01*
X0080517Y0163271D01*
X0075317Y0163271D01*
X0066567Y0154521D01*
X0066567Y0153271D01*
X0070317Y0148271D02*
X0070317Y0145771D01*
X0070317Y0148271D02*
X0075317Y0153271D01*
X0080517Y0153271D01*
X0080517Y0158271D02*
X0086567Y0158271D01*
X0089067Y0155771D01*
X0089067Y0149521D01*
X0094415Y0149521D01*
X0089067Y0149521D02*
X0089067Y0143271D01*
X0104067Y0143271D01*
X0109067Y0133271D02*
X0109968Y0133271D01*
X0112817Y0133271D01*
X0112817Y0128271D01*
X0112817Y0133271D02*
X0112817Y0152021D01*
X0114067Y0153271D01*
X0120117Y0153271D01*
X0120117Y0163271D02*
X0112817Y0163271D01*
X0109067Y0159521D01*
X0106218Y0159521D01*
X0106218Y0168271D02*
X0120117Y0168271D01*
X0131567Y0168271D01*
X0135317Y0164521D01*
X0135317Y0087021D01*
X0125317Y0077021D01*
X0125317Y0073271D01*
X0131567Y0109521D02*
X0131567Y0163271D01*
X0120117Y0163271D01*
X0098165Y0133271D02*
X0098165Y0129172D01*
X0097817Y0128271D01*
X0097817Y0085771D01*
X0097069Y0085023D01*
X0090317Y0085023D01*
X0098165Y0133271D02*
X0091567Y0138271D01*
X0042817Y0060771D02*
X0042837Y0055751D01*
X0039087Y0055791D01*
X0032837Y0055791D01*
X0030573Y0053526D01*
X0026537Y0053526D01*
X0027167Y0060771D02*
X0026537Y0061401D01*
X0027167Y0060771D02*
X0035317Y0060771D01*
X0022897Y0010771D02*
X0014167Y0010771D01*
X0100317Y0032021D02*
X0104067Y0033271D01*
D20*
X0082817Y0033271D03*
X0082817Y0043271D03*
X0082817Y0053271D03*
X0077817Y0073271D03*
X0076567Y0082021D03*
X0072817Y0093271D03*
X0065317Y0084521D03*
X0075317Y0107021D03*
X0069067Y0122021D03*
X0055317Y0119521D03*
X0061567Y0145771D03*
X0066567Y0153271D03*
X0070317Y0145771D03*
X0089067Y0128271D03*
X0091567Y0138271D03*
X0119067Y0122021D03*
X0131567Y0109521D03*
X0055317Y0057021D03*
X0042817Y0060771D03*
X0035317Y0060771D03*
X0010157Y0068271D03*
X0014107Y0098331D03*
X0021915Y0099521D03*
X0017817Y0115771D03*
X0022897Y0010771D03*
M02*
